<svg width="24" height="25" viewBox="0 0 24 25" fill="none" xmlns="http://www.w3.org/2000/svg">
<path d="M23 15.7197C22.59 15.7197 22.25 16.0597 22.25 16.4697C22.25 19.4297 20.19 21.9097 17.42 22.5597L17.69 22.1097C17.9 21.7497 17.79 21.2897 17.43 21.0797C17.08 20.8697 16.61 20.9797 16.4 21.3397L15.35 23.0897C15.21 23.3197 15.21 23.6097 15.34 23.8397C15.47 24.0797 15.72 24.2197 15.99 24.2197C20.26 24.2197 23.74 20.7397 23.74 16.4697C23.75 16.0597 23.41 15.7197 23 15.7197Z" fill="#0E53D9"/>
<path d="M8 0.719727C3.73 0.719727 0.25 4.19973 0.25 8.46973C0.25 8.87973 0.59 9.21973 1 9.21973C1.41 9.21973 1.75 8.87973 1.75 8.46973C1.75 5.50973 3.81 3.02973 6.58 2.37973L6.31 2.82973C6.1 3.18973 6.21 3.64973 6.57 3.85973C6.92 4.06973 7.39 3.95973 7.6 3.59973L8.65 1.84973C8.78 1.61973 8.79 1.33973 8.65 1.09973C8.52 0.869727 8.27 0.719727 8 0.719727Z" fill="#0E53D9"/>
<path d="M21.5 9.17C21.5 12.25 19.26 14.79 16.33 15.26C16.33 15.25 16.33 15.25 16.33 15.24C16.04 11.51 13.02 8.47 9.23999 8.17C9.70999 5.24 12.25 3 15.33 3C18.74 3 21.5 5.76 21.5 9.17Z" fill="#0E53D9"/>
<path d="M9.81 14.7003C9.81 14.5503 9.64 14.3203 9.43 14.3203H7.37V15.0703H9.43C9.64 15.0803 9.81 14.9103 9.81 14.7003Z" fill="#0E53D9"/>
<path d="M9.83 16.5801H9.43H7.37V17.3301H9.84C10.16 17.3301 10.38 17.1301 10.38 16.9501C10.38 16.7701 10.15 16.5801 9.83 16.5801Z" fill="#0E53D9"/>
<path d="M14.83 15.3504C14.6 12.3204 12.18 9.90039 9.15 9.67039C8.99 9.66039 8.84 9.65039 8.67 9.65039C5.26 9.65039 2.5 12.4104 2.5 15.8304C2.5 19.2404 5.26 22.0004 8.67 22.0004C12.08 22.0004 14.85 19.2404 14.85 15.8304C14.85 15.6604 14.84 15.5104 14.83 15.3504ZM9.83 18.8304H9.17V19.2104C9.17 19.6204 8.83 19.9604 8.42 19.9604C8.01 19.9604 7.67 19.6204 7.67 19.2104V18.8304H6.62C6.21 18.8304 5.87 18.4904 5.87 18.0804V15.8304V13.5804C5.87 13.1704 6.21 12.8304 6.62 12.8304H7.67V12.4504C7.67 12.0404 8.01 11.7004 8.42 11.7004C8.83 11.7004 9.17 12.0404 9.17 12.4504V12.8304H9.43C10.43 12.8304 11.31 13.7104 11.31 14.7104C11.31 15.0004 11.24 15.2704 11.12 15.5204C11.58 15.8604 11.87 16.3804 11.87 16.9604C11.87 17.9904 10.96 18.8304 9.83 18.8304Z" fill="#0E53D9"/>
</svg>
