<svg width="40" height="40" viewBox="0 0 40 40" fill="none" xmlns="http://www.w3.org/2000/svg">
<path opacity="0.4" d="M36.2667 26.532L25.6 7.33203C24.1667 4.7487 22.1834 3.33203 20 3.33203C17.8167 3.33203 15.8334 4.7487 14.4 7.33203L3.73336 26.532C2.38336 28.982 2.23336 31.332 3.31669 33.182C4.40002 35.032 6.53336 36.0487 9.33336 36.0487H30.6667C33.4667 36.0487 35.6 35.032 36.6834 33.182C37.7667 31.332 37.6167 28.9654 36.2667 26.532Z" fill="#757680"/>
<path d="M20 24.5833C19.3167 24.5833 18.75 24.0167 18.75 23.3333V15C18.75 14.3167 19.3167 13.75 20 13.75C20.6833 13.75 21.25 14.3167 21.25 15V23.3333C21.25 24.0167 20.6833 24.5833 20 24.5833Z" fill="#757680"/>
<path d="M20 30.0016C19.9 30.0016 19.7833 29.9849 19.6666 29.9682C19.5666 29.9516 19.4666 29.9182 19.3666 29.8682C19.2666 29.8349 19.1666 29.7849 19.0666 29.7182C18.9833 29.6516 18.9 29.5849 18.8166 29.5182C18.5166 29.2016 18.3333 28.7682 18.3333 28.3349C18.3333 27.9016 18.5166 27.4682 18.8166 27.1516C18.9 27.0849 18.9833 27.0182 19.0666 26.9516C19.1666 26.8849 19.2666 26.8349 19.3666 26.8016C19.4666 26.7516 19.5666 26.7182 19.6666 26.7016C19.8833 26.6516 20.1166 26.6516 20.3166 26.7016C20.4333 26.7182 20.5333 26.7516 20.6333 26.8016C20.7333 26.8349 20.8333 26.8849 20.9333 26.9516C21.0166 27.0182 21.1 27.0849 21.1833 27.1516C21.4833 27.4682 21.6666 27.9016 21.6666 28.3349C21.6666 28.7682 21.4833 29.2016 21.1833 29.5182C21.1 29.5849 21.0166 29.6516 20.9333 29.7182C20.8333 29.7849 20.7333 29.8349 20.6333 29.8682C20.5333 29.9182 20.4333 29.9516 20.3166 29.9682C20.2166 29.9849 20.1 30.0016 20 30.0016Z" fill="#757680"/>
</svg>
