<svg width="124" height="24" viewBox="0 0 124 24" fill="none" xmlns="http://www.w3.org/2000/svg">
<path d="M112.315 19.1361L114.683 23.3968C114.975 23.9217 115.617 24.1416 116.169 23.904C117.284 23.4228 118.317 22.7903 119.243 22.0313C119.779 21.5927 119.822 20.7876 119.332 20.2982L117.179 18.1477C113.781 14.7524 108.27 14.7524 104.872 18.1477L102.719 20.2982C102.229 20.7876 102.271 21.5927 102.808 22.0313C103.735 22.7892 104.768 23.4228 105.882 23.904C106.434 24.1428 107.077 23.9229 107.369 23.3968L109.736 19.1361C110.297 18.1241 111.753 18.1241 112.315 19.1361Z" fill="#0E53D9"/>
<path d="M112.315 4.86406L114.683 0.603305C114.975 0.0783946 115.617 -0.1415 116.169 0.0961284C117.284 0.577296 118.317 1.20979 119.243 1.96878C119.779 2.40739 119.822 3.21249 119.332 3.70193L117.179 5.85241C113.781 9.24777 108.27 9.24777 104.872 5.85241L102.719 3.70193C102.229 3.21249 102.271 2.40739 102.808 1.96878C103.735 1.21097 104.768 0.577296 105.882 0.0961284C106.434 -0.142682 107.077 0.0772124 107.369 0.603305L109.736 4.86406C110.297 5.87487 111.753 5.87487 112.315 4.86406Z" fill="#0E53D9"/>
<path d="M122.568 9.18266L114.879 10.1497C112.319 10.4713 109.73 10.4713 107.171 10.1497L99.4816 9.18266C98.8485 9.10345 98.2664 9.54442 98.1776 10.1746C98.0936 10.7704 98.0498 11.3804 98.0498 11.9987C98.0498 12.6182 98.0936 13.2283 98.1776 13.8241C98.2664 14.4554 98.8497 14.8964 99.4816 14.816L107.171 13.8489C109.73 13.5274 112.319 13.5274 114.879 13.8489L122.568 14.816C123.201 14.8952 123.783 14.4542 123.872 13.8241C123.956 13.2283 124 12.6182 124 11.9987C124 11.3792 123.956 10.7704 123.872 10.1746C123.783 9.54442 123.201 9.10345 122.568 9.18266Z" fill="#0E53D9"/>
<path d="M69.7227 8.13174L67.9512 8.49114C67.795 8.52306 67.6885 8.66847 67.7075 8.82689L68.4269 15.0596C68.4565 15.3197 68.3074 15.5656 68.0625 15.659C67.6874 15.802 67.2661 15.9096 66.801 15.9817C66.1561 16.0799 65.4118 16.1307 64.5693 16.1307C63.8132 16.1307 63.1552 16.0373 62.5979 15.8517C62.0406 15.6661 61.7613 15.3315 61.7613 14.848C61.7613 14.2498 61.9873 12.5852 62.4393 9.85543C62.4654 9.69937 62.3624 9.54687 62.2062 9.51613L60.6833 9.21939C60.52 9.18747 60.3626 9.29742 60.3378 9.46175L59.9201 12.1525C59.6349 13.8005 59.4917 14.8539 59.4917 15.3114C59.4917 16.6131 59.8692 17.5908 60.6265 18.2481C61.3826 18.9042 62.8346 19.2329 64.5705 19.2329C65.3763 19.2329 66.2473 19.1277 67.1844 18.9172C68.1204 18.7068 68.9239 18.3651 69.5937 17.8946C70.2634 17.4241 70.6243 16.7218 70.622 15.7311C70.6184 14.0287 70.4303 11.8049 70.093 8.40483C70.0717 8.22395 69.9002 8.09509 69.7227 8.13174Z" fill="#414659"/>
<path d="M75.1896 14.4189L75.1553 3.30117C75.1541 3.00325 74.8914 2.77508 74.5968 2.81527L72.5733 3.08837C72.3224 3.12265 72.1379 3.34136 72.1473 3.59436L72.5579 14.6033C72.5686 14.887 72.8159 15.1022 73.0987 15.075L74.7459 14.9107C74.9979 14.8847 75.1896 14.673 75.1896 14.4189Z" fill="#414659"/>
<path d="M87.2707 7.0346L86.0105 7.25094C85.7218 7.3006 85.5218 7.5666 85.5549 7.85625L85.943 11.3155C85.5715 11.4892 85.1313 11.6063 84.6225 11.6689C84.1136 11.7304 83.4876 11.7623 82.7433 11.7623H82.1292C81.4713 11.7623 80.9885 11.6784 80.6785 11.5117C80.3684 11.345 80.1886 11.0376 80.1389 10.5907L79.927 8.71927C79.8904 8.39653 79.5851 8.17545 79.2668 8.24047L77.9107 8.51711C77.6255 8.57504 77.4338 8.84459 77.474 9.13305L78.1556 14.076C78.1746 14.2143 78.1544 14.3561 78.087 14.4791C77.7462 15.1033 77.2267 15.7003 76.5286 16.2678C75.8553 16.8152 74.834 17.4087 73.4661 18.0471C73.1537 18.1925 73.0449 18.5814 73.2413 18.864L74.2306 20.2909C74.3868 20.5156 74.6885 20.5936 74.9334 20.473C76.7309 19.5804 78.042 18.6405 78.8632 17.6522C79.6679 16.6851 80.1294 15.5987 80.2548 14.3975C80.7707 14.6434 81.4287 14.8645 82.128 14.8645H82.7422C84.639 14.8645 86.0282 14.5666 86.9086 13.9719C87.305 13.7 87.5973 13.356 87.7831 12.941C87.9689 12.5261 88.0624 12.0827 88.0624 11.6122C88.0624 10.5316 88.0127 9.1768 87.9144 7.54768C87.8967 7.22021 87.5949 6.97903 87.2707 7.0346Z" fill="#414659"/>
<path d="M92.3575 3.30117C92.3563 3.00325 92.0936 2.77508 91.7989 2.81527L89.7755 3.08837C89.5246 3.12265 89.34 3.34136 89.3495 3.59436L89.7601 14.6033C89.7707 14.887 90.018 15.1022 90.3009 15.075L91.948 14.9107C92.2001 14.8858 92.393 14.673 92.3918 14.42L92.3575 3.30117Z" fill="#414659"/>
<path d="M55.9681 2.81527L53.9447 3.08837C53.6938 3.12265 53.5092 3.34136 53.5187 3.59436L53.9293 14.6033C53.9399 14.887 54.1872 15.1022 54.47 15.075L56.1172 14.9107C56.3693 14.8858 56.5621 14.673 56.561 14.42L56.5267 3.30235C56.5267 3.00325 56.264 2.77508 55.9681 2.81527Z" fill="#414659"/>
<path d="M87.2258 17.4797C87.1773 17.2196 86.9501 17.0316 86.6851 17.0316H81.5021C81.198 17.0316 80.9519 17.2775 80.9519 17.5814V19.2779C80.9519 19.5817 81.198 19.8276 81.5021 19.8276H87.0058C87.3501 19.8276 87.6104 19.5143 87.5465 19.1762L87.2258 17.4797Z" fill="#414659"/>
<path d="M24.7256 17.0009H20.0456C19.7521 17.0009 19.532 17.2669 19.5864 17.5553L19.8598 18.9976C19.9012 19.2187 20.0941 19.3783 20.3189 19.3783H22.8784V20.3312C22.8784 20.5889 23.0879 20.7982 23.3458 20.7982H24.7256C24.9835 20.7982 25.193 20.5889 25.193 20.3312V18.9527C25.193 18.9456 25.1918 18.9397 25.1906 18.9326C25.1906 18.9255 25.193 18.9196 25.193 18.9125V17.4702C25.1942 17.2101 24.9847 17.0009 24.7256 17.0009Z" fill="#414659"/>
<path d="M63.5129 7.91534H65.1364C65.4405 7.91534 65.6866 7.66944 65.6866 7.3656V5.74358C65.6866 5.43975 65.4405 5.19385 65.1364 5.19385H63.5129C63.2088 5.19385 62.9626 5.43975 62.9626 5.74358V7.3656C62.9626 7.66944 63.2088 7.91534 63.5129 7.91534Z" fill="#414659"/>
<path d="M12.3742 6.5263H13.9977C14.3018 6.5263 14.548 6.2804 14.548 5.97657V4.35455C14.548 4.05071 14.3018 3.80481 13.9977 3.80481H12.3742C12.0701 3.80481 11.824 4.05071 11.824 4.35455V5.97657C11.8252 6.2804 12.0713 6.5263 12.3742 6.5263Z" fill="#414659"/>
<path d="M5.25923 15.3765C4.95511 15.3765 4.70898 15.6224 4.70898 15.9262V17.5482C4.70898 17.8521 4.95511 18.098 5.25923 18.098H6.88274C7.18685 18.098 7.43298 17.8521 7.43298 17.5482V15.9262C7.43298 15.6224 7.18685 15.3765 6.88274 15.3765H5.25923Z" fill="#414659"/>
<path d="M51.6773 2.90632C50.5887 3.2267 49.5746 3.55536 48.635 3.89466C47.7227 4.2245 46.8127 4.59454 45.9051 5.00596C45.6815 5.10763 45.5347 5.32871 45.5253 5.57343L45.4685 7.11033C45.459 7.36096 45.5797 7.59504 45.7844 7.73927C47.0908 8.66378 49.4184 10.871 49.7758 11.8168C49.8089 11.9043 49.7604 11.9894 49.6681 12.0071C48.6315 12.1975 47.1393 12.2932 45.1916 12.2932H44.7703C44.3266 12.2932 43.9905 12.253 43.7621 12.1703C43.5349 12.0887 43.3764 11.9693 43.2888 11.8109C43.2012 11.6536 43.1456 11.4337 43.122 11.1536L42.8853 7.85159C42.8723 7.6707 42.7007 7.54539 42.5244 7.58795L40.5352 8.06439C40.392 8.09867 40.2962 8.23463 40.3116 8.38004L40.6796 11.831C40.695 11.9752 40.6039 12.1064 40.4642 12.1466C40.1258 12.2436 39.7093 12.292 39.2146 12.292C38.9626 12.292 38.7484 12.2696 38.5697 12.2247C38.4419 12.1927 38.3544 12.0769 38.352 11.9445L38.2952 8.96052C38.2917 8.80092 38.1615 8.67324 38.0017 8.67324H36.209C36.0422 8.67324 35.9096 8.81156 35.9156 8.97825L36.0327 11.8558C36.0386 11.9882 35.9558 12.1123 35.828 12.1478C35.4872 12.2436 35.1144 12.2909 34.7098 12.2909C34.4056 12.2909 34.1808 12.2199 34.0353 12.0804C33.8885 11.9397 33.8223 11.7068 33.8341 11.3805L33.8495 8.96761C33.8507 8.80446 33.7193 8.67205 33.556 8.67205H31.7621C31.6 8.67205 31.4687 8.80328 31.4687 8.96525V10.6487C31.4687 11.1524 31.1456 11.5981 30.6664 11.7553C29.7505 12.0568 28.4394 12.1821 27.0123 11.3628C26.8691 11.2812 26.8667 11.0743 27.0087 10.9904C27.1839 10.8876 27.3483 10.7953 27.4963 10.7197C27.5957 10.6688 27.6596 10.5695 27.6596 10.4572L27.6631 8.81037C27.6631 8.57156 27.4809 8.37295 27.243 8.3493C27.1933 8.34458 27.1484 8.33866 27.1152 8.33393C24.9012 8.03128 22.266 6.41754 19.8615 6.22838C19.5479 6.20356 19.2687 6.42463 19.219 6.73438L18.9989 8.09276C18.9409 8.45334 19.2166 8.77964 19.5822 8.79028C21.9844 8.85412 22.86 9.25607 24.5332 9.81054C24.6681 9.85547 24.6894 10.0375 24.5675 10.1096C24.1735 10.3437 23.5381 10.709 23.1712 10.8745C23.1523 10.8828 23.131 10.8923 23.1132 10.9006C23.0351 10.9372 22.9571 10.9762 22.879 11.0105C22.3536 11.2789 21.9205 11.4716 21.582 11.5886C20.3313 12.0556 19.6816 12.2897 17.9765 12.2897H17.7907C16.9588 12.2897 16.7624 12.2081 16.3778 12.0461C16.2737 12.0024 16.2027 11.9019 16.1968 11.7884L16.0619 8.80092C16.0548 8.63186 15.9057 8.50418 15.7364 8.52309L14.1165 8.70161C13.9544 8.71934 13.8372 8.86712 13.8573 9.02909L14.1804 11.656C14.197 11.7896 14.12 11.9161 13.9958 11.9657C13.4574 12.1809 12.8456 12.4469 11.841 12.4469H10.5168C10.0021 12.4469 9.61988 12.3854 9.36902 12.2625C9.14064 12.1514 8.94539 11.9468 8.77973 11.6572L8.77618 11.6584L8.65784 11.4432C8.55963 11.2623 8.62471 11.0353 8.80576 10.936L9.19862 10.7185C9.29802 10.6641 9.35955 10.5589 9.35955 10.4466L9.3631 8.81156C9.3631 8.57511 9.18442 8.37413 8.94894 8.35167C8.89687 8.34694 8.84954 8.34103 8.81523 8.33512C6.60124 8.03247 3.96599 6.41754 1.56031 6.22957C1.24673 6.20474 0.967466 6.42582 0.917766 6.73556L0.697669 8.09394C0.639687 8.45452 0.915399 8.782 1.28104 8.79146C3.62046 8.85057 4.4973 9.22061 6.10898 9.77035C6.25689 9.82118 6.26518 10.0281 6.11963 10.0848C5.11854 10.4797 3.88908 11.0412 3.0643 11.5874C1.51534 12.6148 0.427873 14.2155 0.0894441 16.0409C0.00542856 16.4901 -0.000488281 16.7573 -0.000488281 17.0541C-0.000488281 17.0789 -0.000488281 17.1037 -0.000488281 17.1274C-0.000488281 17.1888 0.00661184 17.2491 0.00897847 17.3106C0.0574945 18.9705 0.573421 20.2685 1.56859 21.1954C2.37088 21.9426 3.40628 22.4013 4.67243 22.5763C4.85111 22.6046 5.39899 22.6259 5.5824 22.6377C5.77765 22.6496 5.97645 22.6566 6.18116 22.659C6.20601 22.659 6.23086 22.659 6.25571 22.659C7.53133 22.659 8.60578 22.5372 9.64236 22.2902C9.94529 22.218 10.1772 21.971 10.2257 21.6636L10.4884 19.9919C10.5441 19.6408 10.2269 19.3464 9.88021 19.4244C8.73358 19.6833 7.66741 19.9009 6.40836 19.9009C5.08778 19.9009 2.38153 19.545 2.38153 16.8803C2.38153 15.1377 3.63703 13.7817 4.192 13.4719C5.19546 12.9127 5.43449 12.6893 6.67934 12.24C6.95978 13.0569 7.24023 13.6788 7.52068 14.1056C7.80112 14.5324 8.19872 14.8492 8.71228 15.0596C9.22702 15.2701 9.93938 15.3753 10.8505 15.3753H11.8374C12.9012 15.3753 13.5378 15.1188 14.0644 14.9201C14.4561 14.7724 14.7661 14.5442 14.9957 14.2356C15.0939 14.1032 15.2844 14.115 15.3708 14.2569C15.5459 14.5466 15.8063 14.7653 16.1518 14.9119C16.631 15.1164 17.0428 15.2181 17.7895 15.2181H17.9398C19.9846 15.2181 21.014 14.7747 22.6849 13.8869L23.1925 13.6067C23.1925 13.6067 23.7156 13.252 24.2847 12.811C24.7723 13.6339 25.971 15.0088 28.5577 15.0088C30.07 15.0088 31.0758 14.6931 31.7455 14.2746C31.8591 14.2037 32.0023 14.2333 32.0982 14.3255C32.7395 14.9414 33.7572 15.2181 34.5914 15.2181C36.1002 15.2181 36.7593 14.7073 37.0728 14.3538C37.1817 14.2321 37.377 14.2333 37.4835 14.3574C37.7189 14.6317 38.0645 14.848 38.3733 14.9722C38.7827 15.1365 39.5199 15.2169 40.1045 15.2169C40.5837 15.2169 41.037 15.1199 41.4629 14.9272C41.7706 14.7889 42.0369 14.5998 42.2617 14.3609C42.3883 14.2262 42.5966 14.2392 42.7125 14.3834C42.89 14.6033 43.122 14.7818 43.4083 14.919C43.8225 15.1176 44.2757 15.2169 44.7668 15.2169H45.188C46.7536 15.2169 48.0162 15.1294 48.9746 14.9544C49.9331 14.7795 50.649 14.4839 51.1224 14.0701C51.5957 13.6563 51.8324 13.0924 51.8324 12.3795C51.8324 10.0848 50.3887 8.21098 48.6244 6.88925C48.5782 6.85378 48.4256 6.73792 48.1688 6.53931C49.4231 6.04396 50.7248 5.6219 52.0726 5.27196C52.2158 5.23531 52.3092 5.09817 52.2891 4.95276L52.0525 3.14867C52.0312 2.97134 51.8501 2.85548 51.6773 2.90632Z" fill="#414659"/>
</svg>
