<svg width="20" height="20" viewBox="0 0 20 20" fill="none" xmlns="http://www.w3.org/2000/svg">
<path d="M4.78338 13.3334C4.87505 12.9251 4.70838 12.3417 4.41671 12.0501L2.39171 10.0251C1.75838 9.39175 1.50838 8.71675 1.69171 8.13341C1.88338 7.55008 2.47505 7.15008 3.35838 7.00008L5.95838 6.56675C6.33338 6.50008 6.79171 6.16675 6.96671 5.82508L8.40005 2.95008C8.81671 2.12508 9.38338 1.66675 10 1.66675C10.6167 1.66675 11.1834 2.12508 11.6 2.95008L13.0334 5.82508C13.1417 6.04175 13.3667 6.25008 13.6084 6.39175L4.63338 15.3667C4.51671 15.4834 4.31671 15.3751 4.35005 15.2084L4.78338 13.3334Z" fill="#0E53D9"/>
<path d="M15.5833 12.0501C15.2833 12.3501 15.1166 12.9251 15.2166 13.3334L15.7916 15.8417C16.0333 16.8834 15.8833 17.6667 15.3666 18.0417C15.1583 18.1917 14.9083 18.2667 14.6166 18.2667C14.1916 18.2667 13.6916 18.1084 13.1416 17.7834L10.6999 16.3334C10.3166 16.1084 9.68325 16.1084 9.29992 16.3334L6.85825 17.7834C5.93325 18.3251 5.14159 18.4167 4.63325 18.0417C4.44159 17.9001 4.29992 17.7084 4.20825 17.4584L14.3416 7.32508C14.7249 6.94174 15.2666 6.76674 15.7916 6.85841L16.6333 7.00008C17.5166 7.15008 18.1083 7.55008 18.2999 8.13341C18.4833 8.71674 18.2333 9.39174 17.5999 10.0251L15.5833 12.0501Z" fill="#0E53D9"/>
</svg>
