<svg width="40" height="40" viewBox="0 0 40 40" fill="none" xmlns="http://www.w3.org/2000/svg">
<path opacity="0.4" d="M36.6666 12.5666V27.4333C36.6666 31.25 33.5666 34.3333 29.75 34.3333H10.25C6.43331 34.3333 3.33331 31.25 3.33331 27.4333V12.5666C3.33331 8.74994 6.43331 5.66669 10.25 5.66669H29.75C33.5666 5.66669 36.6666 8.74994 36.6666 12.5666Z" fill="#0F53D9"/>
<path d="M15.4167 21.25H8.75C8.06667 21.25 7.5 20.6833 7.5 20C7.5 19.3167 8.06667 18.75 8.75 18.75H15.4167C16.1 18.75 16.6667 19.3167 16.6667 20C16.6667 20.6833 16.1 21.25 15.4167 21.25Z" fill="#0F53D9"/>
<path d="M31.0667 19.45C31.3 18.9833 31.45 18.4667 31.45 17.9167C31.45 16.1333 29.9 14.5833 28.1167 14.5833H27.1V13.75C27.1 13.0667 26.5333 12.5 25.85 12.5C25.1667 12.5 24.6 13.0667 24.6 13.75V14.5833H22.9167H21.25C20.5667 14.5833 20 15.15 20 15.8333C20 16.5167 20.5667 17.0833 21.25 17.0833H21.6667V20V22.9167H21.25C20.5667 22.9167 20 23.4833 20 24.1667C20 24.85 20.5667 25.4167 21.25 25.4167H22.9167H24.6V26.25C24.6 26.9333 25.1667 27.5 25.85 27.5C26.5333 27.5 27.1 26.9333 27.1 26.25V25.4167H28.8667C30.8667 25.4167 32.5 23.9167 32.5 22.0833C32.5 21 31.9333 20.0666 31.0667 19.45ZM24.9 17.0833H28.1333C28.5667 17.0833 28.9667 17.55 28.9667 17.9167C28.9667 18.3833 28.6 18.75 28.1333 18.75H24.1667V17.0833H24.9ZM28.8667 22.9167H24.9H24.1667V21.25H28.1333H28.8833C29.5 21.25 30.0167 21.6333 30.0167 22.0833C30.0167 22.5333 29.4833 22.9167 28.8667 22.9167Z" fill="#0F53D9"/>
</svg>
