<svg width="167" height="62" viewBox="0 0 167 62" fill="none" xmlns="http://www.w3.org/2000/svg">
<rect width="167" height="62" rx="8" fill="#F9DFA9"/>
<path d="M53.6426 24C53.166 24 52.8086 23.8262 52.5703 23.4785C52.5664 24.6504 52.2305 25.5293 51.5625 26.1152C50.8984 26.7051 49.959 27 48.7441 27C46.123 27 44.8125 25.8105 44.8125 23.4316C44.8125 22.4395 44.9941 21.3887 45.3574 20.2793L46.5586 20.6367C46.2539 21.6914 46.1016 22.5703 46.1016 23.2734C46.1016 24.0977 46.3105 24.7051 46.7285 25.0957C47.1465 25.4863 47.8145 25.6816 48.7324 25.6816C49.6621 25.6816 50.3262 25.4961 50.7246 25.125C51.127 24.7578 51.3281 24.2109 51.3281 23.4844C51.3281 22.8008 51.127 21.8242 50.7246 20.5547L52.0195 20.0566L52.4004 21.416C52.5059 21.8613 52.6426 22.1836 52.8105 22.3828C52.9824 22.582 53.2324 22.6816 53.5605 22.6816C53.8535 22.6816 54.0762 22.5938 54.2285 22.418C54.3809 22.2383 54.4746 21.9551 54.5098 21.5684L54.6035 20.3555L55.7695 20.4434L55.6934 21.5391C55.6309 22.3008 55.9375 22.6816 56.6133 22.6816C57.1914 22.6816 57.4805 22.334 57.4805 21.6387C57.4805 21.2637 57.416 20.7285 57.2871 20.0332L58.5703 19.7285C58.7109 20.3809 58.7812 21.0156 58.7812 21.6328C58.7812 23.2109 58.127 24 56.8184 24C56.3691 24 56 23.9082 55.7109 23.7246C55.4258 23.541 55.2305 23.2773 55.125 22.9336C55.0352 23.2695 54.8555 23.5312 54.5859 23.7188C54.3164 23.9062 54.002 24 53.6426 24ZM53.0391 18.123L53.9941 17.168L54.9434 18.123L53.9941 19.0781L53.0391 18.123ZM55.084 18.123L56.0391 17.168L56.9883 18.123L56.0391 19.0781L55.084 18.123ZM54.0586 16.2656L55.0137 15.3105L55.9629 16.2656L55.0137 17.2207L54.0586 16.2656ZM63.0879 23.9238C62.666 23.998 62.2969 24.0352 61.9805 24.0352C61.3359 24.0352 60.8359 23.8691 60.4805 23.5371C60.125 23.2051 59.9473 22.7148 59.9473 22.0664C59.9473 21.7148 59.9922 21.373 60.082 21.041C60.1719 20.7051 60.3008 20.3965 60.4688 20.1152C60.6406 19.8301 60.8691 19.6016 61.1543 19.4297C61.4395 19.2578 61.7598 19.1719 62.1152 19.1719C62.4785 19.1719 62.7988 19.252 63.0762 19.4121C63.3574 19.5723 63.584 19.7832 63.7559 20.0449C63.9316 20.3066 64.0742 20.623 64.1836 20.9941C64.2969 21.3652 64.375 21.7422 64.418 22.125C64.4609 22.5039 64.4824 22.9121 64.4824 23.3496C64.4824 24.3262 64.1328 25.1445 63.4336 25.8047C62.7344 26.4688 61.6855 27.0078 60.2871 27.4219L59.7422 26.2148C61.7344 25.6641 62.8496 24.9004 63.0879 23.9238ZM63.2402 22.5879C63.1309 21.1582 62.748 20.4434 62.0918 20.4434C61.877 20.4434 61.6934 20.5195 61.541 20.6719C61.3887 20.8203 61.2793 21.0059 61.2129 21.2285C61.1465 21.4473 61.1133 21.6875 61.1133 21.9492C61.1133 22.2266 61.1953 22.4238 61.3594 22.541C61.5273 22.6543 61.7852 22.7109 62.1328 22.7109C62.5 22.7109 62.8691 22.6699 63.2402 22.5879ZM67.1309 20.332L68.3848 19.9102L68.7422 21.1289C68.8633 21.5625 68.9902 21.8867 69.123 22.1016C69.2598 22.3125 69.4316 22.4629 69.6387 22.5527C69.8457 22.6387 70.1328 22.6816 70.5 22.6816H70.5059V24H70.5C69.7812 24 69.2637 23.7988 68.9473 23.3965C68.9238 24.3613 68.627 25.1582 68.0566 25.7871C67.4902 26.4199 66.584 26.9707 65.3379 27.4395L64.7695 26.2441C65.8359 25.8496 66.5918 25.4258 67.0371 24.9727C67.4824 24.5195 67.7051 23.9355 67.7051 23.2207C67.7051 22.5137 67.5137 21.5508 67.1309 20.332ZM72.2051 14.584L73.1602 13.6289L74.1094 14.584L73.1602 15.5391L72.2051 14.584ZM74.291 20.1855C74.2676 19.8926 74.2305 19.627 74.1797 19.3887C74.1328 19.1465 74.0645 18.9219 73.9746 18.7148C73.8887 18.5039 73.7734 18.3398 73.6289 18.2227C73.4883 18.1055 73.3242 18.0469 73.1367 18.0469C72.9219 18.0469 72.7383 18.123 72.5859 18.2754C72.4336 18.4277 72.3242 18.6152 72.2578 18.8379C72.1914 19.0566 72.1582 19.2969 72.1582 19.5586C72.1582 19.8359 72.2402 20.0332 72.4043 20.1504C72.5723 20.2637 72.832 20.3203 73.1836 20.3203C73.5117 20.3203 73.8809 20.2754 74.291 20.1855ZM70.5117 22.6816H71.2793C71.748 22.6816 72.1348 22.6758 72.4395 22.6641C72.748 22.6523 73.0293 22.627 73.2832 22.5879C73.5371 22.5488 73.7324 22.5 73.8691 22.4414C74.0098 22.3789 74.127 22.293 74.2207 22.1836C74.3184 22.0742 74.3828 21.9512 74.4141 21.8145C74.4453 21.6777 74.4609 21.5039 74.4609 21.293C74.0039 21.418 73.5312 21.4805 73.043 21.4805C72.3945 21.4805 71.8945 21.3438 71.543 21.0703C71.1914 20.793 71.0156 20.3398 71.0156 19.7109C71.0156 19.3633 71.0566 19.0215 71.1387 18.6855C71.2207 18.3496 71.3438 18.0352 71.5078 17.7422C71.6758 17.4453 71.9023 17.207 72.1875 17.0273C72.4727 16.8438 72.7988 16.752 73.166 16.752C73.4668 16.752 73.7402 16.8105 73.9863 16.9277C74.2363 17.041 74.4434 17.1895 74.6074 17.373C74.7754 17.5566 74.9238 17.7773 75.0527 18.0352C75.1816 18.293 75.2812 18.5508 75.3516 18.8086C75.4258 19.0664 75.4863 19.3418 75.5332 19.6348C75.5801 19.9238 75.6094 20.1797 75.6211 20.4023C75.6367 20.625 75.6445 20.8438 75.6445 21.0586C75.6445 21.4922 75.6055 21.8633 75.5273 22.1719C75.4492 22.4766 75.3125 22.75 75.1172 22.9922C74.9258 23.2344 74.6621 23.4277 74.3262 23.5723C73.9941 23.7129 73.5762 23.8203 73.0723 23.8945C72.5723 23.9648 71.9688 24 71.2617 24H70.5117C70.4375 24 70.3848 23.9531 70.3535 23.8594C70.3223 23.7617 70.3066 23.5879 70.3066 23.3379C70.3066 23.0918 70.3242 22.9219 70.3594 22.8281C70.3906 22.7305 70.4414 22.6816 70.5117 22.6816ZM82.3418 23.9238C81.9199 23.998 81.5508 24.0352 81.2344 24.0352C80.5898 24.0352 80.0898 23.8691 79.7344 23.5371C79.3789 23.2051 79.2012 22.7148 79.2012 22.0664C79.2012 21.7148 79.2461 21.373 79.3359 21.041C79.4258 20.7051 79.5547 20.3965 79.7227 20.1152C79.8945 19.8301 80.123 19.6016 80.4082 19.4297C80.6934 19.2578 81.0137 19.1719 81.3691 19.1719C81.7324 19.1719 82.0527 19.252 82.3301 19.4121C82.6113 19.5723 82.8379 19.7832 83.0098 20.0449C83.1855 20.3066 83.3281 20.623 83.4375 20.9941C83.5508 21.3652 83.6289 21.7422 83.6719 22.125C83.7148 22.5039 83.7363 22.9121 83.7363 23.3496C83.7363 24.3262 83.3867 25.1445 82.6875 25.8047C81.9883 26.4688 80.9395 27.0078 79.541 27.4219L78.9961 26.2148C80.9883 25.6641 82.1035 24.9004 82.3418 23.9238ZM82.4941 22.5879C82.3848 21.1582 82.002 20.4434 81.3457 20.4434C81.1309 20.4434 80.9473 20.5195 80.7949 20.6719C80.6426 20.8203 80.5332 21.0059 80.4668 21.2285C80.4004 21.4473 80.3672 21.6875 80.3672 21.9492C80.3672 22.2266 80.4492 22.4238 80.6133 22.541C80.7812 22.6543 81.0391 22.7109 81.3867 22.7109C81.7539 22.7109 82.123 22.6699 82.4941 22.5879ZM90.9258 17.8535L92.4961 21.5156C92.6875 21.957 92.9023 22.2617 93.1406 22.4297C93.3789 22.5977 93.7012 22.6816 94.1074 22.6816H94.1895V24H94.0898C93.0273 24 92.2754 23.6055 91.834 22.8164C91.5996 23.2227 91.2637 23.5312 90.8262 23.7422C90.3887 23.9531 89.9102 24.0586 89.3906 24.0586C88.9648 24.0586 88.5469 23.9863 88.1367 23.8418C87.7305 23.6973 87.3633 23.4844 87.0352 23.2031L87.6328 22.1543C88.1484 22.541 88.7266 22.7344 89.3672 22.7344C90.1602 22.7344 90.7715 22.4414 91.2012 21.8555L89.7012 18.4395L90.9258 17.8535ZM96.8145 19.0898C97.0527 20.0742 97.1719 20.8711 97.1719 21.4805C97.1719 23.1602 96.2695 24 94.4648 24H94.1953C94.1211 24 94.0684 23.9531 94.0371 23.8594C94.0059 23.7617 93.9902 23.5879 93.9902 23.3379C93.9902 23.0879 94.0059 22.916 94.0371 22.8223C94.0684 22.7285 94.1211 22.6816 94.1953 22.6816H94.4648C94.9648 22.6816 95.3262 22.5723 95.5488 22.3535C95.7754 22.1348 95.8887 21.8027 95.8887 21.3574C95.8887 20.9824 95.7832 20.3398 95.5723 19.4297L96.8145 19.0898ZM95.0098 26.0566L95.9648 25.1016L96.9141 26.0566L95.9648 27.0117L95.0098 26.0566ZM92.9648 26.0566L93.9199 25.1016L94.8691 26.0566L93.9199 27.0117L92.9648 26.0566ZM99.8145 20.332L101.068 19.9102L101.426 21.1289C101.547 21.5625 101.674 21.8867 101.807 22.1016C101.943 22.3125 102.115 22.4629 102.322 22.5527C102.529 22.6387 102.816 22.6816 103.184 22.6816H103.189V24H103.184C102.465 24 101.947 23.7988 101.631 23.3965C101.607 24.3613 101.311 25.1582 100.74 25.7871C100.174 26.4199 99.2676 26.9707 98.0215 27.4395L97.4531 26.2441C98.5195 25.8496 99.2754 25.4258 99.7207 24.9727C100.166 24.5195 100.389 23.9355 100.389 23.2207C100.389 22.5137 100.197 21.5508 99.8145 20.332ZM105.967 18.7148C106.143 18.7148 106.344 18.7461 106.57 18.8086C106.797 18.8711 106.99 18.9355 107.15 19.002C107.314 19.0645 107.553 19.166 107.865 19.3066C108.209 19.459 108.477 19.5762 108.668 19.6582C108.863 19.7402 109.135 19.8379 109.482 19.9512C109.834 20.0645 110.172 20.1523 110.496 20.2148V21.3223L108 22.9922C107.473 23.3438 106.924 23.5996 106.354 23.7598C105.787 23.9199 105.166 24 104.49 24H103.195C103.121 24 103.068 23.9512 103.037 23.8535C103.006 23.7559 102.99 23.584 102.99 23.3379C102.99 23.0918 103.006 22.9219 103.037 22.8281C103.068 22.7305 103.121 22.6816 103.195 22.6816H104.725C105.252 22.6816 105.725 22.627 106.143 22.5176C106.564 22.4043 106.986 22.2168 107.408 21.9551L108.949 20.9824C108.445 20.8887 107.861 20.6895 107.197 20.3848C106.998 20.2949 106.852 20.2324 106.758 20.1973C106.664 20.1582 106.547 20.1191 106.406 20.0801C106.266 20.041 106.139 20.0215 106.025 20.0215C105.486 20.0215 105.139 20.3945 104.982 21.1406L104.941 21.3457L103.887 21.1523L103.928 20.9004C104.061 20.1934 104.287 19.6523 104.607 19.2773C104.932 18.9023 105.385 18.7148 105.967 18.7148ZM106.072 16.2598L107.027 15.3047L107.977 16.2598L107.027 17.2148L106.072 16.2598ZM82.1426 41.332L83.3965 40.9102C83.8262 42.3203 84.041 43.4258 84.041 44.2266C84.041 45.2109 83.75 46.0371 83.168 46.7051C82.5898 47.373 81.6504 47.9512 80.3496 48.4395L79.7812 47.2441C80.8477 46.8535 81.6035 46.4316 82.0488 45.9785C82.4941 45.5293 82.7168 44.9492 82.7168 44.2383C82.7168 43.5078 82.5254 42.5391 82.1426 41.332ZM81.7734 38.5664L82.7285 37.6113L83.6777 38.5664L82.7285 39.5215L81.7734 38.5664ZM86.748 41.332L88.002 40.9102C88.4316 42.3203 88.6465 43.4258 88.6465 44.2266C88.6465 45.2109 88.3555 46.0371 87.7734 46.7051C87.1953 47.373 86.2559 47.9512 84.9551 48.4395L84.3867 47.2441C85.4531 46.8535 86.209 46.4316 86.6543 45.9785C87.0996 45.5293 87.3223 44.9492 87.3223 44.2383C87.3223 43.5078 87.1309 42.5391 86.748 41.332ZM91.4473 45H90.1289V36.791H91.4473V45ZM96.4453 38.6836L97.4004 37.7285L98.3496 38.6836L97.4004 39.6387L96.4453 38.6836ZM96.8379 41.332L98.0918 40.9102L98.4492 42.1289C98.5703 42.5625 98.6973 42.8867 98.8301 43.1016C98.9668 43.3125 99.1387 43.4629 99.3457 43.5527C99.5527 43.6387 99.8398 43.6816 100.207 43.6816H100.213V45H100.207C99.4883 45 98.9707 44.7988 98.6543 44.3965C98.6309 45.3613 98.334 46.1582 97.7637 46.7871C97.1973 47.4199 96.291 47.9707 95.0449 48.4395L94.4766 47.2441C95.543 46.8496 96.2988 46.4258 96.7441 45.9727C97.1895 45.5195 97.4121 44.9355 97.4121 44.2207C97.4121 43.5137 97.2207 42.5508 96.8379 41.332ZM100.219 43.6816C100.352 43.6816 100.477 43.666 100.594 43.6348C100.715 43.5996 100.82 43.5586 100.91 43.5117C101 43.4609 101.09 43.3887 101.18 43.2949C101.273 43.2012 101.35 43.1172 101.408 43.043C101.471 42.9688 101.541 42.8652 101.619 42.7324C101.697 42.5957 101.758 42.4863 101.801 42.4043C101.848 42.3184 101.908 42.1992 101.982 42.0469C102.072 41.8711 102.141 41.7363 102.188 41.6426C102.238 41.5449 102.309 41.4199 102.398 41.2676C102.492 41.1113 102.574 40.9902 102.645 40.9043C102.719 40.8184 102.812 40.7227 102.926 40.6172C103.039 40.5078 103.15 40.4258 103.26 40.3711C103.373 40.3164 103.504 40.2695 103.652 40.2305C103.801 40.1914 103.959 40.1719 104.127 40.1719C104.549 40.1719 104.932 40.3027 105.275 40.5645C105.619 40.8223 105.881 41.1543 106.061 41.5605C106.24 41.9629 106.33 42.3887 106.33 42.8379C106.33 43.5137 106.143 44.0527 105.768 44.4551C105.393 44.8574 104.881 45.0586 104.232 45.0586C103.822 45.0586 103.432 44.9668 103.061 44.7832C102.689 44.5996 102.375 44.3477 102.117 44.0273C101.879 44.3398 101.609 44.5801 101.309 44.748C101.008 44.916 100.645 45 100.219 45C100.145 45 100.092 44.9531 100.061 44.8594C100.029 44.7617 100.014 44.5879 100.014 44.3379C100.014 44.0879 100.029 43.916 100.061 43.8223C100.092 43.7285 100.145 43.6816 100.219 43.6816ZM102.785 43.0078C103.242 43.5 103.727 43.7461 104.238 43.7461C104.496 43.7461 104.709 43.666 104.877 43.5059C105.045 43.3457 105.129 43.123 105.129 42.8379C105.129 42.4824 105.025 42.168 104.818 41.8945C104.615 41.6172 104.379 41.4785 104.109 41.4785C103.859 41.4785 103.645 41.5742 103.465 41.7656C103.289 41.9531 103.113 42.2539 102.938 42.668L102.785 43.0078ZM108.533 41.332L109.787 40.9102C110.217 42.3203 110.432 43.4258 110.432 44.2266C110.432 45.2109 110.141 46.0371 109.559 46.7051C108.98 47.373 108.041 47.9512 106.74 48.4395L106.172 47.2441C107.238 46.8535 107.994 46.4316 108.439 45.9785C108.885 45.5293 109.107 44.9492 109.107 44.2383C109.107 43.5078 108.916 42.5391 108.533 41.332Z" fill="#251A00"/>
<g opacity="0.06" clip-path="url(#clip0_2342_21383)">
<path d="M14.2741 9.39844L11.8378 12.1503L9.39746 14.9021L11.8458 17.622L14.2941 20.3378" stroke="black" stroke-width="2.39998" stroke-linecap="round" stroke-linejoin="round"/>
<path d="M22.5827 9.39844L20.1464 12.1503L17.7061 14.9021L20.1544 17.622L22.6027 20.3378" stroke="black" stroke-width="2.39998" stroke-linecap="round" stroke-linejoin="round"/>
</g>
<path opacity="0.4" d="M152.666 36.293C152.666 41.453 148.493 45.6263 143.333 45.6263L144.733 43.293" stroke="#251A00" stroke-width="1.5" stroke-linecap="round" stroke-linejoin="round"/>
<path opacity="0.4" d="M123.333 25.6263C123.333 20.4663 127.506 16.293 132.666 16.293L131.266 18.6263" stroke="#251A00" stroke-width="1.5" stroke-linecap="round" stroke-linejoin="round"/>
<path d="M130.827 32.4258H134.574C135.4 32.4258 136.08 33.1725 136.08 33.9325C136.08 34.7591 135.414 35.4391 134.574 35.4391H130.827V32.4258Z" stroke="#251A00" stroke-width="1.5" stroke-miterlimit="10" stroke-linecap="round" stroke-linejoin="round"/>
<path d="M130.827 35.4395H135.12C136.067 35.4395 136.84 36.1061 136.84 36.9461C136.84 37.7728 136.067 38.4528 135.12 38.4528H130.827V35.4395Z" stroke="#251A00" stroke-width="1.5" stroke-miterlimit="10" stroke-linecap="round" stroke-linejoin="round"/>
<path d="M133.228 38.4395V39.9328" stroke="#251A00" stroke-width="1.5" stroke-miterlimit="10" stroke-linecap="round" stroke-linejoin="round"/>
<path d="M133.228 30.9326V32.4259" stroke="#251A00" stroke-width="1.5" stroke-miterlimit="10" stroke-linecap="round" stroke-linejoin="round"/>
<path d="M141.8 35.4396C141.8 39.9863 138.12 43.6663 133.573 43.6663C129.027 43.6663 125.347 39.9863 125.347 35.4396C125.347 30.8929 129.027 27.2129 133.573 27.2129C133.787 27.2129 133.987 27.2263 134.213 27.2396C138.253 27.5463 141.48 30.7729 141.787 34.8129C141.787 35.0129 141.8 35.2129 141.8 35.4396Z" stroke="#251A00" stroke-width="1.5" stroke-miterlimit="10" stroke-linecap="round" stroke-linejoin="round"/>
<path d="M150.667 26.5597C150.667 31.1063 146.987 34.7864 142.441 34.7864H141.787C141.481 30.7464 138.254 27.5196 134.214 27.213V26.5597C134.214 22.013 137.894 18.333 142.441 18.333C146.987 18.333 150.667 22.013 150.667 26.5597Z" stroke="#251A00" stroke-width="1.5" stroke-miterlimit="10" stroke-linecap="round" stroke-linejoin="round"/>
<defs>
<clipPath id="clip0_2342_21383">
<rect width="16" height="13.7352" fill="white" transform="translate(8 8)"/>
</clipPath>
</defs>
</svg>
