<svg width="167" height="62" viewBox="0 0 167 62" fill="none" xmlns="http://www.w3.org/2000/svg">
<rect width="167" height="62" rx="8" fill="#DDE1FF"/>
<g opacity="0.04" clip-path="url(#clip0_2101_20220)">
<path d="M14.2741 9.39844L11.8378 12.1503L9.39746 14.9021L11.8458 17.622L14.2941 20.3378" stroke="black" stroke-width="2.39998" stroke-linecap="round" stroke-linejoin="round"/>
<path d="M22.5827 9.39844L20.1464 12.1503L17.7061 14.9021L20.1544 17.622L22.6027 20.3378" stroke="black" stroke-width="2.39998" stroke-linecap="round" stroke-linejoin="round"/>
</g>
<path opacity="0.4" d="M127.239 36.1726L143.173 20.2393" stroke="#001355" stroke-width="1.5" stroke-miterlimit="10" stroke-linecap="round" stroke-linejoin="round"/>
<path opacity="0.4" d="M136.802 39.3715L138.402 37.7715" stroke="#001355" stroke-width="1.5" stroke-miterlimit="10" stroke-linecap="round" stroke-linejoin="round"/>
<path opacity="0.4" d="M140.391 35.7853L143.577 32.5986" stroke="#001355" stroke-width="1.5" stroke-miterlimit="10" stroke-linecap="round" stroke-linejoin="round"/>
<path d="M126.801 28.6533L135.654 19.8C138.481 16.9733 139.894 16.96 142.694 19.76L149.241 26.3066C152.041 29.1066 152.028 30.52 149.201 33.3466L140.348 42.2C137.521 45.0266 136.108 45.04 133.308 42.24L126.761 35.6933C123.961 32.8933 123.961 31.4933 126.801 28.6533Z" stroke="#001355" stroke-width="1.5" stroke-linecap="round" stroke-linejoin="round"/>
<path d="M124.666 44.3301H151.333" stroke="#001355" stroke-width="1.5" stroke-linecap="round" stroke-linejoin="round"/>
<path d="M62.9707 20.332L64.2246 19.9102C64.6543 21.3203 64.8691 22.4258 64.8691 23.2266C64.8691 24.2109 64.5781 25.0371 63.9961 25.7051C63.418 26.373 62.4785 26.9512 61.1777 27.4395L60.6094 26.2441C61.6758 25.8535 62.4316 25.4316 62.877 24.9785C63.3223 24.5293 63.5449 23.9492 63.5449 23.2383C63.5449 22.5078 63.3535 21.5391 62.9707 20.332ZM70.9336 21.7031C70.9336 22.0391 70.873 22.3418 70.752 22.6113C70.6309 22.877 70.4688 23.0977 70.2656 23.2734C70.0664 23.4492 69.8281 23.5957 69.5508 23.7129C69.2734 23.8301 68.9863 23.9141 68.6895 23.9648C68.3965 24.0156 68.0898 24.041 67.7695 24.041C67.1133 24.041 66.4844 23.957 65.8828 23.7891L66.1816 22.5352C66.6895 22.6641 67.207 22.7285 67.7344 22.7285C68.3086 22.7285 68.7676 22.6387 69.1113 22.459C69.459 22.2754 69.6328 21.9922 69.6328 21.6094C69.6328 21.2617 69.4629 20.8438 69.123 20.3555C68.7871 19.8672 68.2988 19.3418 67.6582 18.7793L68.5195 17.7656C69.293 18.4414 69.8887 19.1016 70.3066 19.7461C70.7246 20.3906 70.9336 21.043 70.9336 21.7031ZM83.9941 19.9746C83.877 20.5879 83.8184 21.0742 83.8184 21.4336C83.8184 21.8398 83.9199 22.1504 84.123 22.3652C84.3262 22.5762 84.6973 22.6816 85.2363 22.6816H85.248V24H85.2363C84.5801 24 84.0527 23.877 83.6543 23.6309C83.2598 23.3848 82.9648 23.0059 82.7695 22.4941C82.3516 23.0332 81.7793 23.4199 81.0527 23.6543C80.3262 23.8848 79.4395 24 78.3926 24C77.666 24 77.0371 23.9336 76.5059 23.8008C75.9785 23.6641 75.5527 23.4648 75.2285 23.2031C74.9043 22.9414 74.666 22.6309 74.5137 22.2715C74.3613 21.9121 74.2852 21.4961 74.2852 21.0234C74.2852 20.4102 74.4023 19.7402 74.6367 19.0137L75.8027 19.3477C75.6152 19.9453 75.5215 20.4551 75.5215 20.877C75.5215 21.5137 75.7559 21.9746 76.2246 22.2598C76.6973 22.541 77.4863 22.6816 78.5918 22.6816C79.3105 22.6816 79.918 22.627 80.4141 22.5176C80.9102 22.4082 81.3203 22.2305 81.6445 21.9844C81.9688 21.7383 82.2168 21.4414 82.3887 21.0938C82.5645 20.7422 82.6953 20.3047 82.7812 19.7812L83.9941 19.9746ZM79.1895 19.1602L80.1445 18.2051L81.0938 19.1602L80.1445 20.1152L79.1895 19.1602ZM77.1445 19.1602L78.0996 18.2051L79.0488 19.1602L78.0996 20.1152L77.1445 19.1602ZM88.0137 18.7148C88.1895 18.7148 88.3906 18.7461 88.6172 18.8086C88.8438 18.8711 89.0371 18.9355 89.1973 19.002C89.3613 19.0645 89.5996 19.166 89.9121 19.3066C90.2559 19.459 90.5234 19.5762 90.7148 19.6582C90.9102 19.7402 91.1816 19.8379 91.5293 19.9512C91.8809 20.0645 92.2188 20.1523 92.543 20.2148V21.3223L90.0469 22.9922C89.5195 23.3438 88.9707 23.5996 88.4004 23.7598C87.834 23.9199 87.2129 24 86.5371 24H85.2422C85.168 24 85.1152 23.9512 85.084 23.8535C85.0527 23.7559 85.0371 23.584 85.0371 23.3379C85.0371 23.0918 85.0527 22.9219 85.084 22.8281C85.1152 22.7305 85.168 22.6816 85.2422 22.6816H86.7715C87.2988 22.6816 87.7715 22.627 88.1895 22.5176C88.6113 22.4043 89.0332 22.2168 89.4551 21.9551L90.9961 20.9824C90.4922 20.8887 89.9082 20.6895 89.2441 20.3848C89.0449 20.2949 88.8984 20.2324 88.8047 20.1973C88.7109 20.1582 88.5938 20.1191 88.4531 20.0801C88.3125 20.041 88.1855 20.0215 88.0723 20.0215C87.5332 20.0215 87.1855 20.3945 87.0293 21.1406L86.9883 21.3457L85.9336 21.1523L85.9746 20.9004C86.1074 20.1934 86.334 19.6523 86.6543 19.2773C86.9785 18.9023 87.4316 18.7148 88.0137 18.7148ZM88.1191 16.2598L89.0742 15.3047L90.0234 16.2598L89.0742 17.2148L88.1191 16.2598ZM95.2793 24H93.9609V15.791H95.2793V24ZM101.684 21.7031C101.684 22.0391 101.623 22.3418 101.502 22.6113C101.381 22.877 101.219 23.0977 101.016 23.2734C100.816 23.4492 100.578 23.5957 100.301 23.7129C100.023 23.8301 99.7363 23.9141 99.4395 23.9648C99.1465 24.0156 98.8398 24.041 98.5195 24.041C97.8633 24.041 97.2344 23.957 96.6328 23.7891L96.9316 22.5352C97.4395 22.6641 97.957 22.7285 98.4844 22.7285C99.0586 22.7285 99.5176 22.6387 99.8613 22.459C100.209 22.2754 100.383 21.9922 100.383 21.6094C100.383 21.2617 100.213 20.8438 99.873 20.3555C99.5371 19.8672 99.0488 19.3418 98.4082 18.7793L99.2695 17.7656C100.043 18.4414 100.639 19.1016 101.057 19.7461C101.475 20.3906 101.684 21.043 101.684 21.7031ZM103.74 20.332L104.994 19.9102L105.352 21.1289C105.473 21.5625 105.6 21.8867 105.732 22.1016C105.869 22.3125 106.041 22.4629 106.248 22.5527C106.455 22.6387 106.742 22.6816 107.109 22.6816H107.115V24H107.109C106.391 24 105.873 23.7988 105.557 23.3965C105.533 24.3613 105.236 25.1582 104.666 25.7871C104.1 26.4199 103.193 26.9707 101.947 27.4395L101.379 26.2441C102.445 25.8496 103.201 25.4258 103.646 24.9727C104.092 24.5195 104.314 23.9355 104.314 23.2207C104.314 22.5137 104.123 21.5508 103.74 20.332ZM106.359 26.0566L107.314 25.1016L108.264 26.0566L107.314 27.0117L106.359 26.0566ZM108.404 26.0566L109.359 25.1016L110.309 26.0566L109.359 27.0117L108.404 26.0566ZM107.385 27.9141L108.34 26.959L109.289 27.9141L108.34 28.8691L107.385 27.9141ZM110.139 19.0898C110.377 20.0742 110.496 20.8711 110.496 21.4805C110.496 22.293 110.264 22.916 109.799 23.3496C109.338 23.7832 108.578 24 107.52 24H107.121C107.047 24 106.994 23.9531 106.963 23.8594C106.932 23.7617 106.916 23.5879 106.916 23.3379C106.916 23.0879 106.932 22.916 106.963 22.8223C106.994 22.7285 107.047 22.6816 107.121 22.6816H107.52C108.145 22.6816 108.582 22.5742 108.832 22.3594C109.086 22.1445 109.213 21.8105 109.213 21.3574C109.213 20.9824 109.107 20.3398 108.896 19.4297L110.139 19.0898ZM36.0645 43.6816V45H34.7402C35.3496 45.3125 35.6543 45.7422 35.6543 46.2891C35.6543 46.6406 35.5527 46.959 35.3496 47.2441C35.1465 47.5332 34.8711 47.7676 34.5234 47.9473C34.1758 48.1309 33.7773 48.2715 33.3281 48.3691C32.8828 48.4707 32.4102 48.5215 31.9102 48.5215C30.6484 48.5215 29.6836 48.2344 29.0156 47.6602C28.3516 47.0898 28.0195 46.2383 28.0195 45.1055C28.0195 44.1211 28.1895 43.0059 28.5293 41.7598L29.7539 42.0938C29.5977 42.7109 29.4824 43.2422 29.4082 43.6875C29.334 44.1289 29.2969 44.5723 29.2969 45.0176C29.2969 45.7871 29.5137 46.3418 29.9473 46.6816C30.3848 47.0254 31.0586 47.1973 31.9688 47.1973C32.2969 47.1973 32.6055 47.1758 32.8945 47.1328C33.1836 47.0898 33.4473 47.0234 33.6855 46.9336C33.9277 46.8477 34.1191 46.7266 34.2598 46.5703C34.4004 46.418 34.4707 46.2402 34.4707 46.0371C34.4707 45.9277 34.4492 45.832 34.4062 45.75C34.3633 45.668 34.2871 45.5938 34.1777 45.5273C34.0723 45.4609 33.9551 45.4043 33.8262 45.3574C33.7012 45.3105 33.5254 45.2656 33.2988 45.2227C33.0723 45.1797 32.8477 45.1426 32.625 45.1113C32.4062 45.0801 32.1211 45.043 31.7695 45L31.957 43.6816H36.0645ZM38.5488 47.0566L39.5039 46.1016L40.4531 47.0566L39.5039 48.0117L38.5488 47.0566ZM38.8418 39.7148C39.0176 39.7148 39.2188 39.7461 39.4453 39.8086C39.6719 39.8711 39.8652 39.9355 40.0254 40.002C40.1895 40.0645 40.4277 40.166 40.7402 40.3066C41.084 40.459 41.3516 40.5762 41.543 40.6582C41.7383 40.7402 42.0098 40.8379 42.3574 40.9512C42.709 41.0645 43.0469 41.1523 43.3711 41.2148V42.3223L40.875 43.9922C40.3477 44.3438 39.7988 44.5996 39.2285 44.7598C38.6621 44.9199 38.041 45 37.3652 45H36.0703C35.9961 45 35.9434 44.9512 35.9121 44.8535C35.8809 44.7559 35.8652 44.584 35.8652 44.3379C35.8652 44.0918 35.8809 43.9219 35.9121 43.8281C35.9434 43.7305 35.9961 43.6816 36.0703 43.6816H37.5996C38.127 43.6816 38.5996 43.627 39.0176 43.5176C39.4395 43.4043 39.8613 43.2168 40.2832 42.9551L41.8242 41.9824C41.3203 41.8887 40.7363 41.6895 40.0723 41.3848C39.873 41.2949 39.7266 41.2324 39.6328 41.1973C39.5391 41.1582 39.4219 41.1191 39.2812 41.0801C39.1406 41.041 39.0137 41.0215 38.9004 41.0215C38.3613 41.0215 38.0137 41.3945 37.8574 42.1406L37.8164 42.3457L36.7617 42.1523L36.8027 41.9004C36.9355 41.1934 37.1621 40.6523 37.4824 40.2773C37.8066 39.9023 38.2598 39.7148 38.8418 39.7148ZM45.4277 41.332L46.6816 40.9102C47.1113 42.3203 47.3262 43.4258 47.3262 44.2266C47.3262 45.2109 47.0352 46.0371 46.4531 46.7051C45.875 47.373 44.9355 47.9512 43.6348 48.4395L43.0664 47.2441C44.1328 46.8535 44.8887 46.4316 45.334 45.9785C45.7793 45.5293 46.002 44.9492 46.002 44.2383C46.002 43.5078 45.8105 42.5391 45.4277 41.332ZM48.7441 36.791H50.0684V42.2988C50.0684 42.8066 50.1738 43.1641 50.3848 43.3711C50.5957 43.5781 50.9805 43.6816 51.5391 43.6816H51.5449V45H51.5391C50.6328 45 49.9395 44.7754 49.459 44.3262C48.9824 43.873 48.7441 43.2051 48.7441 42.3223V36.791ZM54.3105 39.7148C54.4863 39.7148 54.6875 39.7461 54.9141 39.8086C55.1406 39.8711 55.334 39.9355 55.4941 40.002C55.6582 40.0645 55.8965 40.166 56.209 40.3066C56.5527 40.459 56.8203 40.5762 57.0117 40.6582C57.207 40.7402 57.4785 40.8379 57.8262 40.9512C58.1777 41.0645 58.5156 41.1523 58.8398 41.2148V42.3223L56.3438 43.9922C55.8164 44.3438 55.2676 44.5996 54.6973 44.7598C54.1309 44.9199 53.5098 45 52.834 45H51.5391C51.4648 45 51.4121 44.9512 51.3809 44.8535C51.3496 44.7559 51.334 44.584 51.334 44.3379C51.334 44.0918 51.3496 43.9219 51.3809 43.8281C51.4121 43.7305 51.4648 43.6816 51.5391 43.6816H53.0684C53.5957 43.6816 54.0684 43.627 54.4863 43.5176C54.9082 43.4043 55.3301 43.2168 55.752 42.9551L57.293 41.9824C56.7891 41.8887 56.2051 41.6895 55.541 41.3848C55.3418 41.2949 55.1953 41.2324 55.1016 41.1973C55.0078 41.1582 54.8906 41.1191 54.75 41.0801C54.6094 41.041 54.4824 41.0215 54.3691 41.0215C53.8301 41.0215 53.4824 41.3945 53.3262 42.1406L53.2852 42.3457L52.2305 42.1523L52.2715 41.9004C52.4043 41.1934 52.6309 40.6523 52.9512 40.2773C53.2754 39.9023 53.7285 39.7148 54.3105 39.7148ZM54.416 37.2598L55.3711 36.3047L56.3203 37.2598L55.3711 38.2148L54.416 37.2598ZM69.9785 40.3066L69.5801 41.4961C69.2129 41.3672 68.834 41.3027 68.4434 41.3027C67.9043 41.3027 67.4609 41.4473 67.1133 41.7363C66.7656 42.0215 66.5918 42.4004 66.5918 42.873C66.5918 43.1699 66.7031 43.377 66.9258 43.4941C67.1484 43.6113 67.5527 43.6914 68.1387 43.7344C68.416 43.7539 68.6523 43.7812 68.8477 43.8164C69.0469 43.8477 69.2402 43.9023 69.4277 43.9805C69.6191 44.0547 69.7715 44.1504 69.8848 44.2676C70.002 44.3809 70.0938 44.5312 70.1602 44.7188C70.2305 44.9062 70.2656 45.127 70.2656 45.3809C70.2656 45.8613 70.1562 46.2852 69.9375 46.6523C69.7188 47.0234 69.416 47.3203 69.0293 47.543C68.6426 47.7695 68.1992 47.9395 67.6992 48.0527C67.1992 48.166 66.6523 48.2227 66.0586 48.2227C64.7695 48.2227 63.8125 47.9395 63.1875 47.373C62.5625 46.8105 62.25 45.9238 62.25 44.7129C62.25 43.9902 62.3359 43.2207 62.5078 42.4043L63.7441 42.6387C63.5918 43.502 63.5156 44.207 63.5156 44.7539C63.5156 45.5469 63.7129 46.1016 64.1074 46.418C64.502 46.7383 65.1543 46.8984 66.0645 46.8984C66.5566 46.8984 67.0215 46.8516 67.459 46.7578C67.8965 46.668 68.2617 46.5234 68.5547 46.3242C68.8516 46.1289 69 45.9004 69 45.6387C69 45.4316 68.9219 45.2852 68.7656 45.1992C68.6094 45.1172 68.3086 45.0586 67.8633 45.0234C66.957 44.957 66.3047 44.7812 65.9062 44.4961C65.5117 44.2109 65.3145 43.7324 65.3145 43.0605C65.3145 42.4863 65.4395 41.9668 65.6895 41.502C65.9395 41.0371 66.2969 40.6699 66.7617 40.4004C67.2266 40.1309 67.7559 39.9961 68.3496 39.9961C68.9199 39.9961 69.4629 40.0996 69.9785 40.3066ZM71.6191 36.791H72.9434V42.2988C72.9434 42.8066 73.0488 43.1641 73.2598 43.3711C73.4707 43.5781 73.8555 43.6816 74.4141 43.6816H74.4199V45H74.4141C73.5078 45 72.8145 44.7754 72.334 44.3262C71.8574 43.873 71.6191 43.2051 71.6191 42.3223V36.791ZM74.4141 43.6816H74.7891C75.2227 43.6816 75.6211 43.625 75.9844 43.5117C75.3711 42.9766 75.0645 42.4336 75.0645 41.8828C75.0645 41.5039 75.1621 41.1426 75.3574 40.7988C75.5527 40.4512 75.8164 40.1836 76.1484 39.9961L75.3457 39.6504L75.8613 38.4375L79.1074 39.8262C80.1738 40.2871 80.9395 40.7539 81.4043 41.2266C81.8691 41.6992 82.1016 42.2715 82.1016 42.9434C82.1016 43.5684 81.8887 44.0781 81.4629 44.4727C81.041 44.8672 80.4648 45.0645 79.7344 45.0645C78.9648 45.0645 78.1465 44.8594 77.2793 44.4492C76.5684 44.8164 75.7695 45 74.8828 45H74.4141C74.3438 45 74.293 44.9512 74.2617 44.8535C74.2266 44.7559 74.209 44.584 74.209 44.3379C74.209 44.0918 74.2266 43.9219 74.2617 43.8281C74.293 43.7305 74.3438 43.6816 74.4141 43.6816ZM77.3027 43.2129C77.6309 43.0527 77.8828 42.8535 78.0586 42.6152C78.2344 42.377 78.3223 42.1152 78.3223 41.8301C78.3223 41.4785 78.2422 41.1973 78.082 40.9863C77.9219 40.7715 77.6855 40.6641 77.373 40.6641C77.0645 40.6641 76.8066 40.7871 76.5996 41.0332C76.3965 41.2793 76.2949 41.5703 76.2949 41.9062C76.2949 42.4141 76.6309 42.8496 77.3027 43.2129ZM78.4863 43.5059C78.9316 43.6582 79.3555 43.7344 79.7578 43.7344C80.4648 43.7344 80.8184 43.4473 80.8184 42.873C80.8184 42.5645 80.6973 42.2891 80.4551 42.0469C80.2129 41.8047 79.8086 41.5605 79.2422 41.3145C79.3867 41.7559 79.3867 42.168 79.2422 42.5508C79.1016 42.9336 78.8496 43.252 78.4863 43.5059ZM92.8184 40.9746C92.7012 41.5879 92.6426 42.0742 92.6426 42.4336C92.6426 42.8398 92.7441 43.1504 92.9473 43.3652C93.1504 43.5762 93.5215 43.6816 94.0605 43.6816H94.0723V45H94.0605C93.4043 45 92.877 44.877 92.4785 44.6309C92.084 44.3848 91.7891 44.0059 91.5938 43.4941C91.1758 44.0332 90.6035 44.4199 89.877 44.6543C89.1504 44.8848 88.2637 45 87.2168 45C86.4902 45 85.8613 44.9336 85.3301 44.8008C84.8027 44.6641 84.377 44.4648 84.0527 44.2031C83.7285 43.9414 83.4902 43.6309 83.3379 43.2715C83.1855 42.9121 83.1094 42.4961 83.1094 42.0234C83.1094 41.4102 83.2266 40.7402 83.4609 40.0137L84.627 40.3477C84.4395 40.9453 84.3457 41.4551 84.3457 41.877C84.3457 42.5137 84.5801 42.9746 85.0488 43.2598C85.5215 43.541 86.3105 43.6816 87.416 43.6816C88.1348 43.6816 88.7422 43.627 89.2383 43.5176C89.7344 43.4082 90.1445 43.2305 90.4688 42.9844C90.793 42.7383 91.041 42.4414 91.2129 42.0938C91.3887 41.7422 91.5195 41.3047 91.6055 40.7812L92.8184 40.9746ZM88.0137 40.1602L88.9688 39.2051L89.918 40.1602L88.9688 41.1152L88.0137 40.1602ZM85.9688 40.1602L86.9238 39.2051L87.873 40.1602L86.9238 41.1152L85.9688 40.1602ZM96.6855 40.0898C96.9238 41.0742 97.043 41.8711 97.043 42.4805C97.043 44.1602 96.1406 45 94.3359 45H94.0664C93.9922 45 93.9395 44.9531 93.9082 44.8594C93.877 44.7617 93.8613 44.5879 93.8613 44.3379C93.8613 44.0879 93.877 43.916 93.9082 43.8223C93.9395 43.7285 93.9922 43.6816 94.0664 43.6816H94.3359C94.8359 43.6816 95.1973 43.5723 95.4199 43.3535C95.6465 43.1348 95.7598 42.8027 95.7598 42.3574C95.7598 41.9824 95.6543 41.3398 95.4434 40.4297L96.6855 40.0898ZM94.8809 47.0566L95.8359 46.1016L96.7852 47.0566L95.8359 48.0117L94.8809 47.0566ZM92.8359 47.0566L93.791 46.1016L94.7402 47.0566L93.791 48.0117L92.8359 47.0566ZM98.3965 36.791H99.7207V42.2988C99.7207 42.8066 99.8262 43.1641 100.037 43.3711C100.248 43.5781 100.633 43.6816 101.191 43.6816H101.197V45H101.191C100.285 45 99.5918 44.7754 99.1113 44.3262C98.6348 43.873 98.3965 43.2051 98.3965 42.3223V36.791ZM105.229 43.6816C105.529 43.6895 105.76 43.6055 105.92 43.4297C106.08 43.25 106.178 42.9629 106.213 42.5684L106.312 41.3555L107.479 41.4434L107.402 42.5391C107.34 43.3008 107.646 43.6816 108.322 43.6816C108.9 43.6816 109.189 43.334 109.189 42.6387C109.189 42.2207 109.125 41.6582 108.996 40.9512L110.279 40.6406C110.42 41.293 110.49 41.9531 110.49 42.6211C110.49 44.207 109.836 45 108.527 45C108.078 45 107.709 44.9082 107.42 44.7246C107.135 44.541 106.939 44.2773 106.834 43.9336C106.6 44.6445 106.053 45 105.193 45C104.744 45 104.381 44.9023 104.104 44.707C103.826 44.5078 103.643 44.2168 103.553 43.834C103.408 44.1895 103.146 44.4727 102.768 44.6836C102.389 44.8945 101.953 45 101.461 45H101.191C101.055 45 100.986 44.7754 100.986 44.3262C100.986 43.8965 101.055 43.6816 101.191 43.6816H101.461C101.969 43.6816 102.346 43.5645 102.592 43.3301C102.842 43.0918 102.992 42.6992 103.043 42.1523L103.143 41.0625L104.467 41.1621L104.35 42.4395C104.268 43.248 104.561 43.6621 105.229 43.6816Z" fill="#001355"/>
<defs>
<clipPath id="clip0_2101_20220">
<rect width="16" height="13.7352" fill="white" transform="translate(8 8)"/>
</clipPath>
</defs>
</svg>
