<svg width="167" height="62" viewBox="0 0 167 62" fill="none" xmlns="http://www.w3.org/2000/svg">
<rect width="167" height="62" rx="8" fill="#CCE8E4"/>
<g opacity="0.05" clip-path="url(#clip0_2691_22090)">
<path d="M14.2741 9.39844L11.8378 12.1503L9.39746 14.9021L11.8458 17.622L14.2941 20.3378" stroke="black" stroke-width="2.39998" stroke-linecap="round" stroke-linejoin="round"/>
<path d="M22.5827 9.39844L20.1464 12.1503L17.7061 14.9021L20.1544 17.622L22.6027 20.3378" stroke="black" stroke-width="2.39998" stroke-linecap="round" stroke-linejoin="round"/>
</g>
<path d="M69.873 21.709L70.8281 20.7539L71.7773 21.709L70.8281 22.6641L69.873 21.709ZM72.9258 20.4551L74.168 19.8691C74.4492 20.5566 74.6543 21.1562 74.7832 21.668C74.9121 22.1797 74.9766 22.7363 74.9766 23.3379C74.9766 24.1309 74.7988 24.8066 74.4434 25.3652C74.0918 25.9277 73.6094 26.3457 72.9961 26.6191C72.3828 26.8926 71.668 27.0293 70.8516 27.0293C69.4961 27.0293 68.4746 26.7148 67.7871 26.0859C67.1035 25.457 66.7617 24.5449 66.7617 23.3496C66.7617 22.4434 66.9453 21.3965 67.3125 20.209L68.5254 20.5957C68.2168 21.752 68.0625 22.6309 68.0625 23.2324C68.0625 24.0449 68.2871 24.6602 68.7363 25.0781C69.1895 25.4961 69.8984 25.7051 70.8633 25.7051C71.7969 25.7051 72.4961 25.502 72.9609 25.0957C73.4258 24.6895 73.6582 24.1172 73.6582 23.3789C73.6582 22.6172 73.4141 21.6426 72.9258 20.4551ZM80.9766 21.7031C80.9766 22.0391 80.916 22.3418 80.7949 22.6113C80.6738 22.877 80.5117 23.0977 80.3086 23.2734C80.1094 23.4492 79.8711 23.5957 79.5938 23.7129C79.3164 23.8301 79.0293 23.9141 78.7324 23.9648C78.4395 24.0156 78.1328 24.041 77.8125 24.041C77.1562 24.041 76.5273 23.957 75.9258 23.7891L76.2246 22.5352C76.7324 22.6641 77.25 22.7285 77.7773 22.7285C78.3516 22.7285 78.8105 22.6387 79.1543 22.459C79.502 22.2754 79.6758 21.9922 79.6758 21.6094C79.6758 21.2617 79.5059 20.8438 79.166 20.3555C78.8301 19.8672 78.3418 19.3418 77.7012 18.7793L78.5625 17.7656C79.3359 18.4414 79.9316 19.1016 80.3496 19.7461C80.7676 20.3906 80.9766 21.043 80.9766 21.7031ZM83.0332 20.332L84.2871 19.9102L84.6445 21.1289C84.7656 21.5625 84.8926 21.8867 85.0254 22.1016C85.1621 22.3125 85.334 22.4629 85.541 22.5527C85.748 22.6387 86.0352 22.6816 86.4023 22.6816H86.4082V24H86.4023C85.6836 24 85.166 23.7988 84.8496 23.3965C84.8262 24.3613 84.5293 25.1582 83.959 25.7871C83.3926 26.4199 82.4863 26.9707 81.2402 27.4395L80.6719 26.2441C81.7383 25.8496 82.4941 25.4258 82.9395 24.9727C83.3848 24.5195 83.6074 23.9355 83.6074 23.2207C83.6074 22.5137 83.416 21.5508 83.0332 20.332ZM91.7109 15.0938L91.9922 16.3828C90.5469 16.7969 89.252 17.2988 88.1074 17.8887V17.9473C89.0176 18.6543 89.6855 19.3066 90.1113 19.9043C90.5371 20.498 90.75 21.084 90.75 21.6621C90.75 22.4004 90.4375 22.9746 89.8125 23.3848C89.1875 23.7949 88.3105 24 87.1816 24H86.4141C86.2773 24 86.209 23.7793 86.209 23.3379C86.209 23.1035 86.2246 22.9355 86.2559 22.834C86.2871 22.7324 86.3398 22.6816 86.4141 22.6816H87.1582C88.6777 22.6816 89.4375 22.3125 89.4375 21.5742C89.4375 21.1875 89.207 20.7383 88.7461 20.2266C88.2852 19.7148 87.5723 19.1133 86.6074 18.4219V17.2734C88.2676 16.2773 89.9688 15.5508 91.7109 15.0938ZM98.3203 17.8535L99.8906 21.5156C100.082 21.957 100.297 22.2617 100.535 22.4297C100.773 22.5977 101.096 22.6816 101.502 22.6816H101.584V24H101.484C100.422 24 99.6699 23.6055 99.2285 22.8164C98.9941 23.2227 98.6582 23.5312 98.2207 23.7422C97.7832 23.9531 97.3047 24.0586 96.7852 24.0586C96.3594 24.0586 95.9414 23.9863 95.5312 23.8418C95.125 23.6973 94.7578 23.4844 94.4297 23.2031L95.0273 22.1543C95.543 22.541 96.1211 22.7344 96.7617 22.7344C97.5547 22.7344 98.166 22.4414 98.5957 21.8555L97.0957 18.4395L98.3203 17.8535ZM104.619 16.2012L105.574 15.2461L106.523 16.2012L105.574 17.1562L104.619 16.2012ZM102.574 16.2012L103.529 15.2461L104.479 16.2012L103.529 17.1562L102.574 16.2012ZM102.234 20.6543C102.234 19.9512 102.453 19.3809 102.891 18.9434C103.332 18.502 103.887 18.2812 104.555 18.2812C105.215 18.2812 105.766 18.502 106.207 18.9434C106.652 19.3809 106.875 19.9453 106.875 20.6367C106.875 21.4414 106.521 22.0781 105.814 22.5469C106.154 22.6367 106.518 22.6816 106.904 22.6816H107.52V24H106.752C105.943 24 105.203 23.8496 104.531 23.5488C103.859 23.8496 103.115 24 102.299 24H101.59C101.516 24 101.463 23.9531 101.432 23.8594C101.4 23.7617 101.385 23.5879 101.385 23.3379C101.385 23.0879 101.4 22.916 101.432 22.8223C101.463 22.7285 101.516 22.6816 101.59 22.6816H102.17C102.553 22.6816 102.928 22.6367 103.295 22.5469C102.588 22.082 102.234 21.4512 102.234 20.6543ZM104.549 22.2246C105.217 21.8926 105.551 21.3867 105.551 20.707C105.551 20.3828 105.461 20.1152 105.281 19.9043C105.102 19.6934 104.859 19.5879 104.555 19.5879C104.242 19.5879 103.996 19.6934 103.816 19.9043C103.641 20.1113 103.553 20.3789 103.553 20.707C103.553 21.043 103.641 21.3398 103.816 21.5977C103.996 21.8555 104.24 22.0645 104.549 22.2246ZM110.139 19.0898C110.377 20.0742 110.496 20.8711 110.496 21.4805C110.496 23.1602 109.594 24 107.789 24H107.52C107.445 24 107.393 23.9531 107.361 23.8594C107.33 23.7617 107.314 23.5879 107.314 23.3379C107.314 23.0879 107.33 22.916 107.361 22.8223C107.393 22.7285 107.445 22.6816 107.52 22.6816H107.789C108.289 22.6816 108.65 22.5723 108.873 22.3535C109.1 22.1348 109.213 21.8027 109.213 21.3574C109.213 20.9824 109.107 20.3398 108.896 19.4297L110.139 19.0898ZM107.959 17.1621L108.914 16.207L109.863 17.1621L108.914 18.1172L107.959 17.1621ZM47.0684 40.3066L46.6699 41.4961C46.3027 41.3672 45.9238 41.3027 45.5332 41.3027C44.9941 41.3027 44.5508 41.4473 44.2031 41.7363C43.8555 42.0215 43.6816 42.4004 43.6816 42.873C43.6816 43.1699 43.793 43.377 44.0156 43.4941C44.2383 43.6113 44.6426 43.6914 45.2285 43.7344C45.5059 43.7539 45.7422 43.7812 45.9375 43.8164C46.1367 43.8477 46.3301 43.9023 46.5176 43.9805C46.709 44.0547 46.8613 44.1504 46.9746 44.2676C47.0918 44.3809 47.1836 44.5312 47.25 44.7188C47.3203 44.9062 47.3555 45.127 47.3555 45.3809C47.3555 45.8613 47.2461 46.2852 47.0273 46.6523C46.8086 47.0234 46.5059 47.3203 46.1191 47.543C45.7324 47.7695 45.2891 47.9395 44.7891 48.0527C44.2891 48.166 43.7422 48.2227 43.1484 48.2227C41.8594 48.2227 40.9023 47.9395 40.2773 47.373C39.6523 46.8105 39.3398 45.9238 39.3398 44.7129C39.3398 43.9902 39.4258 43.2207 39.5977 42.4043L40.834 42.6387C40.6816 43.502 40.6055 44.207 40.6055 44.7539C40.6055 45.5469 40.8027 46.1016 41.1973 46.418C41.5918 46.7383 42.2441 46.8984 43.1543 46.8984C43.6465 46.8984 44.1113 46.8516 44.5488 46.7578C44.9863 46.668 45.3516 46.5234 45.6445 46.3242C45.9414 46.1289 46.0898 45.9004 46.0898 45.6387C46.0898 45.4316 46.0117 45.2852 45.8555 45.1992C45.6992 45.1172 45.3984 45.0586 44.9531 45.0234C44.0469 44.957 43.3945 44.7812 42.9961 44.4961C42.6016 44.2109 42.4043 43.7324 42.4043 43.0605C42.4043 42.4863 42.5293 41.9668 42.7793 41.502C43.0293 41.0371 43.3867 40.6699 43.8516 40.4004C44.3164 40.1309 44.8457 39.9961 45.4395 39.9961C46.0098 39.9961 46.5527 40.0996 47.0684 40.3066ZM49.998 41.332L51.252 40.9102C51.6816 42.3203 51.8965 43.4258 51.8965 44.2266C51.8965 45.2109 51.6055 46.0371 51.0234 46.7051C50.4453 47.373 49.5059 47.9512 48.2051 48.4395L47.6367 47.2441C48.7031 46.8535 49.459 46.4316 49.9043 45.9785C50.3496 45.5293 50.5723 44.9492 50.5723 44.2383C50.5723 43.5078 50.3809 42.5391 49.998 41.332ZM49.6289 38.5664L50.584 37.6113L51.5332 38.5664L50.584 39.5215L49.6289 38.5664ZM54.6035 41.332L55.8574 40.9102C56.2871 42.3203 56.502 43.4258 56.502 44.2266C56.502 45.2109 56.2109 46.0371 55.6289 46.7051C55.0508 47.373 54.1113 47.9512 52.8105 48.4395L52.2422 47.2441C53.3086 46.8535 54.0645 46.4316 54.5098 45.9785C54.9551 45.5293 55.1777 44.9492 55.1777 44.2383C55.1777 43.5078 54.9863 42.5391 54.6035 41.332ZM59.3027 45H57.9844V36.791H59.3027V45ZM70.8457 40.3066L70.4473 41.4961C70.0801 41.3672 69.7012 41.3027 69.3105 41.3027C68.7715 41.3027 68.3281 41.4473 67.9805 41.7363C67.6328 42.0215 67.459 42.4004 67.459 42.873C67.459 43.1699 67.5703 43.377 67.793 43.4941C68.0156 43.6113 68.4199 43.6914 69.0059 43.7344C69.2832 43.7539 69.5195 43.7812 69.7148 43.8164C69.9141 43.8477 70.1074 43.9023 70.2949 43.9805C70.4863 44.0547 70.6387 44.1504 70.752 44.2676C70.8691 44.3809 70.9609 44.5312 71.0273 44.7188C71.0977 44.9062 71.1328 45.127 71.1328 45.3809C71.1328 45.8613 71.0234 46.2852 70.8047 46.6523C70.5859 47.0234 70.2832 47.3203 69.8965 47.543C69.5098 47.7695 69.0664 47.9395 68.5664 48.0527C68.0664 48.166 67.5195 48.2227 66.9258 48.2227C65.6367 48.2227 64.6797 47.9395 64.0547 47.373C63.4297 46.8105 63.1172 45.9238 63.1172 44.7129C63.1172 43.9902 63.2031 43.2207 63.375 42.4043L64.6113 42.6387C64.459 43.502 64.3828 44.207 64.3828 44.7539C64.3828 45.5469 64.5801 46.1016 64.9746 46.418C65.3691 46.7383 66.0215 46.8984 66.9316 46.8984C67.4238 46.8984 67.8887 46.8516 68.3262 46.7578C68.7637 46.668 69.1289 46.5234 69.4219 46.3242C69.7188 46.1289 69.8672 45.9004 69.8672 45.6387C69.8672 45.4316 69.7891 45.2852 69.6328 45.1992C69.4766 45.1172 69.1758 45.0586 68.7305 45.0234C67.8242 44.957 67.1719 44.7812 66.7734 44.4961C66.3789 44.2109 66.1816 43.7324 66.1816 43.0605C66.1816 42.4863 66.3066 41.9668 66.5566 41.502C66.8066 41.0371 67.1641 40.6699 67.6289 40.4004C68.0938 40.1309 68.623 39.9961 69.2168 39.9961C69.7871 39.9961 70.3301 40.0996 70.8457 40.3066ZM72.4863 36.791H73.8105V42.2988C73.8105 42.8066 73.916 43.1641 74.127 43.3711C74.3379 43.5781 74.7227 43.6816 75.2812 43.6816H75.2871V45H75.2812C74.375 45 73.6816 44.7754 73.2012 44.3262C72.7246 43.873 72.4863 43.2051 72.4863 42.3223V36.791ZM75.2812 43.6816H75.6562C76.0898 43.6816 76.4883 43.625 76.8516 43.5117C76.2383 42.9766 75.9316 42.4336 75.9316 41.8828C75.9316 41.5039 76.0293 41.1426 76.2246 40.7988C76.4199 40.4512 76.6836 40.1836 77.0156 39.9961L76.2129 39.6504L76.7285 38.4375L79.9746 39.8262C81.041 40.2871 81.8066 40.7539 82.2715 41.2266C82.7363 41.6992 82.9688 42.2715 82.9688 42.9434C82.9688 43.5684 82.7559 44.0781 82.3301 44.4727C81.9082 44.8672 81.332 45.0645 80.6016 45.0645C79.832 45.0645 79.0137 44.8594 78.1465 44.4492C77.4355 44.8164 76.6367 45 75.75 45H75.2812C75.2109 45 75.1602 44.9512 75.1289 44.8535C75.0938 44.7559 75.0762 44.584 75.0762 44.3379C75.0762 44.0918 75.0938 43.9219 75.1289 43.8281C75.1602 43.7305 75.2109 43.6816 75.2812 43.6816ZM78.1699 43.2129C78.498 43.0527 78.75 42.8535 78.9258 42.6152C79.1016 42.377 79.1895 42.1152 79.1895 41.8301C79.1895 41.4785 79.1094 41.1973 78.9492 40.9863C78.7891 40.7715 78.5527 40.6641 78.2402 40.6641C77.9316 40.6641 77.6738 40.7871 77.4668 41.0332C77.2637 41.2793 77.1621 41.5703 77.1621 41.9062C77.1621 42.4141 77.498 42.8496 78.1699 43.2129ZM79.3535 43.5059C79.7988 43.6582 80.2227 43.7344 80.625 43.7344C81.332 43.7344 81.6855 43.4473 81.6855 42.873C81.6855 42.5645 81.5645 42.2891 81.3223 42.0469C81.0801 41.8047 80.6758 41.5605 80.1094 41.3145C80.2539 41.7559 80.2539 42.168 80.1094 42.5508C79.9688 42.9336 79.7168 43.252 79.3535 43.5059ZM87.8086 38.8535L89.3789 42.5156C89.5703 42.957 89.7852 43.2617 90.0234 43.4297C90.2617 43.5977 90.584 43.6816 90.9902 43.6816H91.0723V45H90.9727C89.9102 45 89.1582 44.6055 88.7168 43.8164C88.4824 44.2227 88.1465 44.5312 87.709 44.7422C87.2715 44.9531 86.793 45.0586 86.2734 45.0586C85.8477 45.0586 85.4297 44.9863 85.0195 44.8418C84.6133 44.6973 84.2461 44.4844 83.918 44.2031L84.5156 43.1543C85.0312 43.541 85.6094 43.7344 86.25 43.7344C87.043 43.7344 87.6543 43.4414 88.084 42.8555L86.584 39.4395L87.8086 38.8535ZM91.0781 43.6816C91.2109 43.6816 91.3359 43.666 91.4531 43.6348C91.5742 43.5996 91.6797 43.5586 91.7695 43.5117C91.8594 43.4609 91.9492 43.3887 92.0391 43.2949C92.1328 43.2012 92.209 43.1172 92.2676 43.043C92.3301 42.9688 92.4004 42.8652 92.4785 42.7324C92.5566 42.5957 92.6172 42.4863 92.6602 42.4043C92.707 42.3184 92.7676 42.1992 92.8418 42.0469C92.9316 41.8711 93 41.7363 93.0469 41.6426C93.0977 41.5449 93.168 41.4199 93.2578 41.2676C93.3516 41.1113 93.4336 40.9902 93.5039 40.9043C93.5781 40.8184 93.6719 40.7227 93.7852 40.6172C93.8984 40.5078 94.0098 40.4258 94.1191 40.3711C94.2324 40.3164 94.3633 40.2695 94.5117 40.2305C94.6602 40.1914 94.8184 40.1719 94.9863 40.1719C95.4082 40.1719 95.791 40.3027 96.1348 40.5645C96.4785 40.8223 96.7402 41.1543 96.9199 41.5605C97.0996 41.9629 97.1895 42.3887 97.1895 42.8379C97.1895 43.5137 97.002 44.0527 96.627 44.4551C96.252 44.8574 95.7402 45.0586 95.0918 45.0586C94.6816 45.0586 94.291 44.9668 93.9199 44.7832C93.5488 44.5996 93.2344 44.3477 92.9766 44.0273C92.7383 44.3398 92.4688 44.5801 92.168 44.748C91.8672 44.916 91.5039 45 91.0781 45C91.0039 45 90.9512 44.9531 90.9199 44.8594C90.8887 44.7617 90.873 44.5879 90.873 44.3379C90.873 44.0879 90.8887 43.916 90.9199 43.8223C90.9512 43.7285 91.0039 43.6816 91.0781 43.6816ZM93.6445 43.0078C94.1016 43.5 94.5859 43.7461 95.0977 43.7461C95.3555 43.7461 95.5684 43.666 95.7363 43.5059C95.9043 43.3457 95.9883 43.123 95.9883 42.8379C95.9883 42.4824 95.8848 42.168 95.6777 41.8945C95.4746 41.6172 95.2383 41.4785 94.9688 41.4785C94.7188 41.4785 94.5039 41.5742 94.3242 41.7656C94.1484 41.9531 93.9727 42.2539 93.7969 42.668L93.6445 43.0078ZM101.15 34.2832L101.707 34.5703C101.516 34.9727 101.311 35.2637 101.092 35.4434C100.873 35.6191 100.611 35.707 100.307 35.707C100.021 35.707 99.668 35.6113 99.2461 35.4199C98.957 35.2793 98.7266 35.209 98.5547 35.209C98.457 35.209 98.3672 35.2285 98.2852 35.2676C98.2031 35.3027 98.1211 35.3613 98.0391 35.4434C97.9609 35.5254 97.8965 35.6016 97.8457 35.6719C97.7949 35.7422 97.7266 35.8418 97.6406 35.9707L97.125 35.6543C97.5469 34.8535 98.0469 34.4531 98.625 34.4531C98.832 34.4531 99.127 34.5371 99.5098 34.7051C99.8809 34.8691 100.164 34.9512 100.359 34.9512C100.512 34.9512 100.648 34.9004 100.77 34.7988C100.895 34.6973 101.021 34.5254 101.15 34.2832ZM100.072 36.791V45H98.7539V36.791H100.072ZM102.533 41.332L103.787 40.9102C104.217 42.3203 104.432 43.4258 104.432 44.2266C104.432 45.2109 104.141 46.0371 103.559 46.7051C102.98 47.373 102.041 47.9512 100.74 48.4395L100.172 47.2441C101.238 46.8535 101.994 46.4316 102.439 45.9785C102.885 45.5293 103.107 44.9492 103.107 44.2383C103.107 43.5078 102.916 42.5391 102.533 41.332ZM110.496 42.7031C110.496 43.0391 110.436 43.3418 110.314 43.6113C110.193 43.877 110.031 44.0977 109.828 44.2734C109.629 44.4492 109.391 44.5957 109.113 44.7129C108.836 44.8301 108.549 44.9141 108.252 44.9648C107.959 45.0156 107.652 45.041 107.332 45.041C106.676 45.041 106.047 44.957 105.445 44.7891L105.744 43.5352C106.252 43.6641 106.77 43.7285 107.297 43.7285C107.871 43.7285 108.33 43.6387 108.674 43.459C109.021 43.2754 109.195 42.9922 109.195 42.6094C109.195 42.2617 109.025 41.8438 108.686 41.3555C108.35 40.8672 107.861 40.3418 107.221 39.7793L108.082 38.7656C108.855 39.4414 109.451 40.1016 109.869 40.7461C110.287 41.3906 110.496 42.043 110.496 42.7031Z" fill="#051F1D"/>
<g opacity="0.4">
<path d="M134.668 33.3336C134.668 34.627 135.668 35.667 136.895 35.667H139.401C140.468 35.667 141.335 34.7603 141.335 33.627C141.335 32.4136 140.801 31.9736 140.015 31.6936L136.001 30.2936C135.215 30.0136 134.681 29.587 134.681 28.3603C134.681 27.2403 135.548 26.3203 136.615 26.3203H139.121C140.348 26.3203 141.348 27.3603 141.348 28.6536" stroke="#051F1D" stroke-width="1.5" stroke-linecap="round" stroke-linejoin="round"/>
<path d="M138.001 25V37" stroke="#051F1D" stroke-width="1.5" stroke-linecap="round" stroke-linejoin="round"/>
</g>
<path d="M151.333 30.9993C151.333 38.3593 145.359 44.3327 137.999 44.3327C130.639 44.3327 124.666 38.3593 124.666 30.9993C124.666 23.6393 130.639 17.666 137.999 17.666" stroke="#051F1D" stroke-width="1.5" stroke-linecap="round" stroke-linejoin="round"/>
<path d="M144.667 19V24.3333H150" stroke="#051F1D" stroke-width="1.5" stroke-linecap="round" stroke-linejoin="round"/>
<path d="M151.334 17.666L144.667 24.3327" stroke="#051F1D" stroke-width="1.5" stroke-linecap="round" stroke-linejoin="round"/>
<defs>
<clipPath id="clip0_2691_22090">
<rect width="16" height="13.7352" fill="white" transform="translate(8 8)"/>
</clipPath>
</defs>
</svg>
