<svg width="166" height="62" viewBox="0 0 166 62" fill="none" xmlns="http://www.w3.org/2000/svg">
<rect width="166" height="62" rx="8" fill="#FFDBC8"/>
<g opacity="0.04" clip-path="url(#clip0_2691_22089)">
<path d="M14.2741 9.39844L11.8378 12.1503L9.39746 14.9021L11.8458 17.622L14.2941 20.3378" stroke="black" stroke-width="2.39998" stroke-linecap="round" stroke-linejoin="round"/>
<path d="M22.5827 9.39844L20.1464 12.1503L17.7061 14.9021L20.1544 17.622L22.6027 20.3378" stroke="black" stroke-width="2.39998" stroke-linecap="round" stroke-linejoin="round"/>
</g>
<path d="M132.2 23.667H141.8C146.333 23.667 146.787 25.787 147.093 28.3737L148.293 38.3737C148.68 41.6537 147.667 44.3337 143 44.3337H131.013C126.333 44.3337 125.32 41.6537 125.72 38.3737L126.92 28.3737C127.213 25.787 127.667 23.667 132.2 23.667Z" stroke="#321300" stroke-width="1.5" stroke-linecap="round" stroke-linejoin="round"/>
<path opacity="0.4" d="M131.667 25.666V20.9993C131.667 18.9993 133 17.666 135 17.666H139C141 17.666 142.334 18.9993 142.334 20.9993V25.666" stroke="#321300" stroke-width="1.5" stroke-linecap="round" stroke-linejoin="round"/>
<path opacity="0.4" d="M148.214 37.707H131.667" stroke="#321300" stroke-width="1.5" stroke-linecap="round" stroke-linejoin="round"/>
<path d="M67.3672 16.1309L68.5977 15.6621C69.3867 17.5254 69.8242 19.418 69.9102 21.3398L68.627 21.5039C68.5371 19.6953 68.1172 17.9043 67.3672 16.1309ZM72.2012 15.791H73.5254V19.3652C73.5254 19.998 73.4883 20.5469 73.4141 21.0117C73.3398 21.4727 73.2148 21.8789 73.0391 22.2305C72.8672 22.5781 72.6523 22.8633 72.3945 23.0859C72.1406 23.3086 71.8145 23.4902 71.416 23.6309C71.0176 23.7676 70.5762 23.8633 70.0918 23.918C69.6113 23.9727 69.0371 24 68.3691 24H67.168V22.6816H68.4512C68.8418 22.6816 69.1719 22.6758 69.4414 22.6641C69.7109 22.6523 69.9785 22.6289 70.2441 22.5938C70.5137 22.5547 70.7324 22.5039 70.9004 22.4414C71.0723 22.375 71.2383 22.2871 71.3984 22.1777C71.5586 22.0645 71.6836 21.9336 71.7734 21.7852C71.8633 21.6328 71.9434 21.4473 72.0137 21.2285C72.084 21.0098 72.1328 20.7637 72.1602 20.4902C72.1875 20.2168 72.2012 19.8984 72.2012 19.5352V15.791ZM75.2246 15.791H76.5488V21.2988C76.5488 21.8066 76.6543 22.1641 76.8652 22.3711C77.0762 22.5781 77.4609 22.6816 78.0195 22.6816H78.0254V24H78.0195C77.1133 24 76.4199 23.7754 75.9395 23.3262C75.4629 22.873 75.2246 22.2051 75.2246 21.3223V15.791ZM83.3164 15.0938L83.5977 16.3828C82.1523 16.7969 80.8574 17.2988 79.7129 17.8887V17.9473C80.623 18.6543 81.291 19.3066 81.7168 19.9043C82.1426 20.498 82.3555 21.084 82.3555 21.6621C82.3555 22.4004 82.043 22.9746 81.418 23.3848C80.793 23.7949 79.916 24 78.7871 24H78.0195C77.8828 24 77.8145 23.7793 77.8145 23.3379C77.8145 23.1035 77.8301 22.9355 77.8613 22.834C77.8926 22.7324 77.9453 22.6816 78.0195 22.6816H78.7637C80.2832 22.6816 81.043 22.3125 81.043 21.5742C81.043 21.1875 80.8125 20.7383 80.3516 20.2266C79.8906 19.7148 79.1777 19.1133 78.2129 18.4219V17.2734C79.873 16.2773 81.5742 15.5508 83.3164 15.0938ZM89.9258 17.8535L91.4961 21.5156C91.6875 21.957 91.9023 22.2617 92.1406 22.4297C92.3789 22.5977 92.7012 22.6816 93.1074 22.6816H93.1895V24H93.0898C92.0273 24 91.2754 23.6055 90.834 22.8164C90.5996 23.2227 90.2637 23.5312 89.8262 23.7422C89.3887 23.9531 88.9102 24.0586 88.3906 24.0586C87.9648 24.0586 87.5469 23.9863 87.1367 23.8418C86.7305 23.6973 86.3633 23.4844 86.0352 23.2031L86.6328 22.1543C87.1484 22.541 87.7266 22.7344 88.3672 22.7344C89.1602 22.7344 89.7715 22.4414 90.2012 21.8555L88.7012 18.4395L89.9258 17.8535ZM95.8145 19.0898C96.0527 20.0742 96.1719 20.8711 96.1719 21.4805C96.1719 23.1602 95.2695 24 93.4648 24H93.1953C93.1211 24 93.0684 23.9531 93.0371 23.8594C93.0059 23.7617 92.9902 23.5879 92.9902 23.3379C92.9902 23.0879 93.0059 22.916 93.0371 22.8223C93.0684 22.7285 93.1211 22.6816 93.1953 22.6816H93.4648C93.9648 22.6816 94.3262 22.5723 94.5488 22.3535C94.7754 22.1348 94.8887 21.8027 94.8887 21.3574C94.8887 20.9824 94.7832 20.3398 94.5723 19.4297L95.8145 19.0898ZM94.0098 26.0566L94.9648 25.1016L95.9141 26.0566L94.9648 27.0117L94.0098 26.0566ZM91.9648 26.0566L92.9199 25.1016L93.8691 26.0566L92.9199 27.0117L91.9648 26.0566ZM98.8145 20.332L100.068 19.9102L100.426 21.1289C100.547 21.5625 100.674 21.8867 100.807 22.1016C100.943 22.3125 101.115 22.4629 101.322 22.5527C101.529 22.6387 101.816 22.6816 102.184 22.6816H102.189V24H102.184C101.465 24 100.947 23.7988 100.631 23.3965C100.607 24.3613 100.311 25.1582 99.7402 25.7871C99.1738 26.4199 98.2676 26.9707 97.0215 27.4395L96.4531 26.2441C97.5195 25.8496 98.2754 25.4258 98.7207 24.9727C99.166 24.5195 99.3887 23.9355 99.3887 23.2207C99.3887 22.5137 99.1973 21.5508 98.8145 20.332ZM104.967 18.7148C105.143 18.7148 105.344 18.7461 105.57 18.8086C105.797 18.8711 105.99 18.9355 106.15 19.002C106.314 19.0645 106.553 19.166 106.865 19.3066C107.209 19.459 107.477 19.5762 107.668 19.6582C107.863 19.7402 108.135 19.8379 108.482 19.9512C108.834 20.0645 109.172 20.1523 109.496 20.2148V21.3223L107 22.9922C106.473 23.3438 105.924 23.5996 105.354 23.7598C104.787 23.9199 104.166 24 103.49 24H102.195C102.121 24 102.068 23.9512 102.037 23.8535C102.006 23.7559 101.99 23.584 101.99 23.3379C101.99 23.0918 102.006 22.9219 102.037 22.8281C102.068 22.7305 102.121 22.6816 102.195 22.6816H103.725C104.252 22.6816 104.725 22.627 105.143 22.5176C105.564 22.4043 105.986 22.2168 106.408 21.9551L107.949 20.9824C107.445 20.8887 106.861 20.6895 106.197 20.3848C105.998 20.2949 105.852 20.2324 105.758 20.1973C105.664 20.1582 105.547 20.1191 105.406 20.0801C105.266 20.041 105.139 20.0215 105.025 20.0215C104.486 20.0215 104.139 20.3945 103.982 21.1406L103.941 21.3457L102.887 21.1523L102.928 20.9004C103.061 20.1934 103.287 19.6523 103.607 19.2773C103.932 18.9023 104.385 18.7148 104.967 18.7148ZM105.072 16.2598L106.027 15.3047L106.977 16.2598L106.027 17.2148L105.072 16.2598ZM35.4863 42.709L36.4414 41.7539L37.3906 42.709L36.4414 43.6641L35.4863 42.709ZM38.5391 41.4551L39.7812 40.8691C40.0625 41.5566 40.2676 42.1562 40.3965 42.668C40.5254 43.1797 40.5898 43.7363 40.5898 44.3379C40.5898 45.1309 40.4121 45.8066 40.0566 46.3652C39.7051 46.9277 39.2227 47.3457 38.6094 47.6191C37.9961 47.8926 37.2812 48.0293 36.4648 48.0293C35.1094 48.0293 34.0879 47.7148 33.4004 47.0859C32.7168 46.457 32.375 45.5449 32.375 44.3496C32.375 43.4434 32.5586 42.3965 32.9258 41.209L34.1387 41.5957C33.8301 42.752 33.6758 43.6309 33.6758 44.2324C33.6758 45.0449 33.9004 45.6602 34.3496 46.0781C34.8027 46.4961 35.5117 46.7051 36.4766 46.7051C37.4102 46.7051 38.1094 46.502 38.5742 46.0957C39.0391 45.6895 39.2715 45.1172 39.2715 44.3789C39.2715 43.6172 39.0273 42.6426 38.5391 41.4551ZM43.3262 45H42.0078V36.791H43.3262V45ZM45.7871 41.332L47.041 40.9102L47.3984 42.1289C47.5195 42.5625 47.6465 42.8867 47.7793 43.1016C47.916 43.3125 48.0879 43.4629 48.2949 43.5527C48.502 43.6387 48.7891 43.6816 49.1562 43.6816H49.1621V45H49.1562C48.4375 45 47.9199 44.7988 47.6035 44.3965C47.5801 45.3613 47.2832 46.1582 46.7129 46.7871C46.1465 47.4199 45.2402 47.9707 43.9941 48.4395L43.4258 47.2441C44.4922 46.8496 45.248 46.4258 45.6934 45.9727C46.1387 45.5195 46.3613 44.9355 46.3613 44.2207C46.3613 43.5137 46.1699 42.5508 45.7871 41.332ZM50.457 47.0566L51.4121 46.1016L52.3613 47.0566L51.4121 48.0117L50.457 47.0566ZM48.4121 47.0566L49.3672 46.1016L50.3164 47.0566L49.3672 48.0117L48.4121 47.0566ZM52.1855 40.0898C52.4238 41.0742 52.543 41.8711 52.543 42.4805C52.543 43.293 52.3105 43.916 51.8457 44.3496C51.3848 44.7832 50.625 45 49.5664 45H49.168C49.0938 45 49.041 44.9531 49.0098 44.8594C48.9785 44.7617 48.9629 44.5879 48.9629 44.3379C48.9629 44.0879 48.9785 43.916 49.0098 43.8223C49.041 43.7285 49.0938 43.6816 49.168 43.6816H49.5664C50.1914 43.6816 50.6289 43.5742 50.8789 43.3594C51.1328 43.1445 51.2598 42.8105 51.2598 42.3574C51.2598 41.9824 51.1543 41.3398 50.9434 40.4297L52.1855 40.0898ZM55.2793 45H53.9609V36.791H55.2793V45ZM60.6699 41.332L61.9238 40.9102C62.3535 42.3203 62.5684 43.4258 62.5684 44.2266C62.5684 45.2109 62.2773 46.0371 61.6953 46.7051C61.1172 47.373 60.1777 47.9512 58.877 48.4395L58.3086 47.2441C59.375 46.8535 60.1309 46.4316 60.5762 45.9785C61.0215 45.5293 61.2441 44.9492 61.2441 44.2383C61.2441 43.5078 61.0527 42.5391 60.6699 41.332ZM68.6328 42.7031C68.6328 43.0391 68.5723 43.3418 68.4512 43.6113C68.3301 43.877 68.168 44.0977 67.9648 44.2734C67.7656 44.4492 67.5273 44.5957 67.25 44.7129C66.9727 44.8301 66.6855 44.9141 66.3887 44.9648C66.0957 45.0156 65.7891 45.041 65.4688 45.041C64.8125 45.041 64.1836 44.957 63.582 44.7891L63.8809 43.5352C64.3887 43.6641 64.9062 43.7285 65.4336 43.7285C66.0078 43.7285 66.4668 43.6387 66.8105 43.459C67.1582 43.2754 67.332 42.9922 67.332 42.6094C67.332 42.2617 67.1621 41.8438 66.8223 41.3555C66.4863 40.8672 65.998 40.3418 65.3574 39.7793L66.2188 38.7656C66.9922 39.4414 67.5879 40.1016 68.0059 40.7461C68.4238 41.3906 68.6328 42.043 68.6328 42.7031ZM80.6973 43.6816V45H80.5391C80.1836 45 79.8652 44.9355 79.584 44.8066C79.3027 44.6738 79.0938 44.4863 78.957 44.2441V44.8125C78.9531 45.875 78.6289 46.707 77.9844 47.3086C77.3438 47.9102 76.457 48.2109 75.3242 48.2109C74.2461 48.2109 73.4199 47.9395 72.8457 47.3965C72.2715 46.8535 71.9844 46.1152 71.9844 45.1816C71.9844 44.3379 72.1719 43.4434 72.5469 42.498L73.7129 42.9199C73.4238 43.7129 73.2793 44.4141 73.2793 45.0234C73.2793 45.6211 73.457 46.0801 73.8125 46.4004C74.168 46.7246 74.7031 46.8867 75.418 46.8867C76.1875 46.8867 76.7539 46.6934 77.1172 46.3066C77.4844 45.9238 77.668 45.334 77.668 44.5371V36.791H78.9863V42.1055C78.9863 42.6562 79.0977 43.0566 79.3203 43.3066C79.5469 43.5566 79.9531 43.6816 80.5391 43.6816H80.6973ZM81.9805 47.0566L82.9355 46.1016L83.8848 47.0566L82.9355 48.0117L81.9805 47.0566ZM79.9355 47.0566L80.8906 46.1016L81.8398 47.0566L80.8906 48.0117L79.9355 47.0566ZM83.709 40.0898C83.9473 41.0742 84.0664 41.8711 84.0664 42.4805C84.0664 43.293 83.834 43.916 83.3691 44.3496C82.9082 44.7832 82.1484 45 81.0898 45H80.6914C80.6172 45 80.5645 44.9531 80.5332 44.8594C80.502 44.7617 80.4863 44.5879 80.4863 44.3379C80.4863 44.0879 80.502 43.916 80.5332 43.8223C80.5645 43.7285 80.6172 43.6816 80.6914 43.6816H81.0898C81.7148 43.6816 82.1523 43.5742 82.4023 43.3594C82.6562 43.1445 82.7832 42.8105 82.7832 42.3574C82.7832 41.9824 82.6777 41.3398 82.4668 40.4297L83.709 40.0898ZM88.584 43.6699C88.4746 42.1816 88.0879 41.4375 87.4238 41.4375C87.2129 41.4375 87.0312 41.5098 86.8789 41.6543C86.7266 41.7988 86.6152 41.9805 86.5449 42.1992C86.4785 42.418 86.4453 42.6562 86.4453 42.9141C86.4453 43.1914 86.5273 43.3887 86.6914 43.5059C86.8594 43.623 87.1172 43.6816 87.4648 43.6816C87.7422 43.6816 88.1152 43.6777 88.584 43.6699ZM88.4258 45H87.3125C86.668 45 86.168 44.834 85.8125 44.502C85.457 44.166 85.2793 43.6738 85.2793 43.0254C85.2793 42.748 85.3066 42.4766 85.3613 42.2109C85.416 41.9414 85.502 41.6836 85.6191 41.4375C85.7363 41.1875 85.877 40.9688 86.041 40.7812C86.209 40.5938 86.4141 40.4434 86.6562 40.3301C86.8984 40.2168 87.1621 40.1602 87.4473 40.1602C87.7754 40.1602 88.0684 40.2285 88.3262 40.3652C88.5879 40.498 88.8027 40.6738 88.9707 40.8926C89.1426 41.1113 89.2871 41.377 89.4043 41.6895C89.5254 41.998 89.6152 42.3145 89.6738 42.6387C89.7324 42.9629 89.7715 43.3105 89.791 43.6816H90.3359V45H89.7441C89.623 45.7969 89.2148 46.4746 88.5195 47.0332C87.8281 47.5918 86.8613 48.0527 85.6191 48.416L85.0742 47.209C86.0195 46.9473 86.7793 46.6289 87.3535 46.2539C87.9277 45.8789 88.2852 45.4609 88.4258 45ZM93.1074 39.7148C93.2832 39.7148 93.4844 39.7461 93.7109 39.8086C93.9375 39.8711 94.1309 39.9355 94.291 40.002C94.4551 40.0645 94.6934 40.166 95.0059 40.3066C95.3496 40.459 95.6172 40.5762 95.8086 40.6582C96.0039 40.7402 96.2754 40.8379 96.623 40.9512C96.9746 41.0645 97.3125 41.1523 97.6367 41.2148V42.3223L96.6289 42.9902C96.8203 43.252 97.0234 43.4336 97.2383 43.5352C97.457 43.6328 97.7617 43.6816 98.1523 43.6816H98.4277V45H98.1348C97.5645 45 97.084 44.8887 96.6934 44.666C96.3066 44.4434 95.9941 44.0781 95.7559 43.5703L95.1406 43.9922C94.6133 44.3438 94.0645 44.5996 93.4941 44.7598C92.9277 44.9199 92.3066 45 91.6309 45H90.3359C90.2617 45 90.209 44.9512 90.1777 44.8535C90.1465 44.7559 90.1309 44.584 90.1309 44.3379C90.1309 44.0918 90.1465 43.9219 90.1777 43.8281C90.209 43.7305 90.2617 43.6816 90.3359 43.6816H91.8652C92.3926 43.6816 92.8652 43.627 93.2832 43.5176C93.7051 43.4043 94.127 43.2168 94.5488 42.9551L96.0898 41.9824C95.5859 41.8887 95.002 41.6895 94.3379 41.3848C94.1387 41.2949 93.9922 41.2324 93.8984 41.1973C93.8047 41.1582 93.6875 41.1191 93.5469 41.0801C93.4062 41.041 93.2793 41.0215 93.166 41.0215C92.627 41.0215 92.2793 41.3945 92.123 42.1406L92.082 42.3457L91.0273 42.1523L91.0684 41.9004C91.2012 41.1934 91.4277 40.6523 91.748 40.2773C92.0723 39.9023 92.5254 39.7148 93.1074 39.7148ZM101.041 40.0898C101.279 41.0742 101.398 41.8711 101.398 42.4805C101.398 44.1602 100.496 45 98.6914 45H98.4219C98.3477 45 98.2949 44.9531 98.2637 44.8594C98.2324 44.7617 98.2168 44.5879 98.2168 44.3379C98.2168 44.0879 98.2324 43.916 98.2637 43.8223C98.2949 43.7285 98.3477 43.6816 98.4219 43.6816H98.6914C99.1914 43.6816 99.5527 43.5723 99.7754 43.3535C100.002 43.1348 100.115 42.8027 100.115 42.3574C100.115 41.9824 100.01 41.3398 99.7988 40.4297L101.041 40.0898ZM99.9629 38.2617L100.918 37.3066L101.867 38.2617L100.918 39.2168L99.9629 38.2617ZM97.918 38.2617L98.873 37.3066L99.8223 38.2617L98.873 39.2168L97.918 38.2617ZM108.096 44.9238C107.674 44.998 107.305 45.0352 106.988 45.0352C106.344 45.0352 105.844 44.8691 105.488 44.5371C105.133 44.2051 104.955 43.7148 104.955 43.0664C104.955 42.7148 105 42.373 105.09 42.041C105.18 41.7051 105.309 41.3965 105.477 41.1152C105.648 40.8301 105.877 40.6016 106.162 40.4297C106.447 40.2578 106.768 40.1719 107.123 40.1719C107.486 40.1719 107.807 40.252 108.084 40.4121C108.365 40.5723 108.592 40.7832 108.764 41.0449C108.939 41.3066 109.082 41.623 109.191 41.9941C109.305 42.3652 109.383 42.7422 109.426 43.125C109.469 43.5039 109.49 43.9121 109.49 44.3496C109.49 45.3262 109.141 46.1445 108.441 46.8047C107.742 47.4688 106.693 48.0078 105.295 48.4219L104.75 47.2148C106.742 46.6641 107.857 45.9004 108.096 44.9238ZM108.248 43.5879C108.139 42.1582 107.756 41.4434 107.1 41.4434C106.885 41.4434 106.701 41.5195 106.549 41.6719C106.396 41.8203 106.287 42.0059 106.221 42.2285C106.154 42.4473 106.121 42.6875 106.121 42.9492C106.121 43.2266 106.203 43.4238 106.367 43.541C106.535 43.6543 106.793 43.7109 107.141 43.7109C107.508 43.7109 107.877 43.6699 108.248 43.5879Z" fill="#321300"/>
<defs>
<clipPath id="clip0_2691_22089">
<rect width="16" height="13.7352" fill="white" transform="translate(8 8)"/>
</clipPath>
</defs>
</svg>
