<svg width="137" height="34" viewBox="0 0 137 34" fill="none" xmlns="http://www.w3.org/2000/svg">
<path d="M6.54667 30.3422C6.63277 30.3422 6.70595 30.3745 6.76621 30.4391C6.83078 30.5036 6.86306 30.579 6.86306 30.6651C6.86306 30.7511 6.83078 30.8265 6.76621 30.891C6.70595 30.9556 6.63277 30.9879 6.54667 30.9879C6.21953 30.9879 5.94618 30.947 5.72665 30.8652C5.50712 30.7834 5.33493 30.6521 5.2101 30.4714C4.66772 30.8975 3.84124 31.1106 2.73066 31.1106C2.04623 31.1106 1.54044 30.9944 1.21329 30.7619C0.890444 30.5252 0.729022 30.17 0.729022 29.6965C0.729022 29.3091 0.836637 28.8421 1.05187 28.2954L1.45219 28.4245C1.30153 28.8765 1.2262 29.2532 1.2262 29.5545C1.2262 29.7826 1.28001 29.9613 1.38762 30.0904C1.49954 30.2152 1.66958 30.3056 1.89772 30.3616C2.12586 30.4132 2.43364 30.4434 2.82105 30.452H3.01476C3.428 30.452 3.8068 30.4132 4.15117 30.3358C4.49554 30.2583 4.78179 30.1442 5.00994 29.9935C4.9712 29.8386 4.94752 29.6384 4.93891 29.3931L4.91954 28.5601L5.37152 28.5149L5.42318 29.3285C5.4404 29.6083 5.48344 29.8192 5.55231 29.9613C5.62119 30.1033 5.73096 30.2023 5.88162 30.2583C6.03658 30.3142 6.25827 30.3422 6.54667 30.3422ZM3.10516 27.6239L3.42154 27.2042H3.46028L3.90581 27.5399V27.5722L3.58297 27.9984H3.55068L3.10516 27.6626V27.6239ZM2.18828 27.7207L2.50467 27.301H2.54341L2.98893 27.6368V27.6691L2.67254 28.0952H2.64026L2.18828 27.7595V27.7207ZM11.7125 29.7676C11.7125 30.5811 11.3832 30.9879 10.7246 30.9879C10.5481 30.9879 10.3738 30.9513 10.2016 30.8781C10.0294 30.8007 9.87448 30.693 9.73673 30.5553C9.6119 30.6973 9.45047 30.805 9.25246 30.8781C9.05876 30.9513 8.84353 30.9879 8.60677 30.9879C8.23658 30.9879 7.89221 30.8781 7.57367 30.6586C7.44454 30.7748 7.28527 30.8588 7.09586 30.9104C6.90646 30.9621 6.68047 30.9879 6.41789 30.9879C6.3361 30.9879 6.26293 30.9556 6.19836 30.891C6.13379 30.8222 6.1015 30.7447 6.1015 30.6586C6.1015 30.5725 6.13379 30.4993 6.19836 30.4391C6.25862 30.3745 6.3318 30.3422 6.41789 30.3422C6.68478 30.3422 6.8957 30.3142 7.05067 30.2583C7.20563 30.198 7.3197 30.1076 7.39288 29.9871C7.45314 29.8881 7.49404 29.7719 7.51556 29.6384C7.53708 29.5007 7.55861 29.2209 7.58013 28.799L8.01274 28.8055C7.99983 29.2316 7.98476 29.5394 7.96754 29.7288C7.95463 29.9182 7.9245 30.0775 7.87715 30.2066C8.07946 30.297 8.299 30.3422 8.53575 30.3422C8.74667 30.3422 8.93608 30.3121 9.10395 30.2518C9.27183 30.1916 9.38806 30.1033 9.45263 29.9871C9.51289 29.8924 9.55378 29.7783 9.57531 29.6449C9.59683 29.5071 9.62051 29.2252 9.64633 28.799L10.0725 28.8119C10.0639 29.1692 10.0531 29.4382 10.0402 29.619C10.0316 29.7998 10.0122 29.9526 9.98209 30.0775C10.0854 30.1636 10.2038 30.2303 10.3372 30.2776C10.4707 30.3207 10.5955 30.3422 10.7117 30.3422C10.8925 30.3422 11.0216 30.3035 11.0991 30.226C11.1809 30.1442 11.2218 30.0086 11.2218 29.8192C11.2218 29.6901 11.2046 29.5222 11.1702 29.3156C11.1357 29.1089 11.0755 28.8076 10.9894 28.4116L11.5059 28.2437C11.6437 28.9066 11.7125 29.4146 11.7125 29.7676ZM13.7082 30.9879C13.2304 30.9879 12.8881 30.8609 12.6815 30.6069C12.4749 30.353 12.3694 29.9505 12.3651 29.3995L12.3393 26.3389L12.8623 26.2744L12.8688 29.3801C12.8688 29.6427 12.8989 29.8429 12.9592 29.9806C13.0237 30.1184 13.1141 30.2131 13.2304 30.2647C13.3509 30.3164 13.5102 30.3422 13.7082 30.3422C13.7943 30.3422 13.8696 30.3745 13.9342 30.4391C13.9987 30.5036 14.031 30.579 14.031 30.6651C14.031 30.7468 13.9987 30.8222 13.9342 30.891C13.8696 30.9556 13.7943 30.9879 13.7082 30.9879ZM13.5812 30.9879C13.4995 30.9879 13.4263 30.9556 13.3617 30.891C13.2971 30.8265 13.2649 30.7511 13.2649 30.6651C13.2649 30.579 13.2971 30.5036 13.3617 30.4391C13.422 30.3745 13.4952 30.3422 13.5812 30.3422H14.892C14.9781 30.3422 15.0513 30.3745 15.1115 30.4391C15.1761 30.5036 15.2084 30.579 15.2084 30.6651C15.2084 30.7511 15.1761 30.8265 15.1115 30.891C15.047 30.9556 14.9738 30.9879 14.892 30.9879H13.5812ZM14.4473 30.6651C14.4473 30.5747 14.4774 30.4993 14.5377 30.4391C14.5979 30.3745 14.6733 30.3422 14.7637 30.3422C14.9574 30.3422 15.1209 30.3099 15.2544 30.2454C15.3921 30.1765 15.517 30.071 15.6289 29.929C15.7451 29.7826 15.8786 29.5781 16.0292 29.3156C16.2358 28.9497 16.4338 28.6785 16.6232 28.502C16.817 28.3255 17.0516 28.2373 17.327 28.2373C17.5767 28.2373 17.7833 28.3277 17.9469 28.5085C18.1148 28.6849 18.2375 28.9109 18.315 29.1864C18.3967 29.4619 18.4376 29.746 18.4376 30.0387C18.4376 30.4046 18.358 30.6887 18.1987 30.891C18.0395 31.0891 17.8156 31.1881 17.5272 31.1881C17.213 31.1881 16.9289 31.0998 16.6749 30.9233C16.4209 30.7468 16.2208 30.5101 16.0744 30.2131C15.9108 30.4584 15.7257 30.65 15.5191 30.7877C15.3168 30.9212 15.065 30.9879 14.7637 30.9879C14.6776 30.9879 14.6044 30.9556 14.5441 30.891C14.4796 30.8265 14.4473 30.7511 14.4473 30.6651ZM16.3714 29.6965C16.479 29.9376 16.6362 30.1377 16.8428 30.297C17.0494 30.4563 17.2818 30.5359 17.5401 30.5359C17.7037 30.5359 17.8135 30.4907 17.8694 30.4003C17.9297 30.3099 17.9598 30.17 17.9598 29.9806C17.9598 29.6793 17.9082 29.4146 17.8049 29.1864C17.7059 28.9583 17.5423 28.8442 17.3141 28.8442C17.1376 28.8442 16.9784 28.9088 16.8363 29.0379C16.6986 29.1628 16.5436 29.3823 16.3714 29.6965ZM26.0001 30.3422C26.0861 30.3422 26.1593 30.3745 26.2196 30.4391C26.2842 30.5036 26.3164 30.579 26.3164 30.6651C26.3164 30.7511 26.2842 30.8265 26.2196 30.891C26.1593 30.9556 26.0861 30.9879 26.0001 30.9879C25.6729 30.9879 25.3996 30.947 25.18 30.8652C24.9605 30.7834 24.7883 30.6521 24.6635 30.4714C24.1211 30.8975 23.2946 31.1106 22.184 31.1106C21.4996 31.1106 20.9938 30.9944 20.6667 30.7619C20.3438 30.5252 20.1824 30.17 20.1824 29.6965C20.1824 29.3091 20.29 28.8421 20.5052 28.2954L20.9056 28.4245C20.7549 28.8765 20.6796 29.2532 20.6796 29.5545C20.6796 29.7826 20.7334 29.9613 20.841 30.0904C20.9529 30.2152 21.123 30.3056 21.3511 30.3616C21.5792 30.4132 21.887 30.4434 22.2744 30.452H22.4681C22.8814 30.452 23.2602 30.4132 23.6046 30.3358C23.9489 30.2583 24.2352 30.1442 24.4633 29.9935C24.4246 29.8386 24.4009 29.6384 24.3923 29.3931L24.3729 28.5601L24.8249 28.5149L24.8766 29.3285C24.8938 29.6083 24.9368 29.8192 25.0057 29.9613C25.0746 30.1033 25.1843 30.2023 25.335 30.2583C25.49 30.3142 25.7116 30.3422 26.0001 30.3422ZM22.5585 27.6239L22.8749 27.2042H22.9137L23.3592 27.5399V27.5722L23.0363 27.9984H23.0041L22.5585 27.6626V27.6239ZM21.6417 27.7207L21.958 27.301H21.9968L22.4423 27.6368V27.6691L22.1259 28.0952H22.0936L21.6417 27.7595V27.7207ZM28.6154 30.3422C28.7058 30.3422 28.7812 30.3745 28.8414 30.4391C28.9017 30.4993 28.9318 30.5747 28.9318 30.6651C28.9318 30.7511 28.8995 30.8265 28.835 30.891C28.7747 30.9556 28.7015 30.9879 28.6154 30.9879C28.3184 30.9879 28.0279 30.9384 27.7438 30.8394C27.464 30.7404 27.238 30.594 27.0658 30.4003C26.9324 30.5983 26.7666 30.7468 26.5686 30.8459C26.3749 30.9406 26.1425 30.9879 25.8713 30.9879C25.7895 30.9879 25.7163 30.9556 25.6517 30.891C25.5872 30.8265 25.5549 30.7511 25.5549 30.6651C25.5549 30.579 25.5872 30.5036 25.6517 30.4391C25.712 30.3745 25.7852 30.3422 25.8713 30.3422C26.0951 30.3422 26.2738 30.3078 26.4072 30.2389C26.5449 30.1657 26.6547 30.0603 26.7365 29.9225C26.8226 29.7805 26.9065 29.5825 26.9883 29.3285L27.1433 28.8765L27.5565 29.025L27.4597 29.4512C27.4166 29.6277 27.365 29.7912 27.3047 29.9419C27.6189 30.2088 28.0559 30.3422 28.6154 30.3422ZM27.0787 32.1501L27.3822 31.7498H27.4145L27.8406 32.0662V32.0985L27.5371 32.5053H27.5049L27.0787 32.1824V32.1501ZM26.1877 32.247L26.4911 31.8467H26.5299L26.956 32.1695V32.1953L26.6526 32.6021H26.6203L26.1877 32.2793V32.247ZM31.268 30.3422C31.3541 30.3422 31.4272 30.3745 31.4875 30.4391C31.5521 30.5036 31.5844 30.579 31.5844 30.6651C31.5844 30.7511 31.5521 30.8265 31.4875 30.891C31.4229 30.9556 31.3498 30.9879 31.268 30.9879C30.9365 30.9879 30.661 30.947 30.4415 30.8652C30.2263 30.7834 30.0584 30.6564 29.9378 30.4843C29.7484 30.6521 29.5246 30.7791 29.2663 30.8652C29.0124 30.947 28.7519 30.9879 28.485 30.9879C28.399 30.9879 28.3258 30.9556 28.2655 30.891C28.2009 30.8265 28.1687 30.7511 28.1687 30.6651C28.1687 30.5747 28.1988 30.4993 28.2591 30.4391C28.3193 30.3745 28.3947 30.3422 28.485 30.3422C29.0317 30.3422 29.4471 30.226 29.7312 29.9935C29.6925 29.8386 29.6688 29.6384 29.6602 29.3931L29.6408 28.5472L30.0928 28.5085L30.1445 29.3285C30.1574 29.5911 30.1983 29.7955 30.2671 29.9419C30.336 30.0839 30.4479 30.1872 30.6029 30.2518C30.7579 30.3121 30.9796 30.3422 31.268 30.3422ZM29.3503 27.5722V27.5335L29.6796 27.0944H29.7183L30.1832 27.4431V27.4754L29.8539 27.9209H29.8152L29.3503 27.5722ZM30.8203 30.6651C30.8203 30.5747 30.8504 30.4993 30.9107 30.4391C30.9709 30.3745 31.0463 30.3422 31.1367 30.3422C31.3304 30.3422 31.4939 30.3099 31.6274 30.2454C31.7651 30.1765 31.89 30.071 32.0019 29.929C32.1181 29.7826 32.2515 29.5781 32.4022 29.3156C32.6088 28.9497 32.8068 28.6785 32.9962 28.502C33.1899 28.3255 33.4245 28.2373 33.7 28.2373C33.9497 28.2373 34.1563 28.3277 34.3199 28.5085C34.4878 28.6849 34.6105 28.9109 34.6879 29.1864C34.7697 29.4619 34.8106 29.746 34.8106 30.0387C34.8106 30.4046 34.731 30.6887 34.5717 30.891C34.4125 31.0891 34.1886 31.1881 33.9002 31.1881C33.586 31.1881 33.3019 31.0998 33.0479 30.9233C32.7939 30.7468 32.5938 30.5101 32.4474 30.2131C32.2838 30.4584 32.0987 30.65 31.8921 30.7877C31.6898 30.9212 31.438 30.9879 31.1367 30.9879C31.0506 30.9879 30.9774 30.9556 30.9171 30.891C30.8526 30.8265 30.8203 30.7511 30.8203 30.6651ZM32.7444 29.6965C32.852 29.9376 33.0092 30.1377 33.2158 30.297C33.4224 30.4563 33.6548 30.5359 33.9131 30.5359C34.0767 30.5359 34.1865 30.4907 34.2424 30.4003C34.3027 30.3099 34.3328 30.17 34.3328 29.9806C34.3328 29.6793 34.2812 29.4146 34.1779 29.1864C34.0788 28.9583 33.9153 28.8442 33.6871 28.8442C33.5106 28.8442 33.3514 28.9088 33.2093 29.0379C33.0716 29.1628 32.9166 29.3823 32.7444 29.6965ZM35.4312 26.3325L35.9542 26.2679L35.9607 31.0073L35.47 31.046L35.4312 26.3325ZM38.3767 31.1235C38.1916 31.0245 38.0496 30.904 37.9506 30.7619C37.8559 30.6156 37.8085 30.4606 37.8085 30.297C37.8085 30.1291 37.8559 29.9548 37.9506 29.774C38.0453 29.5932 38.1744 29.4253 38.338 29.2704L38.6221 29.5222C38.4026 29.7676 38.2928 29.9677 38.2928 30.1227C38.2928 30.2906 38.4241 30.4541 38.6867 30.6134V30.6457L38.409 31.1235H38.3767ZM41.9585 30.9879C41.4807 30.9879 41.1385 30.8609 40.9319 30.6069C40.7253 30.353 40.6198 29.9505 40.6155 29.3995L40.5897 26.3389L41.1127 26.2744L41.1192 29.3801C41.1192 29.6427 41.1493 29.8429 41.2095 29.9806C41.2741 30.1184 41.3645 30.2131 41.4807 30.2647C41.6013 30.3164 41.7605 30.3422 41.9585 30.3422C42.0446 30.3422 42.12 30.3745 42.1845 30.4391C42.2491 30.5036 42.2814 30.579 42.2814 30.6651C42.2814 30.7468 42.2491 30.8222 42.1845 30.891C42.12 30.9556 42.0446 30.9879 41.9585 30.9879ZM41.5152 30.6651C41.5152 30.5747 41.5454 30.4993 41.6056 30.4391C41.6659 30.3745 41.7412 30.3422 41.8316 30.3422C42.0253 30.3422 42.1889 30.3099 42.3224 30.2454C42.4601 30.1765 42.5849 30.071 42.6969 29.929C42.8131 29.7826 42.9465 29.5781 43.0972 29.3156C43.3038 28.9497 43.5018 28.6785 43.6912 28.502C43.8849 28.3255 44.1195 28.2373 44.395 28.2373C44.6791 28.2373 44.9073 28.347 45.0794 28.5666C45.2559 28.7818 45.3829 29.0638 45.4604 29.4124C45.5164 29.6621 45.5874 29.8536 45.6735 29.9871C45.7596 30.1162 45.8693 30.2088 46.0028 30.2647C46.1405 30.3164 46.3235 30.3422 46.5516 30.3422C46.6377 30.3422 46.7109 30.3745 46.7711 30.4391C46.8357 30.5036 46.868 30.579 46.868 30.6651C46.868 30.7511 46.8357 30.8265 46.7711 30.891C46.7066 30.9556 46.6334 30.9879 46.5516 30.9879C46.2804 30.9879 46.0523 30.9427 45.8672 30.8523C45.6821 30.7619 45.5357 30.6242 45.4281 30.4391C45.3205 30.9384 45.0429 31.1881 44.5952 31.1881C44.2809 31.1881 43.9968 31.0998 43.7429 30.9233C43.4889 30.7468 43.2887 30.5101 43.1424 30.2131C42.9745 30.4627 42.7916 30.6543 42.5935 30.7877C42.3955 30.9212 42.1416 30.9879 41.8316 30.9879C41.7455 30.9879 41.6724 30.9556 41.6121 30.891C41.5475 30.8265 41.5152 30.7511 41.5152 30.6651ZM43.4394 29.6965C43.547 29.9376 43.7041 30.1377 43.9107 30.297C44.1174 30.4563 44.3498 30.5359 44.6081 30.5359C44.7717 30.5359 44.8814 30.4929 44.9374 30.4068C44.9977 30.3164 45.0278 30.1743 45.0278 29.9806C45.0278 29.6793 44.9761 29.4146 44.8728 29.1864C44.7738 28.9583 44.6102 28.8442 44.3821 28.8442C44.2056 28.8442 44.0463 28.9088 43.9043 29.0379C43.7665 29.1628 43.6116 29.3823 43.4394 29.6965ZM51.72 29.7676C51.72 30.5811 51.3907 30.9879 50.7321 30.9879C50.5556 30.9879 50.3813 30.9513 50.2091 30.8781C50.0369 30.8007 49.8819 30.693 49.7442 30.5553C49.6194 30.6973 49.4579 30.805 49.2599 30.8781C49.0662 30.9513 48.851 30.9879 48.6142 30.9879C48.244 30.9879 47.8997 30.8781 47.5811 30.6586C47.452 30.7748 47.2927 30.8588 47.1033 30.9104C46.9139 30.9621 46.6879 30.9879 46.4254 30.9879C46.3436 30.9879 46.2704 30.9556 46.2058 30.891C46.1412 30.8222 46.109 30.7447 46.109 30.6586C46.109 30.5725 46.1412 30.4993 46.2058 30.4391C46.2661 30.3745 46.3393 30.3422 46.4254 30.3422C46.6922 30.3422 46.9032 30.3142 47.0581 30.2583C47.2131 30.198 47.3272 30.1076 47.4003 29.9871C47.4606 29.8881 47.5015 29.7719 47.523 29.6384C47.5445 29.5007 47.5661 29.2209 47.5876 28.799L48.0202 28.8055C48.0073 29.2316 47.9922 29.5394 47.975 29.7288C47.9621 29.9182 47.932 30.0775 47.8846 30.2066C48.0869 30.297 48.3065 30.3422 48.5432 30.3422C48.7541 30.3422 48.9435 30.3121 49.1114 30.2518C49.2793 30.1916 49.3955 30.1033 49.4601 29.9871C49.5204 29.8924 49.5612 29.7783 49.5828 29.6449C49.6043 29.5071 49.628 29.2252 49.6538 28.799L50.0799 28.8119C50.0713 29.1692 50.0606 29.4382 50.0477 29.619C50.0391 29.7998 50.0197 29.9526 49.9896 30.0775C50.0929 30.1636 50.2112 30.2303 50.3447 30.2776C50.4781 30.3207 50.603 30.3422 50.7192 30.3422C50.9 30.3422 51.0291 30.3035 51.1066 30.226C51.1884 30.1442 51.2293 30.0086 51.2293 29.8192C51.2293 29.6901 51.2121 29.5222 51.1776 29.3156C51.1432 29.1089 51.0829 28.8076 50.9968 28.4116L51.5134 28.2437C51.6511 28.9066 51.72 29.4146 51.72 29.7676ZM49.3051 26.9588L49.6021 26.5714H49.6344L50.0477 26.8813V26.9136L49.7506 27.3075H49.7184L49.3051 26.9975V26.9588ZM49.841 27.6884L50.1445 27.2881H50.1768L50.603 27.6045V27.6368L50.2995 28.0436H50.2672L49.841 27.7207V27.6884ZM48.95 27.7853L49.2535 27.385H49.2922L49.7184 27.7013V27.7336L49.4149 28.1404H49.3826L48.95 27.8176V27.7853ZM55.0919 32.6861C54.5667 32.6818 54.1621 32.544 53.878 32.2728C53.5982 32.0016 53.4583 31.6314 53.4583 31.1622C53.4583 30.6586 53.6197 29.9806 53.9426 29.1283L54.3623 29.2833C54.0997 30.0538 53.9684 30.6349 53.9684 31.0266C53.9684 31.3581 54.0696 31.6099 54.2719 31.7821C54.4785 31.9543 54.7841 32.0404 55.1888 32.0404C55.5977 32.0404 55.9593 31.9457 56.2735 31.7563C56.592 31.5669 56.7492 31.2139 56.7449 30.6973L56.7061 26.3389L57.2356 26.2744L57.2485 30.6457C57.2528 31.3086 57.0634 31.8165 56.6803 32.1695C56.2972 32.5225 55.7677 32.6947 55.0919 32.6861ZM60.9872 30.3422C61.0733 30.3422 61.1487 30.3745 61.2132 30.4391C61.2778 30.5036 61.3101 30.579 61.3101 30.6651C61.3101 30.7511 61.2778 30.8265 61.2132 30.891C61.1487 30.9556 61.0733 30.9879 60.9872 30.9879H60.574C60.4793 31.5432 60.2232 31.9564 59.8056 32.2276C59.3924 32.5031 58.8586 32.6409 58.2043 32.6409C58.1354 32.6409 58.0364 32.6366 57.9073 32.628L57.8944 32.1049H58.1527C58.6735 32.0877 59.0975 31.9823 59.4247 31.7886C59.7518 31.5992 59.9606 31.3323 60.051 30.9879H59.0954C58.7252 30.9879 58.4475 30.9104 58.2624 30.7555C58.0816 30.6005 57.9912 30.3551 57.9912 30.0194C57.9912 29.5243 58.0816 29.1003 58.2624 28.7474C58.4475 28.3901 58.7682 28.2114 59.2245 28.2114C59.655 28.2114 59.9886 28.3965 60.2253 28.7667C60.4621 29.1326 60.5912 29.6578 60.6127 30.3422H60.9872ZM58.4884 29.9096C58.4884 30.0689 58.5336 30.1808 58.624 30.2454C58.7187 30.3099 58.8866 30.3422 59.1277 30.3422H60.0962C60.0747 29.8644 59.995 29.4899 59.8573 29.2187C59.7238 28.9475 59.5065 28.8119 59.2051 28.8119C58.9081 28.8119 58.7144 28.9217 58.624 29.1412C58.5336 29.3565 58.4884 29.6126 58.4884 29.9096ZM60.5492 30.6651C60.5492 30.5747 60.5793 30.4993 60.6396 30.4391C60.6998 30.3745 60.7752 30.3422 60.8656 30.3422H60.9495C61.4187 30.3422 61.7695 30.2841 62.002 30.1679C62.2387 30.0517 62.3571 29.8709 62.3571 29.6255C62.3571 29.4533 62.3356 29.251 62.2925 29.0186C62.2538 28.7861 62.1828 28.4547 62.0795 28.0242L62.596 27.8499C62.6993 28.3234 62.766 28.6742 62.7962 28.9023C62.8306 29.1262 62.8478 29.3543 62.8478 29.5868C62.8478 30.0517 62.6886 30.4025 62.37 30.6392C62.0558 30.8717 61.5866 30.9879 60.9624 30.9879H60.8656C60.7795 30.9879 60.7063 30.9556 60.646 30.891C60.5815 30.8265 60.5492 30.7511 60.5492 30.6651ZM61.9955 32.1243L62.299 31.724H62.3313L62.7574 32.0404V32.0727L62.454 32.4794H62.4217L61.9955 32.1566V32.1243ZM61.1045 32.2276L61.4079 31.8273H61.4467L61.8728 32.1437V32.176L61.5694 32.5828H61.5371L61.1045 32.2599V32.2276ZM61.6727 32.9508L61.9697 32.5569H62.002L62.4217 32.8733V32.8991L62.1247 33.2995H62.0924L61.6727 32.9831V32.9508ZM70.4121 30.3422C70.4982 30.3422 70.5713 30.3745 70.6316 30.4391C70.6962 30.5036 70.7285 30.579 70.7285 30.6651C70.7285 30.7511 70.6962 30.8265 70.6316 30.891C70.5713 30.9556 70.4982 30.9879 70.4121 30.9879C70.0849 30.9879 69.8116 30.947 69.592 30.8652C69.3725 30.7834 69.2003 30.6521 69.0755 30.4714C68.5331 30.8975 67.7066 31.1106 66.5961 31.1106C65.9116 31.1106 65.4058 30.9944 65.0787 30.7619C64.7558 30.5252 64.5944 30.17 64.5944 29.6965C64.5944 29.3091 64.702 28.8421 64.9173 28.2954L65.3176 28.4245C65.1669 28.8765 65.0916 29.2532 65.0916 29.5545C65.0916 29.7826 65.1454 29.9613 65.253 30.0904C65.3649 30.2152 65.535 30.3056 65.7631 30.3616C65.9913 30.4132 66.299 30.4434 66.6864 30.452H66.8802C67.2934 30.452 67.6722 30.4132 68.0166 30.3358C68.3609 30.2583 68.6472 30.1442 68.8753 29.9935C68.8366 29.8386 68.8129 29.6384 68.8043 29.3931L68.7849 28.5601L69.2369 28.5149L69.2886 29.3285C69.3058 29.6083 69.3488 29.8192 69.4177 29.9613C69.4866 30.1033 69.5963 30.2023 69.747 30.2583C69.902 30.3142 70.1237 30.3422 70.4121 30.3422ZM66.9706 27.6239L67.2869 27.2042H67.3257L67.7712 27.5399V27.5722L67.4484 27.9984H67.4161L66.9706 27.6626V27.6239ZM66.0537 27.7207L66.3701 27.301H66.4088L66.8543 27.6368V27.6691L66.5379 28.0952H66.5057L66.0537 27.7595V27.7207ZM73.0662 30.3422C73.1523 30.3422 73.2255 30.3745 73.2857 30.4391C73.3503 30.5036 73.3826 30.579 73.3826 30.6651C73.3826 30.7511 73.3503 30.8265 73.2857 30.891C73.2212 30.9556 73.148 30.9879 73.0662 30.9879C72.7347 30.9879 72.4592 30.947 72.2397 30.8652C72.0245 30.7834 71.8566 30.6564 71.7361 30.4843C71.5467 30.6521 71.3228 30.7791 71.0646 30.8652C70.8106 30.947 70.5502 30.9879 70.2833 30.9879C70.1972 30.9879 70.124 30.9556 70.0637 30.891C69.9992 30.8265 69.9669 30.7511 69.9669 30.6651C69.9669 30.5747 69.997 30.4993 70.0573 30.4391C70.1176 30.3745 70.1929 30.3422 70.2833 30.3422C70.83 30.3422 71.2454 30.226 71.5295 29.9935C71.4907 29.8386 71.467 29.6384 71.4584 29.3931L71.4391 28.5472L71.891 28.5085L71.9427 29.3285C71.9556 29.5911 71.9965 29.7955 72.0654 29.9419C72.1343 30.0839 72.2462 30.1872 72.4011 30.2518C72.5561 30.3121 72.7778 30.3422 73.0662 30.3422ZM71.4326 32.1049L71.7361 31.7046H71.7684L72.1945 32.021V32.0533L71.891 32.4601H71.8588L71.4326 32.1372V32.1049ZM70.5416 32.2018L70.845 31.8015H70.8838L71.3099 32.1243V32.1501L71.0065 32.5569H70.9742L70.5416 32.2341V32.2018ZM72.9349 30.9879C72.8531 30.9879 72.7799 30.9556 72.7154 30.891C72.6508 30.8265 72.6185 30.7511 72.6185 30.6651C72.6185 30.579 72.6508 30.5036 72.7154 30.4391C72.7756 30.3745 72.8488 30.3422 72.9349 30.3422H74.2456C74.3317 30.3422 74.4049 30.3745 74.4652 30.4391C74.5297 30.5036 74.562 30.579 74.562 30.6651C74.562 30.7511 74.5297 30.8265 74.4652 30.891C74.4006 30.9556 74.3274 30.9879 74.2456 30.9879H72.9349ZM76.9002 30.3422C76.9863 30.3422 77.0595 30.3745 77.1198 30.4391C77.1843 30.5036 77.2166 30.579 77.2166 30.6651C77.2166 30.7511 77.1843 30.8265 77.1198 30.891C77.0552 30.9556 76.982 30.9879 76.9002 30.9879C76.5688 30.9879 76.2933 30.947 76.0737 30.8652C75.8585 30.7834 75.6906 30.6564 75.5701 30.4843C75.3807 30.6521 75.1569 30.7791 74.8986 30.8652C74.6446 30.947 74.3842 30.9879 74.1173 30.9879C74.0312 30.9879 73.958 30.9556 73.8978 30.891C73.8332 30.8265 73.8009 30.7511 73.8009 30.6651C73.8009 30.5747 73.8311 30.4993 73.8913 30.4391C73.9516 30.3745 74.0269 30.3422 74.1173 30.3422C74.664 30.3422 75.0794 30.226 75.3635 29.9935C75.3247 29.8386 75.3011 29.6384 75.2925 29.3931L75.2731 28.5472L75.7251 28.5085L75.7767 29.3285C75.7896 29.5911 75.8305 29.7955 75.8994 29.9419C75.9683 30.0839 76.0802 30.1872 76.2352 30.2518C76.3901 30.3121 76.6118 30.3422 76.9002 30.3422ZM74.9825 27.5722V27.5335L75.3118 27.0944H75.3506L75.8155 27.4431V27.4754L75.4862 27.9209H75.4474L74.9825 27.5722ZM76.4525 30.6651C76.4525 30.5747 76.4827 30.4993 76.5429 30.4391C76.6032 30.3745 76.6785 30.3422 76.7689 30.3422C76.9626 30.3422 77.1262 30.3099 77.2596 30.2454C77.3974 30.1765 77.5222 30.071 77.6341 29.929C77.7504 29.7826 77.8838 29.5781 78.0345 29.3156C78.2411 28.9497 78.4391 28.6785 78.6285 28.502C78.8222 28.3255 79.0568 28.2373 79.3323 28.2373C79.582 28.2373 79.7886 28.3277 79.9522 28.5085C80.12 28.6849 80.2427 28.9109 80.3202 29.1864C80.402 29.4619 80.4429 29.746 80.4429 30.0387C80.4429 30.4046 80.3633 30.6887 80.204 30.891C80.0447 31.0891 79.8209 31.1881 79.5325 31.1881C79.2182 31.1881 78.9341 31.0998 78.6802 30.9233C78.4262 30.7468 78.226 30.5101 78.0797 30.2131C77.9161 30.4584 77.731 30.65 77.5244 30.7877C77.3221 30.9212 77.0702 30.9879 76.7689 30.9879C76.6828 30.9879 76.6097 30.9556 76.5494 30.891C76.4848 30.8265 76.4525 30.7511 76.4525 30.6651ZM78.3767 29.6965C78.4843 29.9376 78.6414 30.1377 78.848 30.297C79.0547 30.4563 79.2871 30.5359 79.5454 30.5359C79.709 30.5359 79.8187 30.4907 79.8747 30.4003C79.9349 30.3099 79.9651 30.17 79.9651 29.9806C79.9651 29.6793 79.9134 29.4146 79.8101 29.1864C79.7111 28.9583 79.5475 28.8442 79.3194 28.8442C79.1429 28.8442 78.9836 28.9088 78.8416 29.0379C78.7038 29.1628 78.5489 29.3823 78.3767 29.6965ZM81.0635 26.3325L81.5865 26.2679L81.593 31.0073L81.1022 31.046L81.0635 26.3325Z" fill="#353535"/>
<path d="M38.6165 1.10687C39.8727 0.770698 41.1223 0.403962 42.3805 0.0751953C42.552 1.0689 42.757 2.05983 42.8875 3.0591C40.4237 3.63513 37.955 4.19265 35.4902 4.76498C36.8322 7.03856 38.1676 9.31862 39.5534 11.5681C39.9404 12.2118 40.742 12.4896 41.4731 12.5239C42.7913 12.5211 44.14 12.597 45.4181 12.2238C45.4305 10.4716 45.4401 8.71851 45.4353 6.96632C46.3494 6.95891 47.2653 6.9478 48.1794 6.97188C48.1766 8.56199 48.1823 10.153 48.1765 11.7432C48.1785 11.8728 48.1718 12.0071 48.2185 12.1321C48.5273 12.3599 48.9314 12.3886 49.3013 12.4516C49.8951 12.5572 50.5013 12.5239 51.1018 12.5164C52.1912 12.4525 53.2864 12.3081 54.312 11.9302C54.3139 10.9134 54.1089 9.91133 54.0089 8.90187C53.9107 7.95077 53.7372 7.00522 53.7048 6.04855C54.3577 5.89575 55.0192 5.77721 55.6759 5.64107C56.0314 5.56791 56.3831 5.4614 56.7501 5.46233C56.7701 5.88741 56.7749 6.31249 56.8006 6.73757C56.9169 7.53402 56.8149 8.34436 56.935 9.14081C56.9665 10.0076 56.9655 10.8754 56.9617 11.7432C56.8921 12.785 56.2154 13.7093 55.3452 14.2853C54.0498 15.1595 52.4514 15.4355 50.9121 15.5717C50.2754 15.5717 49.6282 15.6328 49.0077 15.4615C48.3367 15.2688 47.6028 15.1957 47.0337 14.766C46.9051 14.6956 46.8746 14.5483 46.8212 14.4289C46.6105 14.4955 46.4142 14.5946 46.2169 14.6909C45.36 15.1058 44.4221 15.3438 43.4785 15.4837C42.5253 15.5318 41.5684 15.5337 40.6152 15.4902C39.5668 15.3346 38.5746 14.8891 37.7415 14.2538C37.1334 14.64 36.4805 14.9734 35.7695 15.1401C33.9318 15.6096 32.0179 15.5226 30.1354 15.5041C28.8439 15.4253 27.4742 14.9086 26.7489 13.8139C26.0588 12.7952 25.9358 11.5376 25.9702 10.3494C25.8844 9.58071 25.9349 8.80463 25.8243 8.03782C25.8005 6.77091 25.7948 5.50308 25.7748 4.23525C25.688 3.30914 25.7166 2.37656 25.6995 1.44768C26.7479 1.38748 27.7821 1.16429 28.8305 1.1291C28.8248 4.74645 28.8372 8.36288 28.8382 11.9802C30.1964 12.7044 31.792 12.5026 33.2779 12.5155C34.3893 12.459 35.5102 12.41 36.592 12.1303C36.5701 11.9589 36.5377 11.7867 36.429 11.6459C35.3243 9.93818 34.2263 8.22675 33.1178 6.52087C32.9005 6.16154 32.6384 5.82351 32.4592 5.44473C32.5602 4.50937 32.7747 3.58698 32.8805 2.65161C34.8068 2.19134 36.7016 1.61438 38.6165 1.10687Z" fill="black"/>
<path d="M58.8576 1.431C59.8832 1.39211 60.8926 1.1754 61.9162 1.12632C61.9096 5.72904 61.9324 10.3327 61.9201 14.9363C61.0022 14.9475 60.0843 14.9243 59.1674 14.9484C59.0501 14.6631 59.093 14.3529 59.0864 14.0538C59.073 12.8804 59.0559 11.707 59.0435 10.5337C58.9272 9.08709 58.9863 7.63126 58.9424 6.18098C58.8376 5.44473 58.8919 4.70014 58.8681 3.95926C58.8643 3.11651 58.8271 2.27376 58.8576 1.431Z" fill="black"/>
<path d="M79.2664 1.44399C80.2996 1.38842 81.3185 1.17356 82.3508 1.13559C82.3222 5.73739 82.3651 10.3392 82.3422 14.941C81.4148 14.9336 80.4874 14.9438 79.5609 14.9354C79.5571 14.0853 79.539 13.236 79.5371 12.3859C79.4151 11.0319 79.4704 9.66777 79.4379 8.30918C79.3007 6.77092 79.4256 5.2197 79.2845 3.68237C79.2826 2.93594 79.2626 2.1895 79.2664 1.44399Z" fill="black"/>
<path d="M8.87843 2.68773C9.71243 2.59882 10.5531 2.65902 11.389 2.60253C11.3757 3.53604 11.5472 4.45751 11.4967 5.39194C9.08622 5.40213 6.67476 5.37805 4.26425 5.40121C4.10889 5.06318 4.2023 4.68625 4.17942 4.32971C4.19848 3.78794 4.13367 3.24061 4.2185 2.70347C5.77213 2.69606 7.32575 2.69236 8.87843 2.68773Z" fill="black"/>
<path d="M50.202 2.62661C51.3143 2.61735 52.4267 2.61735 53.539 2.60716C53.5428 3.50733 53.5371 4.40843 53.5428 5.30953C52.4267 5.3086 51.3115 5.31323 50.1954 5.30582C50.2049 4.41214 50.1925 3.51937 50.202 2.62661Z" fill="black"/>
<path d="M14.7355 7.18303C15.7477 6.93391 16.7685 6.72368 17.7827 6.48568C17.7941 6.75517 17.7951 7.02559 17.817 7.29509C17.9295 8.06097 17.8427 8.84075 17.9571 9.60756C17.9809 10.6883 18.0019 11.77 17.9752 12.8508C17.898 13.5731 17.6788 14.327 17.1364 14.853C16.4883 15.5318 15.5599 15.8513 14.6688 16.1051C13.3134 16.4616 11.9266 16.6997 10.5292 16.8284C8.97275 16.9766 7.381 17.0553 5.83976 16.7348C4.73507 16.5126 3.65897 15.9356 3.0337 15.0012C2.53807 14.2473 2.41606 13.3435 2.25403 12.4822C2.24164 11.5746 2.17396 10.6531 2.34172 9.75667C2.35601 9.53255 2.35697 9.30751 2.37603 9.08432C3.2615 9.08987 4.14888 9.06024 5.03435 9.09914C5.01529 10.2521 4.73221 11.4496 5.16875 12.5665C5.37749 13.1175 5.91506 13.4666 6.46979 13.6417C7.21515 13.8723 8.0034 13.9352 8.78212 13.9204C10.1222 13.9426 11.4538 13.7935 12.7815 13.6324C13.6699 13.5092 14.5582 13.3749 15.4227 13.1369C15.2826 11.3375 15.0138 9.5483 14.826 7.75166C14.8117 7.55995 14.7679 7.37195 14.7355 7.18303Z" fill="black"/>
<path d="M74.2985 7.08486C75.1783 6.91168 76.0609 6.74221 76.9349 6.54124C77.0512 6.53291 77.3028 6.40788 77.3343 6.58662C77.3857 7.09875 77.3391 7.61645 77.4163 8.12673C77.4782 8.8352 77.4248 9.55015 77.5278 10.2558C77.5449 11.1217 77.5611 11.9886 77.5449 12.8545C77.4372 14.0556 76.5384 15.0429 75.4871 15.6059C73.9582 16.4255 72.1701 16.6385 70.4488 16.6107C69.793 16.6385 69.1801 16.3801 68.552 16.244C68.3356 16.1977 68.1393 16.0977 67.9391 16.0125C67.5426 16.7524 67.0718 17.4572 66.4541 18.0425C65.5258 19.0612 64.2295 19.7826 62.8284 19.9308C61.9839 19.9827 61.1298 19.9429 60.313 19.716C60.314 18.8751 60.314 18.0342 60.312 17.1942C60.3016 17.059 60.3445 16.9321 60.3893 16.8071C61.4568 16.7812 62.5748 16.9469 63.589 16.533C64.7432 16.0829 65.7707 15.1058 65.9594 13.8723C66.0891 13.3361 65.9261 12.7971 65.907 12.259C65.6277 10.7578 65.3809 9.25194 65.094 7.75166C65.073 7.62941 65.0606 7.50624 65.0559 7.38307C65.9842 7.2034 66.8992 6.96262 67.8209 6.75239C67.9143 6.72646 68.0096 6.72183 68.1069 6.73665C68.246 8.56292 68.4996 10.379 68.6835 12.2016C68.7217 12.5748 68.573 13.036 68.9294 13.3064C69.2726 13.6694 69.8111 13.5352 70.26 13.5592C71.8241 13.5852 73.4311 13.5379 74.9057 12.9702C74.9219 12.1868 74.7341 11.4181 74.6845 10.6383C74.593 9.98727 74.5311 9.33251 74.451 8.67961C74.3948 8.14803 74.2718 7.62293 74.2985 7.08486Z" fill="black"/>
<path d="M22.4169 7.00522C22.8629 6.91261 23.2985 6.72646 23.7627 6.76351C23.8962 9.19082 24.1954 11.6181 24.0687 14.0547C23.8981 15.705 23.1441 17.3174 21.8736 18.4398C20.7613 19.4289 19.2572 20.0197 17.7417 19.9466C17.1431 19.9771 16.5579 19.853 15.9784 19.7271C15.9603 18.7547 15.9565 17.7813 15.9812 16.8089C16.76 16.8052 17.5406 16.8367 18.3183 16.783C19.2257 16.6422 20.0912 16.2135 20.7117 15.5494C21.1501 15.1086 21.4857 14.5798 21.7563 14.0288C21.8335 13.8982 21.7992 13.7454 21.783 13.6065C21.4351 11.6857 21.0977 9.76408 20.7479 7.84334C20.7184 7.68868 20.7231 7.53125 20.7403 7.37566C21.3112 7.31269 21.8583 7.12654 22.4169 7.00522Z" fill="black"/>
<path d="M76.4593 18.713C76.8129 18.6908 77.1627 18.6056 77.5201 18.6417C77.543 19.64 77.5716 20.6374 77.5697 21.6367C74.9924 21.6284 72.4141 21.6469 69.8378 21.6237C69.8502 20.6634 69.8397 19.7021 69.8435 18.7417C72.0481 18.7269 74.2537 18.7241 76.4593 18.713Z" fill="black"/>
<path d="M39.218 18.7362C41.3368 18.7362 43.4547 18.7167 45.5736 18.7167C45.9948 18.725 46.4076 18.6121 46.8308 18.6306C46.8317 19.6373 47.008 20.6319 46.9651 21.6395C44.3812 21.6312 41.7962 21.6376 39.2123 21.633C39.2199 20.6671 39.2104 19.7021 39.218 18.7362Z" fill="black"/>
<path d="M92.8783 0.00349199C107.568 -0.00348359 122.259 0.0024956 136.949 0.000502579C136.97 10.421 136.95 20.8425 136.959 31.264C136.958 31.5201 136.954 31.7773 136.949 32.0344C122.258 32.0324 107.568 32.0383 92.8783 32.0314C92.8762 21.3557 92.8762 10.6791 92.8783 0.00349199ZM97.3014 4.28151C97.2942 12.1051 97.2952 19.9297 97.3014 27.7533C102.864 27.7573 108.427 27.7573 113.989 27.7533C113.774 27.0199 113.52 26.2964 113.256 25.5799C113.24 25.3089 113.498 25.1206 113.749 25.0677C114.992 24.7329 116.194 24.2715 117.442 23.9516C119.113 23.4454 120.781 22.9272 122.449 22.413C123.802 22.0633 125.107 21.56 126.46 21.2033C127.616 20.8734 128.752 20.4838 129.909 20.1549C130.775 19.9128 131.611 19.5042 132.529 19.4933C132.531 14.422 132.54 9.34977 132.524 4.27852C130.856 4.27055 129.188 4.29746 127.521 4.26457C127.837 4.63527 127.931 5.11759 128.095 5.55904C128.177 5.81116 128.286 6.11609 128.103 6.35326C124.128 7.56602 120.154 8.78774 116.167 9.96462C114.269 10.5815 112.351 11.1345 110.439 11.7055C109.903 11.843 109.368 12.1928 108.803 11.9586C108.724 11.5321 108.594 11.1196 108.438 10.715C108.359 10.4579 108.284 10.0404 108.629 9.93671C110.424 9.3129 112.278 8.86048 114.077 8.24564C115.233 7.91579 116.388 7.57997 117.528 7.20129C118.697 6.89038 119.828 6.46188 121.002 6.16791C123.055 5.5132 125.128 4.91928 127.187 4.28351C117.226 4.27554 107.263 4.27852 97.3014 4.28151ZM130.541 23.8659C128.316 24.6054 126.046 25.2043 123.818 25.9307C121.821 26.4918 119.852 27.1345 117.875 27.7503C122.758 27.7633 127.641 27.7513 132.525 27.7563C132.536 26.2626 132.54 24.7678 132.522 23.273C131.864 23.4803 131.202 23.6726 130.541 23.8659Z" fill="#3E68FF"/>
<path d="M128.55 9.47334C128.822 9.38964 129.209 9.30294 129.378 9.60289C129.588 10.0284 129.667 10.5017 129.845 10.9402C129.936 11.2541 130.112 11.6567 129.853 11.9367C128.869 12.3762 127.792 12.5745 126.782 12.9502C126.364 13.1066 125.91 13.1435 125.492 13.296C123.394 14.0005 121.258 14.5914 119.136 15.2222C117.137 15.857 115.113 16.413 113.124 17.0757C112.442 17.2461 111.787 17.5281 111.087 17.6278C110.823 17.6706 110.636 17.4355 110.581 17.2142C110.413 16.6432 110.141 16.1021 110.048 15.5122C110.005 15.3298 110.071 15.0837 110.285 15.0399C112.518 14.3144 114.784 13.6856 117.024 12.9781C118.012 12.6582 119.015 12.3812 120.01 12.0752C122.075 11.3847 124.194 10.8605 126.252 10.146C127.016 9.91978 127.78 9.6866 128.55 9.47334Z" fill="#3E68FF"/>
<path d="M130.168 14.5237C130.428 14.4519 130.747 14.3373 130.988 14.5227C131.194 14.9542 131.263 15.4335 131.441 15.8769C131.608 16.4439 131.98 17.0299 131.735 17.6298C130.704 17.856 129.711 18.2217 128.695 18.4987C126.526 19.1594 124.366 19.845 122.186 20.4688C121.241 20.8186 120.247 21.0219 119.295 21.3518C117.635 21.8361 116 22.3961 114.33 22.8485C113.835 22.987 113.359 23.2013 112.849 23.285C112.458 23.2102 112.386 22.7588 112.27 22.4549C112.117 21.7912 111.761 21.1823 111.696 20.5007C111.674 20.1759 112.029 20.0284 112.301 19.9676C114.698 19.2252 117.104 18.5107 119.503 17.7703C120.346 17.4554 121.24 17.29 122.088 16.987C122.955 16.7319 123.803 16.419 124.683 16.1988C126.52 15.6677 128.331 15.0568 130.168 14.5237Z" fill="#3E68FF"/>
</svg>
