<svg width="137" height="34" viewBox="0 0 137 34" fill="none" xmlns="http://www.w3.org/2000/svg">
<path d="M6.50615 30.3423C6.59224 30.3423 6.66542 30.3746 6.72568 30.4392C6.79025 30.5038 6.82253 30.5791 6.82253 30.6652C6.82253 30.7513 6.79025 30.8266 6.72568 30.8912C6.66542 30.9557 6.59224 30.988 6.50615 30.988C6.179 30.988 5.90566 30.9471 5.68612 30.8653C5.46659 30.7836 5.29441 30.6523 5.16957 30.4715C4.62719 30.8976 3.80071 31.1107 2.69013 31.1107C2.0057 31.1107 1.49991 30.9945 1.17276 30.762C0.849917 30.5253 0.688495 30.1702 0.688495 29.6966C0.688495 29.3092 0.79611 28.8422 1.01134 28.2955L1.41167 28.4246C1.26101 28.8766 1.18568 29.2533 1.18568 29.5546C1.18568 29.7827 1.23948 29.9614 1.3471 30.0905C1.45902 30.2154 1.62905 30.3057 1.85719 30.3617C2.08533 30.4134 2.39311 30.4435 2.78053 30.4521H2.97423C3.38747 30.4521 3.76628 30.4134 4.11064 30.3359C4.45501 30.2584 4.74127 30.1443 4.96941 29.9937C4.93067 29.8387 4.90699 29.6385 4.89838 29.3932L4.87901 28.5602L5.33099 28.515L5.38265 29.3286C5.39987 29.6084 5.44291 29.8193 5.51179 29.9614C5.58066 30.1034 5.69043 30.2024 5.84109 30.2584C5.99605 30.3144 6.21774 30.3423 6.50615 30.3423ZM3.06463 27.624L3.38102 27.2043H3.41976L3.86528 27.54V27.5723L3.54244 27.9985H3.51015L3.06463 27.6627V27.624ZM2.14775 27.7208L2.46414 27.3011H2.50288L2.9484 27.6369V27.6692L2.63202 28.0953H2.59973L2.14775 27.7596V27.7208ZM11.672 29.7677C11.672 30.5812 11.3427 30.988 10.6841 30.988C10.5076 30.988 10.3333 30.9514 10.1611 30.8783C9.98891 30.8008 9.83395 30.6932 9.6962 30.5554C9.57137 30.6975 9.40995 30.8051 9.21194 30.8783C9.01823 30.9514 8.803 30.988 8.56625 30.988C8.19605 30.988 7.85169 30.8783 7.53315 30.6587C7.40401 30.7749 7.24474 30.8589 7.05534 30.9105C6.86593 30.9622 6.63994 30.988 6.37736 30.988C6.29558 30.988 6.2224 30.9557 6.15783 30.8912C6.09326 30.8223 6.06098 30.7448 6.06098 30.6587C6.06098 30.5726 6.09326 30.4995 6.15783 30.4392C6.21809 30.3746 6.29127 30.3423 6.37736 30.3423C6.64425 30.3423 6.85517 30.3144 7.01014 30.2584C7.1651 30.1981 7.27917 30.1077 7.35235 29.9872C7.41262 29.8882 7.45351 29.772 7.47503 29.6385C7.49656 29.5008 7.51808 29.221 7.5396 28.7991L7.97221 28.8056C7.9593 29.2318 7.94423 29.5395 7.92702 29.7289C7.9141 29.9183 7.88397 30.0776 7.83662 30.2067C8.03893 30.2971 8.25847 30.3423 8.49522 30.3423C8.70615 30.3423 8.89555 30.3122 9.06343 30.2519C9.23131 30.1917 9.34753 30.1034 9.4121 29.9872C9.47236 29.8925 9.51326 29.7784 9.53478 29.645C9.5563 29.5072 9.57998 29.2253 9.60581 28.7991L10.032 28.8121C10.0234 29.1693 10.0126 29.4384 9.99968 29.6192C9.99107 29.8 9.9717 29.9528 9.94156 30.0776C10.0449 30.1637 10.1632 30.2304 10.2967 30.2778C10.4301 30.3208 10.555 30.3423 10.6712 30.3423C10.852 30.3423 10.9811 30.3036 11.0586 30.2261C11.1404 30.1443 11.1813 30.0087 11.1813 29.8193C11.1813 29.6902 11.1641 29.5223 11.1296 29.3157C11.0952 29.1091 11.0349 28.8077 10.9488 28.4117L11.4654 28.2438C11.6031 28.9068 11.672 29.4147 11.672 29.7677ZM13.6676 30.988C13.1898 30.988 12.8476 30.861 12.641 30.6071C12.4344 30.3531 12.3289 29.9506 12.3246 29.3996L12.2988 26.3391L12.8218 26.2745L12.8282 29.3803C12.8282 29.6428 12.8584 29.843 12.9186 29.9808C12.9832 30.1185 13.0736 30.2132 13.1898 30.2649C13.3104 30.3165 13.4696 30.3423 13.6676 30.3423C13.7537 30.3423 13.8291 30.3746 13.8936 30.4392C13.9582 30.5038 13.9905 30.5791 13.9905 30.6652C13.9905 30.747 13.9582 30.8223 13.8936 30.8912C13.8291 30.9557 13.7537 30.988 13.6676 30.988ZM13.5407 30.988C13.4589 30.988 13.3858 30.9557 13.3212 30.8912C13.2566 30.8266 13.2243 30.7513 13.2243 30.6652C13.2243 30.5791 13.2566 30.5038 13.3212 30.4392C13.3815 30.3746 13.4546 30.3423 13.5407 30.3423H14.8515C14.9376 30.3423 15.0107 30.3746 15.071 30.4392C15.1356 30.5038 15.1679 30.5791 15.1679 30.6652C15.1679 30.7513 15.1356 30.8266 15.071 30.8912C15.0064 30.9557 14.9333 30.988 14.8515 30.988H13.5407ZM14.4068 30.6652C14.4068 30.5748 14.4369 30.4995 14.4971 30.4392C14.5574 30.3746 14.6327 30.3423 14.7231 30.3423C14.9168 30.3423 15.0804 30.3101 15.2139 30.2455C15.3516 30.1766 15.4764 30.0711 15.5884 29.9291C15.7046 29.7827 15.838 29.5783 15.9887 29.3157C16.1953 28.9498 16.3933 28.6786 16.5827 28.5021C16.7764 28.3256 17.011 28.2374 17.2865 28.2374C17.5362 28.2374 17.7428 28.3278 17.9064 28.5086C18.0743 28.6851 18.1969 28.9111 18.2744 29.1866C18.3562 29.462 18.3971 29.7462 18.3971 30.0389C18.3971 30.4048 18.3175 30.6889 18.1582 30.8912C17.9989 31.0892 17.7751 31.1882 17.4867 31.1882C17.1724 31.1882 16.8883 31.0999 16.6344 30.9235C16.3804 30.747 16.1802 30.5102 16.0339 30.2132C15.8703 30.4586 15.6852 30.6501 15.4786 30.7879C15.2763 30.9213 15.0245 30.988 14.7231 30.988C14.637 30.988 14.5639 30.9557 14.5036 30.8912C14.439 30.8266 14.4068 30.7513 14.4068 30.6652ZM16.3309 29.6966C16.4385 29.9377 16.5956 30.1379 16.8023 30.2971C17.0089 30.4564 17.2413 30.536 17.4996 30.536C17.6632 30.536 17.7729 30.4908 17.8289 30.4004C17.8892 30.3101 17.9193 30.1702 17.9193 29.9808C17.9193 29.6794 17.8676 29.4147 17.7643 29.1866C17.6653 28.9584 17.5018 28.8443 17.2736 28.8443C17.0971 28.8443 16.9378 28.9089 16.7958 29.038C16.6581 29.1629 16.5031 29.3824 16.3309 29.6966ZM25.9595 30.3423C26.0456 30.3423 26.1188 30.3746 26.1791 30.4392C26.2436 30.5038 26.2759 30.5791 26.2759 30.6652C26.2759 30.7513 26.2436 30.8266 26.1791 30.8912C26.1188 30.9557 26.0456 30.988 25.9595 30.988C25.6324 30.988 25.359 30.9471 25.1395 30.8653C24.92 30.7836 24.7478 30.6523 24.623 30.4715C24.0806 30.8976 23.2541 31.1107 22.1435 31.1107C21.4591 31.1107 20.9533 30.9945 20.6261 30.762C20.3033 30.5253 20.1419 30.1702 20.1419 29.6966C20.1419 29.3092 20.2495 28.8422 20.4647 28.2955L20.865 28.4246C20.7144 28.8766 20.6391 29.2533 20.6391 29.5546C20.6391 29.7827 20.6929 29.9614 20.8005 30.0905C20.9124 30.2154 21.0824 30.3057 21.3106 30.3617C21.5387 30.4134 21.8465 30.4435 22.2339 30.4521H22.4276C22.8409 30.4521 23.2197 30.4134 23.564 30.3359C23.9084 30.2584 24.1946 30.1443 24.4228 29.9937C24.384 29.8387 24.3604 29.6385 24.3518 29.3932L24.3324 28.5602L24.7844 28.515L24.836 29.3286C24.8532 29.6084 24.8963 29.8193 24.9652 29.9614C25.034 30.1034 25.1438 30.2024 25.2945 30.2584C25.4494 30.3144 25.6711 30.3423 25.9595 30.3423ZM22.518 27.624L22.8344 27.2043H22.8731L23.3187 27.54V27.5723L22.9958 27.9985H22.9635L22.518 27.6627V27.624ZM21.6011 27.7208L21.9175 27.3011H21.9563L22.4018 27.6369V27.6692L22.0854 28.0953H22.0531L21.6011 27.7596V27.7208ZM28.5749 30.3423C28.6653 30.3423 28.7406 30.3746 28.8009 30.4392C28.8612 30.4995 28.8913 30.5748 28.8913 30.6652C28.8913 30.7513 28.859 30.8266 28.7945 30.8912C28.7342 30.9557 28.661 30.988 28.5749 30.988C28.2779 30.988 27.9873 30.9385 27.7032 30.8395C27.4234 30.7405 27.1975 30.5942 27.0253 30.4004C26.8918 30.5985 26.7261 30.747 26.5281 30.846C26.3344 30.9407 26.1019 30.988 25.8307 30.988C25.749 30.988 25.6758 30.9557 25.6112 30.8912C25.5466 30.8266 25.5144 30.7513 25.5144 30.6652C25.5144 30.5791 25.5466 30.5038 25.6112 30.4392C25.6715 30.3746 25.7447 30.3423 25.8307 30.3423C26.0546 30.3423 26.2332 30.3079 26.3667 30.239C26.5044 30.1658 26.6142 30.0604 26.696 29.9226C26.7821 29.7806 26.866 29.5826 26.9478 29.3286L27.1027 28.8766L27.516 29.0251L27.4191 29.4513C27.3761 29.6278 27.3244 29.7913 27.2642 29.942C27.5784 30.2089 28.0153 30.3423 28.5749 30.3423ZM27.0382 32.1503L27.3417 31.7499H27.3739L27.8001 32.0663V32.0986L27.4966 32.5054H27.4643L27.0382 32.1825V32.1503ZM26.1471 32.2471L26.4506 31.8468H26.4893L26.9155 32.1696V32.1955L26.612 32.6022H26.5797L26.1471 32.2794V32.2471ZM31.2274 30.3423C31.3135 30.3423 31.3867 30.3746 31.447 30.4392C31.5115 30.5038 31.5438 30.5791 31.5438 30.6652C31.5438 30.7513 31.5115 30.8266 31.447 30.8912C31.3824 30.9557 31.3092 30.988 31.2274 30.988C30.896 30.988 30.6205 30.9471 30.401 30.8653C30.1857 30.7836 30.0178 30.6566 29.8973 30.4844C29.7079 30.6523 29.4841 30.7793 29.2258 30.8653C28.9718 30.9471 28.7114 30.988 28.4445 30.988C28.3584 30.988 28.2853 30.9557 28.225 30.8912C28.1604 30.8266 28.1281 30.7513 28.1281 30.6652C28.1281 30.5748 28.1583 30.4995 28.2185 30.4392C28.2788 30.3746 28.3541 30.3423 28.4445 30.3423C28.9912 30.3423 29.4066 30.2261 29.6907 29.9937C29.652 29.8387 29.6283 29.6385 29.6197 29.3932L29.6003 28.5473L30.0523 28.5086L30.1039 29.3286C30.1169 29.5912 30.1577 29.7957 30.2266 29.942C30.2955 30.0841 30.4074 30.1874 30.5624 30.2519C30.7173 30.3122 30.939 30.3423 31.2274 30.3423ZM29.3097 27.5723V27.5336L29.639 27.0945H29.6778L30.1427 27.4432V27.4755L29.8134 27.921H29.7746L29.3097 27.5723ZM30.7797 30.6652C30.7797 30.5748 30.8099 30.4995 30.8701 30.4392C30.9304 30.3746 31.0057 30.3423 31.0961 30.3423C31.2898 30.3423 31.4534 30.3101 31.5869 30.2455C31.7246 30.1766 31.8494 30.0711 31.9614 29.9291C32.0776 29.7827 32.211 29.5783 32.3617 29.3157C32.5683 28.9498 32.7663 28.6786 32.9557 28.5021C33.1494 28.3256 33.384 28.2374 33.6595 28.2374C33.9092 28.2374 34.1158 28.3278 34.2794 28.5086C34.4473 28.6851 34.5699 28.9111 34.6474 29.1866C34.7292 29.462 34.7701 29.7462 34.7701 30.0389C34.7701 30.4048 34.6905 30.6889 34.5312 30.8912C34.3719 31.0892 34.1481 31.1882 33.8597 31.1882C33.5454 31.1882 33.2613 31.0999 33.0074 30.9235C32.7534 30.747 32.5532 30.5102 32.4069 30.2132C32.2433 30.4586 32.0582 30.6501 31.8516 30.7879C31.6493 30.9213 31.3975 30.988 31.0961 30.988C31.01 30.988 30.9369 30.9557 30.8766 30.8912C30.812 30.8266 30.7797 30.7513 30.7797 30.6652ZM32.7039 29.6966C32.8115 29.9377 32.9686 30.1379 33.1752 30.2971C33.3819 30.4564 33.6143 30.536 33.8726 30.536C34.0362 30.536 34.1459 30.4908 34.2019 30.4004C34.2622 30.3101 34.2923 30.1702 34.2923 29.9808C34.2923 29.6794 34.2406 29.4147 34.1373 29.1866C34.0383 28.9584 33.8747 28.8443 33.6466 28.8443C33.4701 28.8443 33.3108 28.9089 33.1688 29.038C33.031 29.1629 32.8761 29.3824 32.7039 29.6966ZM35.3907 26.3326L35.9137 26.268L35.9202 31.0074L35.4295 31.0461L35.3907 26.3326ZM38.3362 31.1236C38.1511 31.0246 38.0091 30.9041 37.9101 30.762C37.8154 30.6157 37.768 30.4607 37.768 30.2971C37.768 30.1293 37.8154 29.9549 37.9101 29.7741C38.0048 29.5933 38.1339 29.4255 38.2975 29.2705L38.5816 29.5223C38.362 29.7677 38.2523 29.9678 38.2523 30.1228C38.2523 30.2907 38.3836 30.4543 38.6461 30.6135V30.6458L38.3685 31.1236H38.3362ZM41.918 30.988C41.4402 30.988 41.098 30.861 40.8914 30.6071C40.6848 30.3531 40.5793 29.9506 40.575 29.3996L40.5492 26.3391L41.0722 26.2745L41.0786 29.3803C41.0786 29.6428 41.1088 29.843 41.169 29.9808C41.2336 30.1185 41.324 30.2132 41.4402 30.2649C41.5607 30.3165 41.72 30.3423 41.918 30.3423C42.0041 30.3423 42.0794 30.3746 42.144 30.4392C42.2086 30.5038 42.2409 30.5791 42.2409 30.6652C42.2409 30.747 42.2086 30.8223 42.144 30.8912C42.0794 30.9557 42.0041 30.988 41.918 30.988ZM41.4747 30.6652C41.4747 30.5748 41.5048 30.4995 41.5651 30.4392C41.6254 30.3746 41.7007 30.3423 41.7911 30.3423C41.9848 30.3423 42.1484 30.3101 42.2818 30.2455C42.4196 30.1766 42.5444 30.0711 42.6563 29.9291C42.7725 29.7827 42.906 29.5783 43.0567 29.3157C43.2633 28.9498 43.4613 28.6786 43.6507 28.5021C43.8444 28.3256 44.079 28.2374 44.3545 28.2374C44.6386 28.2374 44.8667 28.3472 45.0389 28.5667C45.2154 28.7819 45.3424 29.0639 45.4199 29.4125C45.4758 29.6622 45.5469 29.8538 45.6329 29.9872C45.719 30.1163 45.8288 30.2089 45.9623 30.2649C46.1 30.3165 46.2829 30.3423 46.5111 30.3423C46.5972 30.3423 46.6704 30.3746 46.7306 30.4392C46.7952 30.5038 46.8275 30.5791 46.8275 30.6652C46.8275 30.7513 46.7952 30.8266 46.7306 30.8912C46.6661 30.9557 46.5929 30.988 46.5111 30.988C46.2399 30.988 46.0118 30.9428 45.8267 30.8524C45.6416 30.762 45.4952 30.6243 45.3876 30.4392C45.28 30.9385 45.0023 31.1882 44.5546 31.1882C44.2404 31.1882 43.9563 31.0999 43.7023 30.9235C43.4484 30.747 43.2482 30.5102 43.1019 30.2132C42.934 30.4629 42.751 30.6544 42.553 30.7879C42.355 30.9213 42.101 30.988 41.7911 30.988C41.705 30.988 41.6318 30.9557 41.5716 30.8912C41.507 30.8266 41.4747 30.7513 41.4747 30.6652ZM43.3989 29.6966C43.5065 29.9377 43.6636 30.1379 43.8702 30.2971C44.0768 30.4564 44.3093 30.536 44.5676 30.536C44.7311 30.536 44.8409 30.493 44.8969 30.4069C44.9571 30.3165 44.9873 30.1745 44.9873 29.9808C44.9873 29.6794 44.9356 29.4147 44.8323 29.1866C44.7333 28.9584 44.5697 28.8443 44.3416 28.8443C44.1651 28.8443 44.0058 28.9089 43.8638 29.038C43.726 29.1629 43.5711 29.3824 43.3989 29.6966ZM51.6795 29.7677C51.6795 30.5812 51.3502 30.988 50.6916 30.988C50.5151 30.988 50.3407 30.9514 50.1686 30.8783C49.9964 30.8008 49.8414 30.6932 49.7037 30.5554C49.5788 30.6975 49.4174 30.8051 49.2194 30.8783C49.0257 30.9514 48.8105 30.988 48.5737 30.988C48.2035 30.988 47.8591 30.8783 47.5406 30.6587C47.4115 30.7749 47.2522 30.8589 47.0628 30.9105C46.8734 30.9622 46.6474 30.988 46.3848 30.988C46.303 30.988 46.2299 30.9557 46.1653 30.8912C46.1007 30.8223 46.0684 30.7448 46.0684 30.6587C46.0684 30.5726 46.1007 30.4995 46.1653 30.4392C46.2256 30.3746 46.2987 30.3423 46.3848 30.3423C46.6517 30.3423 46.8626 30.3144 47.0176 30.2584C47.1726 30.1981 47.2866 30.1077 47.3598 29.9872C47.4201 29.8882 47.461 29.772 47.4825 29.6385C47.504 29.5008 47.5255 29.221 47.5471 28.7991L47.9797 28.8056C47.9668 29.2318 47.9517 29.5395 47.9345 29.7289C47.9216 29.9183 47.8914 30.0776 47.8441 30.2067C48.0464 30.2971 48.2659 30.3423 48.5027 30.3423C48.7136 30.3423 48.903 30.3122 49.0709 30.2519C49.2388 30.1917 49.355 30.1034 49.4196 29.9872C49.4798 29.8925 49.5207 29.7784 49.5422 29.645C49.5638 29.5072 49.5874 29.2253 49.6133 28.7991L50.0394 28.8121C50.0308 29.1693 50.02 29.4384 50.0071 29.6192C49.9985 29.8 49.9792 29.9528 49.949 30.0776C50.0523 30.1637 50.1707 30.2304 50.3042 30.2778C50.4376 30.3208 50.5624 30.3423 50.6787 30.3423C50.8594 30.3423 50.9886 30.3036 51.0661 30.2261C51.1479 30.1443 51.1887 30.0087 51.1887 29.8193C51.1887 29.6902 51.1715 29.5223 51.1371 29.3157C51.1027 29.1091 51.0424 28.8077 50.9563 28.4117L51.4728 28.2438C51.6106 28.9068 51.6795 29.4147 51.6795 29.7677ZM49.2646 26.9589L49.5616 26.5715H49.5939L50.0071 26.8814V26.9137L49.7101 27.3076H49.6778L49.2646 26.9977V26.9589ZM49.8005 27.6886L50.104 27.2882H50.1363L50.5624 27.6046V27.6369L50.259 28.0437H50.2267L49.8005 27.7208V27.6886ZM48.9095 27.7854L49.2129 27.3851H49.2517L49.6778 27.7015V27.7338L49.3744 28.1405H49.3421L48.9095 27.8177V27.7854ZM55.0514 32.6862C54.5262 32.6819 54.1216 32.5441 53.8375 32.2729C53.5577 32.0018 53.4178 31.6316 53.4178 31.1624C53.4178 30.6587 53.5792 29.9808 53.902 29.1284L54.3217 29.2834C54.0592 30.0539 53.9279 30.635 53.9279 31.0268C53.9279 31.3582 54.029 31.61 54.2313 31.7822C54.438 31.9544 54.7436 32.0405 55.1482 32.0405C55.5572 32.0405 55.9187 31.9458 56.233 31.7564C56.5515 31.567 56.7086 31.214 56.7043 30.6975L56.6656 26.3391L57.1951 26.2745L57.208 30.6458C57.2123 31.3087 57.0229 31.8167 56.6398 32.1696C56.2567 32.5226 55.7272 32.6948 55.0514 32.6862ZM60.9467 30.3423C61.0328 30.3423 61.1081 30.3746 61.1727 30.4392C61.2373 30.5038 61.2696 30.5791 61.2696 30.6652C61.2696 30.7513 61.2373 30.8266 61.1727 30.8912C61.1081 30.9557 61.0328 30.988 60.9467 30.988H60.5335C60.4388 31.5433 60.1826 31.9566 59.7651 32.2277C59.3519 32.5032 58.8181 32.641 58.1638 32.641C58.0949 32.641 57.9959 32.6367 57.8668 32.6281L57.8539 32.1051H58.1121C58.633 32.0878 59.057 31.9824 59.3841 31.7887C59.7113 31.5993 59.9201 31.3324 60.0105 30.988H59.0548C58.6846 30.988 58.407 30.9105 58.2219 30.7556C58.0411 30.6006 57.9507 30.3552 57.9507 30.0195C57.9507 29.5245 58.0411 29.1005 58.2219 28.7475C58.407 28.3902 58.7277 28.2116 59.184 28.2116C59.6144 28.2116 59.948 28.3967 60.1848 28.7669C60.4215 29.1327 60.5507 29.6579 60.5722 30.3423H60.9467ZM58.4479 29.9097C58.4479 30.069 58.4931 30.1809 58.5835 30.2455C58.6782 30.3101 58.8461 30.3423 59.0871 30.3423H60.0557C60.0341 29.8645 59.9545 29.49 59.8168 29.2188C59.6833 28.9476 59.4659 28.8121 59.1646 28.8121C58.8676 28.8121 58.6739 28.9218 58.5835 29.1414C58.4931 29.3566 58.4479 29.6127 58.4479 29.9097ZM60.5087 30.6652C60.5087 30.5748 60.5388 30.4995 60.599 30.4392C60.6593 30.3746 60.7346 30.3423 60.825 30.3423H60.909C61.3782 30.3423 61.729 30.2842 61.9615 30.168C62.1982 30.0518 62.3166 29.871 62.3166 29.6256C62.3166 29.4534 62.2951 29.2511 62.252 29.0187C62.2133 28.7862 62.1422 28.4548 62.0389 28.0243L62.5555 27.85C62.6588 28.3235 62.7255 28.6743 62.7556 28.9025C62.7901 29.1263 62.8073 29.3544 62.8073 29.5869C62.8073 30.0518 62.648 30.4026 62.3295 30.6394C62.0153 30.8718 61.5461 30.988 60.9219 30.988H60.825C60.7389 30.988 60.6658 30.9557 60.6055 30.8912C60.5409 30.8266 60.5087 30.7513 60.5087 30.6652ZM61.955 32.1244L62.2585 31.7241H62.2908L62.7169 32.0405V32.0728L62.4134 32.4796H62.3811L61.955 32.1567V32.1244ZM61.0639 32.2277L61.3674 31.8274H61.4062L61.8323 32.1438V32.1761L61.5288 32.5829H61.4966L61.0639 32.26V32.2277ZM61.6321 32.9509L61.9292 32.557H61.9615L62.3811 32.8734V32.8993L62.0841 33.2996H62.0518L61.6321 32.9832V32.9509ZM70.3715 30.3423C70.4576 30.3423 70.5308 30.3746 70.5911 30.4392C70.6556 30.5038 70.6879 30.5791 70.6879 30.6652C70.6879 30.7513 70.6556 30.8266 70.5911 30.8912C70.5308 30.9557 70.4576 30.988 70.3715 30.988C70.0444 30.988 69.7711 30.9471 69.5515 30.8653C69.332 30.7836 69.1598 30.6523 69.035 30.4715C68.4926 30.8976 67.6661 31.1107 66.5555 31.1107C65.8711 31.1107 65.3653 30.9945 65.0382 30.762C64.7153 30.5253 64.5539 30.1702 64.5539 29.6966C64.5539 29.3092 64.6615 28.8422 64.8767 28.2955L65.2771 28.4246C65.1264 28.8766 65.0511 29.2533 65.0511 29.5546C65.0511 29.7827 65.1049 29.9614 65.2125 30.0905C65.3244 30.2154 65.4944 30.3057 65.7226 30.3617C65.9507 30.4134 66.2585 30.4435 66.6459 30.4521H66.8396C67.2529 30.4521 67.6317 30.4134 67.976 30.3359C68.3204 30.2584 68.6067 30.1443 68.8348 29.9937C68.7961 29.8387 68.7724 29.6385 68.7638 29.3932L68.7444 28.5602L69.1964 28.515L69.248 29.3286C69.2653 29.6084 69.3083 29.8193 69.3772 29.9614C69.4461 30.1034 69.5558 30.2024 69.7065 30.2584C69.8614 30.3144 70.0831 30.3423 70.3715 30.3423ZM66.93 27.624L67.2464 27.2043H67.2852L67.7307 27.54V27.5723L67.4078 27.9985H67.3755L66.93 27.6627V27.624ZM66.0131 27.7208L66.3295 27.3011H66.3683L66.8138 27.6369V27.6692L66.4974 28.0953H66.4651L66.0131 27.7596V27.7208ZM73.0257 30.3423C73.1118 30.3423 73.1849 30.3746 73.2452 30.4392C73.3098 30.5038 73.3421 30.5791 73.3421 30.6652C73.3421 30.7513 73.3098 30.8266 73.2452 30.8912C73.1806 30.9557 73.1075 30.988 73.0257 30.988C72.6942 30.988 72.4187 30.9471 72.1992 30.8653C71.984 30.7836 71.8161 30.6566 71.6956 30.4844C71.5061 30.6523 71.2823 30.7793 71.024 30.8653C70.7701 30.9471 70.5096 30.988 70.2428 30.988C70.1567 30.988 70.0835 30.9557 70.0232 30.8912C69.9586 30.8266 69.9264 30.7513 69.9264 30.6652C69.9264 30.5748 69.9565 30.4995 70.0168 30.4392C70.077 30.3746 70.1524 30.3423 70.2428 30.3423C70.7894 30.3423 71.2048 30.2261 71.4889 29.9937C71.4502 29.8387 71.4265 29.6385 71.4179 29.3932L71.3985 28.5473L71.8505 28.5086L71.9022 29.3286C71.9151 29.5912 71.956 29.7957 72.0249 29.942C72.0937 30.0841 72.2056 30.1874 72.3606 30.2519C72.5156 30.3122 72.7373 30.3423 73.0257 30.3423ZM71.3921 32.1051L71.6956 31.7047H71.7278L72.154 32.0211V32.0534L71.8505 32.4602H71.8182L71.3921 32.1373V32.1051ZM70.501 32.2019L70.8045 31.8016H70.8432L71.2694 32.1244V32.1503L70.9659 32.557H70.9336L70.501 32.2342V32.2019ZM72.8944 30.988C72.8126 30.988 72.7394 30.9557 72.6748 30.8912C72.6103 30.8266 72.578 30.7513 72.578 30.6652C72.578 30.5791 72.6103 30.5038 72.6748 30.4392C72.7351 30.3746 72.8083 30.3423 72.8944 30.3423H74.2051C74.2912 30.3423 74.3644 30.3746 74.4246 30.4392C74.4892 30.5038 74.5215 30.5791 74.5215 30.6652C74.5215 30.7513 74.4892 30.8266 74.4246 30.8912C74.3601 30.9557 74.2869 30.988 74.2051 30.988H72.8944ZM76.8597 30.3423C76.9458 30.3423 77.019 30.3746 77.0792 30.4392C77.1438 30.5038 77.1761 30.5791 77.1761 30.6652C77.1761 30.7513 77.1438 30.8266 77.0792 30.8912C77.0147 30.9557 76.9415 30.988 76.8597 30.988C76.5282 30.988 76.2528 30.9471 76.0332 30.8653C75.818 30.7836 75.6501 30.6566 75.5296 30.4844C75.3402 30.6523 75.1163 30.7793 74.8581 30.8653C74.6041 30.9471 74.3437 30.988 74.0768 30.988C73.9907 30.988 73.9175 30.9557 73.8572 30.8912C73.7927 30.8266 73.7604 30.7513 73.7604 30.6652C73.7604 30.5748 73.7905 30.4995 73.8508 30.4392C73.9111 30.3746 73.9864 30.3423 74.0768 30.3423C74.6235 30.3423 75.0389 30.2261 75.323 29.9937C75.2842 29.8387 75.2605 29.6385 75.2519 29.3932L75.2326 28.5473L75.6845 28.5086L75.7362 29.3286C75.7491 29.5912 75.79 29.7957 75.8589 29.942C75.9278 30.0841 76.0397 30.1874 76.1946 30.2519C76.3496 30.3122 76.5713 30.3423 76.8597 30.3423ZM74.942 27.5723V27.5336L75.2713 27.0945H75.31L75.7749 27.4432V27.4755L75.4456 27.921H75.4069L74.942 27.5723ZM76.412 30.6652C76.412 30.5748 76.4421 30.4995 76.5024 30.4392C76.5627 30.3746 76.638 30.3423 76.7284 30.3423C76.9221 30.3423 77.0857 30.3101 77.2191 30.2455C77.3569 30.1766 77.4817 30.0711 77.5936 29.9291C77.7098 29.7827 77.8433 29.5783 77.9939 29.3157C78.2006 28.9498 78.3986 28.6786 78.588 28.5021C78.7817 28.3256 79.0163 28.2374 79.2918 28.2374C79.5414 28.2374 79.7481 28.3278 79.9116 28.5086C80.0795 28.6851 80.2022 28.9111 80.2797 29.1866C80.3615 29.462 80.4024 29.7462 80.4024 30.0389C80.4024 30.4048 80.3227 30.6889 80.1635 30.8912C80.0042 31.0892 79.7803 31.1882 79.4919 31.1882C79.1777 31.1882 78.8936 31.0999 78.6396 30.9235C78.3857 30.747 78.1855 30.5102 78.0391 30.2132C77.8756 30.4586 77.6905 30.6501 77.4838 30.7879C77.2815 30.9213 77.0297 30.988 76.7284 30.988C76.6423 30.988 76.5691 30.9557 76.5089 30.8912C76.4443 30.8266 76.412 30.7513 76.412 30.6652ZM78.3362 29.6966C78.4438 29.9377 78.6009 30.1379 78.8075 30.2971C79.0141 30.4564 79.2466 30.536 79.5049 30.536C79.6684 30.536 79.7782 30.4908 79.8342 30.4004C79.8944 30.3101 79.9246 30.1702 79.9246 29.9808C79.9246 29.6794 79.8729 29.4147 79.7696 29.1866C79.6706 28.9584 79.507 28.8443 79.2789 28.8443C79.1024 28.8443 78.9431 28.9089 78.8011 29.038C78.6633 29.1629 78.5083 29.3824 78.3362 29.6966ZM81.023 26.3326L81.546 26.268L81.5524 31.0074L81.0617 31.0461L81.023 26.3326Z" fill="#E4E2E6"/>
<path d="M38.576 1.10706C39.8322 0.770881 41.0818 0.404145 42.3399 0.0753784C42.5115 1.06909 42.7164 2.06002 42.847 3.05928C40.3831 3.63531 37.9145 4.19283 35.4497 4.76516C36.7917 7.03874 38.127 9.3188 39.5129 11.5683C39.8999 12.2119 40.7015 12.4898 41.4325 12.524C42.7507 12.5213 44.0994 12.5972 45.3776 12.224C45.39 10.4718 45.3995 8.71869 45.3948 6.9665C46.3088 6.9591 47.2248 6.94798 48.1389 6.97206C48.136 8.56218 48.1417 10.1532 48.136 11.7433C48.1379 11.873 48.1313 12.0073 48.178 12.1323C48.4868 12.3601 48.8909 12.3888 49.2607 12.4518C49.8545 12.5574 50.4607 12.524 51.0612 12.5166C52.1507 12.4527 53.2458 12.3083 54.2714 11.9304C54.2733 10.9136 54.0684 9.91151 53.9683 8.90206C53.8701 7.95095 53.6967 7.0054 53.6643 6.04874C54.3172 5.89593 54.9787 5.77739 55.6354 5.64125C55.9909 5.56809 56.3426 5.46159 56.7096 5.46251C56.7296 5.88759 56.7344 6.31268 56.7601 6.73776C56.8764 7.5342 56.7744 8.34455 56.8945 9.14099C56.9259 10.0078 56.925 10.8756 56.9212 11.7433C56.8516 12.7852 56.1749 13.7095 55.3046 14.2855C54.0093 15.1597 52.4109 15.4357 50.8716 15.5718C50.2349 15.5718 49.5877 15.633 48.9672 15.4616C48.2962 15.269 47.5622 15.1958 46.9932 14.7661C46.8645 14.6958 46.834 14.5485 46.7807 14.429C46.57 14.4957 46.3737 14.5948 46.1764 14.6911C45.3195 15.106 44.3816 15.344 43.438 15.4839C42.4848 15.532 41.5279 15.5339 40.5747 15.4903C39.5263 15.3348 38.534 14.8893 37.701 14.254C37.0929 14.6402 36.44 14.9736 35.7289 15.1403C33.8913 15.6098 31.9773 15.5228 30.0949 15.5042C28.8034 15.4255 27.4337 14.9088 26.7084 13.8141C26.0183 12.7954 25.8953 11.5377 25.9296 10.3496C25.8438 9.58089 25.8944 8.80482 25.7838 8.03801C25.76 6.7711 25.7543 5.50326 25.7342 4.23543C25.6475 3.30933 25.6761 2.37674 25.6589 1.44786C26.7074 1.38767 27.7416 1.16447 28.79 1.12928C28.7843 4.74664 28.7967 8.36306 28.7976 11.9804C30.1559 12.7046 31.7514 12.5027 33.2374 12.5157C34.3488 12.4592 35.4697 12.4101 36.5515 12.1305C36.5296 11.9591 36.4972 11.7869 36.3885 11.6461C35.2838 9.93837 34.1858 8.22693 33.0773 6.52105C32.86 6.16172 32.5978 5.82369 32.4186 5.44492C32.5197 4.50955 32.7341 3.58716 32.8399 2.6518C34.7662 2.19152 36.6611 1.61456 38.576 1.10706Z" fill="white"/>
<path d="M58.8171 1.43119C59.8427 1.39229 60.852 1.17558 61.8757 1.1265C61.869 5.72923 61.8919 10.3329 61.8795 14.9365C60.9617 14.9476 60.0438 14.9245 59.1268 14.9486C59.0096 14.6633 59.0525 14.3531 59.0458 14.054C59.0325 12.8806 59.0153 11.7072 59.0029 10.5338C58.8867 9.08727 58.9458 7.63144 58.9019 6.18116C58.7971 5.44491 58.8514 4.70033 58.8276 3.95945C58.8237 3.11669 58.7866 2.27394 58.8171 1.43119Z" fill="white"/>
<path d="M79.2259 1.44417C80.2591 1.3886 81.278 1.17375 82.3102 1.13578C82.2816 5.73758 82.3245 10.3394 82.3017 14.9412C81.3742 14.9338 80.4468 14.944 79.5204 14.9356C79.5166 14.0855 79.4985 13.2362 79.4965 12.3861C79.3745 11.0321 79.4298 9.66795 79.3974 8.30936C79.2602 6.77111 79.385 5.21989 79.244 3.68256C79.2421 2.93612 79.222 2.18968 79.2259 1.44417Z" fill="white"/>
<path d="M8.8379 2.68791C9.6719 2.599 10.5126 2.6592 11.3485 2.60271C11.3351 3.53622 11.5067 4.45769 11.4562 5.39213C9.04569 5.40231 6.63423 5.37824 4.22372 5.40139C4.06836 5.06336 4.16177 4.68644 4.13889 4.32989C4.15796 3.78812 4.09314 3.24079 4.17797 2.70365C5.7316 2.69624 7.28523 2.69254 8.8379 2.68791Z" fill="white"/>
<path d="M50.1615 2.6268C51.2738 2.61753 52.3861 2.61753 53.4985 2.60735C53.5023 3.50752 53.4966 4.40862 53.5023 5.30971C52.3861 5.30879 51.271 5.31342 50.1548 5.30601C50.1644 4.41232 50.152 3.51956 50.1615 2.6268Z" fill="white"/>
<path d="M14.6949 7.18321C15.7072 6.93409 16.728 6.72387 17.7422 6.48586C17.7536 6.75535 17.7545 7.02577 17.7765 7.29527C17.8889 8.06116 17.8022 8.84093 17.9166 9.60775C17.9404 10.6885 17.9614 11.7702 17.9347 12.851C17.8575 13.5733 17.6383 14.3272 17.0959 14.8532C16.4478 15.532 15.5194 15.8515 14.6282 16.1053C13.2729 16.4618 11.886 16.6998 10.4887 16.8286C8.93223 16.9767 7.34047 17.0555 5.79924 16.735C4.69454 16.5128 3.61844 15.9358 2.99317 15.0014C2.49754 14.2475 2.37553 13.3436 2.2135 12.4824C2.20111 11.5748 2.13344 10.6533 2.30119 9.75685C2.31549 9.53273 2.31644 9.30769 2.3355 9.0845C3.22098 9.09006 4.10835 9.06042 4.99383 9.09932C4.97476 10.2523 4.69168 11.4498 5.12822 12.5666C5.33696 13.1177 5.87453 13.4668 6.42926 13.6418C7.17462 13.8724 7.96288 13.9354 8.7416 13.9206C10.0817 13.9428 11.4133 13.7937 12.741 13.6326C13.6293 13.5094 14.5177 13.3751 15.3822 13.1371C15.2421 11.3377 14.9733 9.54848 14.7855 7.75184C14.7712 7.56014 14.7274 7.37214 14.6949 7.18321Z" fill="white"/>
<path d="M74.258 7.08505C75.1377 6.91187 76.0203 6.74239 76.8944 6.54142C77.0107 6.53309 77.2623 6.40807 77.2937 6.5868C77.3452 7.09894 77.2985 7.61663 77.3757 8.12691C77.4377 8.83538 77.3843 9.55033 77.4872 10.256C77.5044 11.1219 77.5206 11.9888 77.5044 12.8547C77.3967 14.0558 76.4979 15.043 75.4466 15.6061C73.9177 16.4257 72.1296 16.6387 70.4082 16.6109C69.7525 16.6387 69.1396 16.3803 68.5115 16.2442C68.2951 16.1979 68.0988 16.0979 67.8986 16.0127C67.5021 16.7526 67.0312 17.4574 66.4136 18.0427C65.4852 19.0614 64.189 19.7828 62.7878 19.931C61.9433 19.9829 61.0893 19.943 60.2725 19.7162C60.2734 18.8753 60.2734 18.0344 60.2715 17.1944C60.261 17.0592 60.3039 16.9323 60.3487 16.8073C61.4162 16.7813 62.5343 16.9471 63.5484 16.5331C64.7027 16.0831 65.7302 15.106 65.9189 13.8724C66.0485 13.3362 65.8855 12.7972 65.8665 12.2592C65.5872 10.758 65.3403 9.25213 65.0534 7.75184C65.0325 7.6296 65.0201 7.50642 65.0153 7.38325C65.9437 7.20359 66.8587 6.9628 67.7804 6.75258C67.8738 6.72664 67.9691 6.72201 68.0663 6.73683C68.2055 8.5631 68.459 10.3792 68.643 12.2018C68.6811 12.575 68.5324 13.0362 68.8889 13.3066C69.232 13.6696 69.7706 13.5353 70.2195 13.5594C71.7836 13.5854 73.3906 13.5381 74.8651 12.9704C74.8813 12.1869 74.6936 11.4183 74.644 10.6385C74.5525 9.98745 74.4905 9.3327 74.4105 8.67979C74.3542 8.14821 74.2313 7.62311 74.258 7.08505Z" fill="white"/>
<path d="M22.3763 7.00541C22.8224 6.91279 23.258 6.72665 23.7222 6.76369C23.8556 9.191 24.1549 11.6183 24.0282 14.0549C23.8575 15.7052 23.1036 17.3175 21.8331 18.44C20.7207 19.4291 19.2167 20.0199 17.7012 19.9468C17.1026 19.9773 16.5174 19.8532 15.9378 19.7273C15.9197 18.7549 15.9159 17.7815 15.9407 16.8091C16.7194 16.8054 17.5001 16.8369 18.2778 16.7832C19.1852 16.6424 20.0507 16.2136 20.6712 15.5496C21.1096 15.1088 21.4451 14.58 21.7158 14.029C21.793 13.8984 21.7587 13.7456 21.7425 13.6067C21.3946 11.6859 21.0572 9.76426 20.7074 7.84353C20.6778 7.68887 20.6826 7.53143 20.6998 7.37585C21.2707 7.31287 21.8178 7.12672 22.3763 7.00541Z" fill="white"/>
<path d="M76.4188 18.7132C76.7724 18.691 77.1222 18.6058 77.4796 18.6419C77.5025 19.6402 77.5311 20.6376 77.5292 21.6369C74.9519 21.6286 72.3736 21.6471 69.7973 21.6239C69.8097 20.6636 69.7992 19.7023 69.803 18.7419C72.0076 18.7271 74.2132 18.7243 76.4188 18.7132Z" fill="white"/>
<path d="M39.1775 18.7363C41.2963 18.7363 43.4142 18.7169 45.533 18.7169C45.9543 18.7252 46.367 18.6122 46.7902 18.6308C46.7912 19.6374 46.9675 20.6321 46.9246 21.6397C44.3406 21.6313 41.7557 21.6378 39.1717 21.6332C39.1794 20.6673 39.1698 19.7023 39.1775 18.7363Z" fill="white"/>
<path d="M92.8377 0.00349199C107.528 -0.00348359 122.219 0.0024956 136.909 0.000502579C136.929 10.421 136.91 20.8425 136.919 31.264C136.918 31.5202 136.914 31.7773 136.909 32.0344C122.218 32.0324 107.528 32.0383 92.8377 32.0314C92.8357 21.3557 92.8357 10.6791 92.8377 0.00349199ZM97.2609 4.28151C97.2537 12.1051 97.2547 19.9297 97.2609 27.7533C102.823 27.7573 108.386 27.7573 113.949 27.7533C113.733 27.0199 113.48 26.2964 113.216 25.5799C113.199 25.3089 113.458 25.1206 113.708 25.0677C114.951 24.7329 116.153 24.2715 117.402 23.9516C119.073 23.4454 120.74 22.9272 122.408 22.413C123.762 22.0633 125.067 21.56 126.419 21.2033C127.576 20.8734 128.712 20.4838 129.868 20.1549C130.734 19.9128 131.57 19.5042 132.489 19.4933C132.491 14.422 132.5 9.34977 132.483 4.27852C130.816 4.27055 129.148 4.29746 127.481 4.26457C127.796 4.63528 127.89 5.11759 128.054 5.55904C128.136 5.81116 128.246 6.11609 128.062 6.35326C124.087 7.56602 120.114 8.78774 116.127 9.96462C114.229 10.5815 112.311 11.1345 110.398 11.7055C109.862 11.843 109.327 12.1928 108.763 11.9586C108.683 11.5321 108.553 11.1196 108.398 10.715C108.318 10.4579 108.243 10.0404 108.588 9.93671C110.383 9.3129 112.237 8.86048 114.036 8.24563C115.193 7.91579 116.347 7.57997 117.487 7.20129C118.656 6.89038 119.787 6.46188 120.961 6.16791C123.014 5.5132 125.087 4.91928 127.147 4.28351C117.185 4.27553 107.223 4.27852 97.2609 4.28151ZM130.5 23.8659C128.276 24.6054 126.006 25.2043 123.777 25.9307C121.781 26.4918 119.812 27.1345 117.835 27.7503C122.718 27.7633 127.6 27.7513 132.484 27.7563C132.496 26.2626 132.5 24.7678 132.481 23.273C131.824 23.4803 131.162 23.6726 130.5 23.8659Z" fill="#B5C4FF"/>
<path d="M128.51 9.47334C128.782 9.38964 129.168 9.30294 129.337 9.60289C129.548 10.0284 129.626 10.5017 129.804 10.9402C129.895 11.2541 130.071 11.6567 129.813 11.9367C128.828 12.3762 127.751 12.5745 126.742 12.9502C126.323 13.1066 125.87 13.1435 125.451 13.296C123.354 14.0005 121.218 14.5914 119.095 15.2222C117.097 15.857 115.072 16.413 113.084 17.0757C112.401 17.2461 111.747 17.5281 111.047 17.6278C110.782 17.6706 110.595 17.4355 110.541 17.2142C110.373 16.6432 110.101 16.1021 110.008 15.5122C109.965 15.3298 110.031 15.0837 110.245 15.0399C112.478 14.3144 114.743 13.6856 116.983 12.9781C117.972 12.6582 118.975 12.3812 119.97 12.0752C122.034 11.3847 124.154 10.8605 126.211 10.146C126.976 9.91978 127.74 9.6866 128.51 9.47334Z" fill="#B5C4FF"/>
<path d="M130.127 14.5237C130.388 14.4519 130.706 14.3373 130.948 14.5227C131.154 14.9542 131.223 15.4335 131.4 15.8769C131.567 16.4439 131.939 17.0299 131.695 17.6298C130.663 17.856 129.67 18.2217 128.654 18.4987C126.485 19.1594 124.326 19.845 122.146 20.4688C121.2 20.8186 120.207 21.0219 119.254 21.3518C117.595 21.8361 115.96 22.3961 114.29 22.8485C113.794 22.987 113.319 23.2013 112.809 23.285C112.418 23.2102 112.346 22.7588 112.229 22.4549C112.077 21.7912 111.72 21.1823 111.655 20.5007C111.633 20.1759 111.988 20.0284 112.26 19.9676C114.658 19.2252 117.064 18.5107 119.462 17.7703C120.306 17.4554 121.199 17.29 122.048 16.987C122.915 16.7319 123.763 16.419 124.642 16.1988C126.479 15.6677 128.29 15.0568 130.127 14.5237Z" fill="#B5C4FF"/>
</svg>
