<svg width="146" height="59" viewBox="0 0 146 59" fill="none" xmlns="http://www.w3.org/2000/svg">
<g id="Group 108">
<g id="#148070ff">
<g id="Vector">
<path d="M103.428 0.740542C106.421 -0.198652 109.587 0.0338376 112.675 0.00766332C117.5 -3.49837e-05 122.326 0.0230596 127.15 0.0169009C132.167 -0.0385269 137.184 2.08005 140.602 5.7583C143.758 9.04702 145.584 13.5736 145.592 18.1326C145.63 23.5214 145.584 28.9117 145.601 34.3005C145.578 36.1497 145.69 38.0096 145.399 39.8433C144.716 44.2021 142.441 48.313 139.03 51.1244C135.993 53.7188 132.056 55.203 128.073 55.3616C125.961 55.4232 123.847 55.3739 121.733 55.3893C121.788 55.7296 121.841 56.0714 121.896 56.4147C120.347 57.5248 118.48 58.3886 116.527 58.1715C115.627 58.0375 114.635 57.9097 113.959 57.2323C113.948 56.601 114.122 55.9913 114.292 55.3908C110.586 55.3015 106.766 55.7588 103.18 54.5779C97.6881 52.9412 93.1215 48.5409 91.2616 43.1243C90.5395 41.0905 90.2254 38.9241 90.2392 36.7686C90.2362 30.6639 90.2346 24.5576 90.2392 18.4528C90.2469 15.8431 90.7612 13.2241 91.8436 10.8438C93.9791 5.99695 98.3271 2.18782 103.428 0.740542ZM107.503 4.63742C107.114 5.0285 106.723 5.43497 106.495 5.9446C105.904 7.18403 105.998 8.63131 106.392 9.91385C105.839 9.91231 105.288 9.91077 104.737 9.90769C104.253 8.26795 104.321 6.42651 105.179 4.91918C102.259 5.71365 99.5696 7.4042 97.7097 9.80453C95.9021 12.0863 94.8505 14.9547 94.7705 17.8662C94.7381 19.9694 94.752 22.0726 94.752 24.1773C95.2447 23.0318 96.093 21.9986 97.257 21.4998C98.8444 20.8393 100.972 21.4983 101.688 23.1195C102.389 24.7762 100.889 26.8101 99.1231 26.7423C98.364 26.7285 97.7436 26.2296 97.237 25.7154C97.548 25.3028 97.8559 24.8886 98.1623 24.4713C98.5472 24.8655 99.1893 25.0564 99.6466 24.6653C100.215 24.2404 99.7913 23.3459 99.2062 23.175C97.9714 22.8147 96.6673 23.8416 96.4949 25.0641C96.2254 26.533 97.6527 28.0126 99.1308 27.8047C100.225 27.6461 101.186 26.9594 101.862 26.1065C102.492 25.3212 102.687 24.3081 102.937 23.3597C103.462 23.5891 103.982 23.8278 104.503 24.0695C104.353 24.8871 104.118 25.6969 103.727 26.4344C102.832 28.1404 101.182 29.2612 100.127 30.8502C99.4018 32.0126 98.946 33.406 99.157 34.784C99.2601 35.5215 99.662 36.1635 100.038 36.7902C100.595 37.6555 101.386 38.4191 102.384 38.7409C104.149 39.3352 106.201 38.7625 107.474 37.423C107.981 36.8579 108.329 36.1389 108.42 35.3845C108.595 33.6893 107.479 31.9695 105.879 31.406C104.346 30.8317 102.338 31.6523 101.814 33.2443C101.406 34.456 102.426 35.7417 103.624 35.9156C104.27 36.0327 105.102 35.8294 105.369 35.1658C105.539 34.7332 105.075 34.3406 104.669 34.3591C104.204 34.3868 103.779 34.6039 103.353 34.7701C103.122 34.2544 102.872 33.7493 102.623 33.2428C103.442 32.8132 104.359 32.4191 105.306 32.5977C106.734 32.8132 107.627 34.5746 107.014 35.8695C106.418 37.1335 104.969 37.8556 103.6 37.7586C101.45 37.6709 99.682 35.5215 100.008 33.3937C100.252 31.2828 102.118 29.6061 104.199 29.3936C106.923 29.018 109.602 31.1627 110.064 33.8263C110.587 36.182 109.342 38.8549 107.08 39.7956C108.332 39.7956 109.567 40.0589 110.771 40.3838C112.798 40.9981 114.375 42.5008 115.73 44.0666C115.838 42.0989 115.391 40.1051 114.472 38.3637C113.758 37.0057 112.549 35.8648 111.035 35.4784C111.35 35.0165 111.653 34.55 111.948 34.0758C113.622 34.6685 115.177 35.7555 116.049 37.3337C116.293 35.2089 116.606 33.0919 116.926 30.9764C115.716 32.1158 114.039 32.8009 112.367 32.6223C109.793 32.3313 107.579 30.205 107.095 27.6754C106.749 25.9602 107.168 24.1865 107.907 22.6314C108.416 21.3458 109.353 20.2465 109.668 18.8839C109.913 17.3566 109.305 15.6907 108.101 14.7084C107.262 14.0509 106.196 13.6521 105.123 13.7199C103.117 13.7907 101.326 15.6691 101.457 17.6922C101.567 19.3304 103.231 20.6376 104.848 20.4066C105.993 20.2927 107.063 19.3258 107.108 18.1433C107.163 17.5459 106.794 16.9763 106.298 16.673C105.594 16.2403 104.609 16.4913 104.109 17.1148C103.939 17.3196 104.121 17.5229 104.213 17.7122C104.567 17.5583 104.92 17.4012 105.265 17.2257C105.57 17.7908 105.881 18.3527 106.167 18.9286C105.536 19.3104 104.809 19.6768 104.048 19.526C102.844 19.3504 102.076 18.0386 102.252 16.8854C102.336 16.0863 102.925 15.4412 103.599 15.0563C104.6 14.4343 105.955 14.288 106.994 14.9008C108.792 15.8277 109.537 18.3004 108.578 20.0772C107.493 22.0063 104.943 23.0117 102.848 22.265C100.84 21.4952 99.488 19.352 99.568 17.2165C99.6096 15.1687 100.998 13.298 102.824 12.4435C105.314 11.2626 108.57 12.0694 110.189 14.308C111.388 16.0309 111.716 18.3497 111.011 20.3297C110.449 21.6753 109.633 22.907 109.163 24.2927C108.669 25.7 108.76 27.3089 109.397 28.6546C109.699 29.3505 110.364 29.7632 110.977 30.1558C111.825 30.6808 112.869 31.001 113.859 30.7224C115.787 30.1896 117.023 27.9109 116.392 26.0064C115.927 24.7577 114.43 24.0125 113.152 24.3589C112.33 24.6484 111.544 25.369 111.56 26.302C111.594 27.1719 112.3 27.8678 113.085 28.1481C113.331 27.9725 113.536 27.7508 113.641 27.4629C113.242 27.0256 112.72 26.7239 112.316 26.2974C112.635 25.7831 113.023 25.3166 113.354 24.8116C114.239 25.3659 115.337 25.8986 115.651 26.9841C116.001 28.1265 115.156 29.3028 114.115 29.717C112.392 30.3328 110.316 29.1596 109.888 27.3967C109.363 25.4444 110.6 23.235 112.506 22.5976C114.086 22.0572 115.872 22.499 117.168 23.5029C118.176 24.4021 118.686 25.7354 118.852 27.0518C119.14 29.2027 118.849 31.3736 118.606 33.5138C118.407 35.3136 118.232 37.1166 118.079 38.9211C117.935 40.7948 118.163 42.6701 118.429 44.5224C118.815 43.7633 119.091 42.9504 119.525 42.2144C120.333 40.7317 121.582 39.5616 122.822 38.4422C124.595 36.8102 126.304 35.0319 127.407 32.864C128.095 31.5661 128.618 30.088 128.377 28.5992C128.121 27.426 127.324 26.3405 126.206 25.8647C124.383 25.2042 122.238 26.4698 121.738 28.2959C121.484 29.2936 121.884 30.4129 122.683 31.0503C123.65 31.8248 125.279 31.4075 125.788 30.2913C126.07 29.6246 125.97 28.6946 125.311 28.2866C125.048 28.0772 124.509 28.2235 124.549 28.6069C124.725 29.0133 125.005 29.3613 125.262 29.7185C124.778 30.088 124.3 30.4637 123.821 30.8394C123.347 30.2836 122.772 29.7062 122.765 28.924C122.758 27.3397 124.711 26.145 126.113 26.8886C127.374 27.5861 127.913 29.2535 127.49 30.5992C126.936 32.5499 124.657 33.8956 122.701 33.1935C120.614 32.356 119.26 29.9094 119.782 27.7C120.43 25.2874 122.952 23.489 125.457 23.8185C127.017 23.9463 128.378 24.9656 129.193 26.2635C130.335 27.9002 130.481 30.0788 129.878 31.9449C129.103 34.3729 127.565 36.4499 126.044 38.4576C129.003 37.5338 132.104 37.2321 135.142 36.6624C134.324 36.3298 133.519 35.9387 132.842 35.366C131.796 34.5099 131.163 33.1997 131.066 31.8586C130.922 30.1712 131.541 28.4468 132.694 27.2104C134.272 25.5414 137.025 25.1041 139.003 26.3066C140.118 26.9764 140.883 28.1404 141.14 29.4075C141.054 25.5491 141.097 21.6892 141.07 17.8292C140.957 14.6391 139.715 11.4766 137.542 9.12554C135.984 7.33491 133.907 6.06007 131.696 5.23943C131.933 6.60665 131.847 8.04778 131.271 9.32416C130.404 11.4181 128.36 12.8762 126.158 13.2688C125.912 12.7206 125.656 12.1787 125.391 11.6398C126.058 11.4473 126.737 11.2795 127.36 10.9685C129.573 9.87535 130.483 6.9192 129.491 4.70363C129.17 4.65898 128.849 4.60971 128.532 4.56044C128.94 5.27638 129.299 6.06623 129.251 6.91151C129.216 8.67596 127.862 10.231 126.212 10.7483C124.101 11.435 121.61 10.2202 120.803 8.16633C120.326 7.00235 120.43 5.71519 120.729 4.52349C118.88 4.51887 117.032 4.53119 115.183 4.51425C115.605 5.51041 115.85 6.60203 115.699 7.68596C115.525 9.50891 114.31 11.1933 112.624 11.9123C110.869 12.7006 108.663 12.037 107.522 10.5205C106.646 9.3919 106.401 7.76294 107.034 6.46193C107.47 5.54737 108.306 4.88069 109.237 4.51579C108.657 4.51579 108.072 4.50809 107.503 4.63742ZM111.576 4.50348C112.594 4.97769 113.49 6.03082 113.282 7.21944C113.174 8.72061 111.43 9.81069 110.038 9.24409C109.474 9.02238 109.276 8.40652 109.103 7.88149C109.622 7.61513 110.139 7.34415 110.649 7.05623C110.84 7.26255 111.032 7.46732 111.231 7.66902C111.745 7.25793 111.434 6.46193 110.886 6.25253C109.907 5.72289 108.597 6.46346 108.429 7.53353C108.23 8.95772 109.544 10.3911 110.986 10.2895C112.55 10.1725 113.904 8.77142 113.944 7.19942C114.033 6.20172 113.57 5.23943 112.903 4.52503C112.46 4.52349 112.016 4.51579 111.576 4.50348ZM122.882 4.52811C122.588 5.24713 122.39 6.04622 122.589 6.81913C122.942 8.328 124.748 9.25795 126.187 8.71445C127.211 8.36033 127.745 7.01004 127.207 6.06315C126.908 5.59202 126.38 5.16707 125.792 5.24867C125.436 5.3195 125.205 5.64436 125.222 6.00157C125.582 6.02466 125.944 6.0416 126.307 6.05699C126.324 6.68056 126.34 7.30412 126.363 7.92768C125.454 8.14016 124.307 8.06625 123.73 7.23329C123.134 6.42959 123.384 5.36415 123.731 4.51425C123.445 4.51887 123.163 4.52503 122.882 4.52811ZM94.7274 26.4236C94.752 29.9756 94.7443 33.5261 94.7535 37.0781C94.7812 38.7733 95.0861 40.4669 95.6989 42.0512C97.5619 47.0351 102.581 50.6841 107.91 50.8442C110.223 50.8781 112.537 50.8735 114.849 50.8781C115.294 48.1129 114.341 44.9673 111.933 43.3707C109.885 42.1097 107.393 42.2159 105.122 41.6755C103.391 41.2968 101.71 40.6455 100.23 39.6617C98.6674 38.5777 97.4202 36.8795 97.2878 34.9349C97.12 33.0365 97.8344 31.1889 98.8444 29.6154C96.9552 29.5799 95.2801 28.2035 94.7274 26.4236ZM132.997 32.0034C133.354 33.8972 135.27 35.2274 137.148 35.2074C138.612 35.212 140.015 34.3883 140.806 33.172C141.197 32.6269 141.057 31.9218 141.12 31.2967C140.683 33.2289 138.671 34.6008 136.717 34.3483C135.541 34.2528 134.44 33.4968 133.958 32.4145C133.542 31.563 133.692 30.5407 134.11 29.7201C134.74 28.4668 136.645 28.0203 137.709 28.9749C138.115 29.349 138.3 29.8833 138.494 30.3852C138.033 30.7331 137.567 31.0719 137.088 31.3906C136.796 30.9841 136.44 30.2528 135.826 30.5284C135.257 31.0673 135.812 31.8771 136.321 32.2251C137.316 32.9718 138.873 32.2436 139.123 31.0796C139.592 29.3659 138.046 27.4229 136.254 27.5969C134.152 27.7216 132.546 29.971 132.997 32.0034ZM131.932 39.2198C129.156 39.7725 126.187 40.082 123.795 41.7294C122.991 42.236 122.278 42.9242 121.861 43.7864C120.8 45.9712 120.537 48.4777 120.842 50.8688C122.997 50.8596 125.151 50.8704 127.307 50.8642C130.663 50.875 134.004 49.594 136.494 47.343C138.819 45.2722 140.395 42.3868 140.9 39.3152C141.11 38.102 141.083 36.8672 141.09 35.6416C138.606 37.9434 135.148 38.6101 131.932 39.2198Z" fill="#148070"/>
<path d="M103.428 0.740542C106.421 -0.198652 109.587 0.0338376 112.675 0.00766332C117.5 -3.49837e-05 122.326 0.0230596 127.15 0.0169009C132.167 -0.0385269 137.184 2.08005 140.602 5.7583C143.758 9.04702 145.584 13.5736 145.592 18.1326C145.63 23.5214 145.584 28.9117 145.601 34.3005C145.578 36.1497 145.69 38.0096 145.399 39.8433C144.716 44.2021 142.441 48.313 139.03 51.1244C135.993 53.7188 132.056 55.203 128.073 55.3616C125.961 55.4232 123.847 55.3739 121.733 55.3893C121.788 55.7296 121.841 56.0714 121.896 56.4147C120.347 57.5248 118.48 58.3886 116.527 58.1715C115.627 58.0375 114.635 57.9097 113.959 57.2323C113.948 56.601 114.122 55.9913 114.292 55.3908C110.586 55.3015 106.766 55.7588 103.18 54.5779C97.6881 52.9412 93.1215 48.5409 91.2616 43.1243C90.5395 41.0905 90.2254 38.9241 90.2392 36.7686C90.2362 30.6639 90.2346 24.5576 90.2392 18.4528C90.2469 15.8431 90.7612 13.2241 91.8436 10.8438C93.9791 5.99695 98.3271 2.18782 103.428 0.740542ZM107.503 4.63742C107.114 5.0285 106.723 5.43497 106.495 5.9446C105.904 7.18403 105.998 8.63131 106.392 9.91385C105.839 9.91231 105.288 9.91077 104.737 9.90769C104.253 8.26795 104.321 6.42651 105.179 4.91918C102.259 5.71365 99.5696 7.4042 97.7097 9.80453C95.9021 12.0863 94.8505 14.9547 94.7705 17.8662C94.7381 19.9694 94.752 22.0726 94.752 24.1773C95.2447 23.0318 96.093 21.9986 97.257 21.4998C98.8444 20.8393 100.972 21.4983 101.688 23.1195C102.389 24.7762 100.889 26.8101 99.1231 26.7423C98.364 26.7285 97.7436 26.2296 97.237 25.7154C97.548 25.3028 97.8559 24.8886 98.1623 24.4713C98.5472 24.8655 99.1893 25.0564 99.6466 24.6653C100.215 24.2404 99.7913 23.3459 99.2062 23.175C97.9714 22.8147 96.6673 23.8416 96.4949 25.0641C96.2254 26.533 97.6527 28.0126 99.1308 27.8047C100.225 27.6461 101.186 26.9594 101.862 26.1065C102.492 25.3212 102.687 24.3081 102.937 23.3597C103.462 23.5891 103.982 23.8278 104.503 24.0695C104.353 24.8871 104.118 25.6969 103.727 26.4344C102.832 28.1404 101.182 29.2612 100.127 30.8502C99.4018 32.0126 98.946 33.406 99.157 34.784C99.2601 35.5215 99.662 36.1635 100.038 36.7902C100.595 37.6555 101.386 38.4191 102.384 38.7409C104.149 39.3352 106.201 38.7625 107.474 37.423C107.981 36.8579 108.329 36.1389 108.42 35.3845C108.595 33.6893 107.479 31.9695 105.879 31.406C104.346 30.8317 102.338 31.6523 101.814 33.2443C101.406 34.456 102.426 35.7417 103.624 35.9156C104.27 36.0327 105.102 35.8294 105.369 35.1658C105.539 34.7332 105.075 34.3406 104.669 34.3591C104.204 34.3868 103.779 34.6039 103.353 34.7701C103.122 34.2544 102.872 33.7493 102.623 33.2428C103.442 32.8132 104.359 32.4191 105.306 32.5977C106.734 32.8132 107.627 34.5746 107.014 35.8695C106.418 37.1335 104.969 37.8556 103.6 37.7586C101.45 37.6709 99.682 35.5215 100.008 33.3937C100.252 31.2828 102.118 29.6061 104.199 29.3936C106.923 29.018 109.602 31.1627 110.064 33.8263C110.587 36.182 109.342 38.8549 107.08 39.7956C108.332 39.7956 109.567 40.0589 110.771 40.3838C112.798 40.9981 114.375 42.5008 115.73 44.0666C115.838 42.0989 115.391 40.1051 114.472 38.3637C113.758 37.0057 112.549 35.8648 111.035 35.4784C111.35 35.0165 111.653 34.55 111.948 34.0758C113.622 34.6685 115.177 35.7555 116.049 37.3337C116.293 35.2089 116.606 33.0919 116.926 30.9764C115.716 32.1158 114.039 32.8009 112.367 32.6223C109.793 32.3313 107.579 30.205 107.095 27.6754C106.749 25.9602 107.168 24.1865 107.907 22.6314C108.416 21.3458 109.353 20.2465 109.668 18.8839C109.913 17.3566 109.305 15.6907 108.101 14.7084C107.262 14.0509 106.196 13.6521 105.123 13.7199C103.117 13.7907 101.326 15.6691 101.457 17.6922C101.567 19.3304 103.231 20.6376 104.848 20.4066C105.993 20.2927 107.063 19.3258 107.108 18.1433C107.163 17.5459 106.794 16.9763 106.298 16.673C105.594 16.2403 104.609 16.4913 104.109 17.1148C103.939 17.3196 104.121 17.5229 104.213 17.7122C104.567 17.5583 104.92 17.4012 105.265 17.2257C105.57 17.7908 105.881 18.3527 106.167 18.9286C105.536 19.3104 104.809 19.6768 104.048 19.526C102.844 19.3504 102.076 18.0386 102.252 16.8854C102.336 16.0863 102.925 15.4412 103.599 15.0563C104.6 14.4343 105.955 14.288 106.994 14.9008C108.792 15.8277 109.537 18.3004 108.578 20.0772C107.493 22.0063 104.943 23.0117 102.848 22.265C100.84 21.4952 99.488 19.352 99.568 17.2165C99.6096 15.1687 100.998 13.298 102.824 12.4435C105.314 11.2626 108.57 12.0694 110.189 14.308C111.388 16.0309 111.716 18.3497 111.011 20.3297C110.449 21.6753 109.633 22.907 109.163 24.2927C108.669 25.7 108.76 27.3089 109.397 28.6546C109.699 29.3505 110.364 29.7632 110.977 30.1558C111.825 30.6808 112.869 31.001 113.859 30.7224C115.787 30.1896 117.023 27.9109 116.392 26.0064C115.927 24.7577 114.43 24.0125 113.152 24.3589C112.33 24.6484 111.544 25.369 111.56 26.302C111.594 27.1719 112.3 27.8678 113.085 28.1481C113.331 27.9725 113.536 27.7508 113.641 27.4629C113.242 27.0256 112.72 26.7239 112.316 26.2974C112.635 25.7831 113.023 25.3166 113.354 24.8116C114.239 25.3659 115.337 25.8986 115.651 26.9841C116.001 28.1265 115.156 29.3028 114.115 29.717C112.392 30.3328 110.316 29.1596 109.888 27.3967C109.363 25.4444 110.6 23.235 112.506 22.5976C114.086 22.0572 115.872 22.499 117.168 23.5029C118.176 24.4021 118.686 25.7354 118.852 27.0518C119.14 29.2027 118.849 31.3736 118.606 33.5138C118.407 35.3136 118.232 37.1166 118.079 38.9211C117.935 40.7948 118.163 42.6701 118.429 44.5224C118.815 43.7633 119.091 42.9504 119.525 42.2144C120.333 40.7317 121.582 39.5616 122.822 38.4422C124.595 36.8102 126.304 35.0319 127.407 32.864C128.095 31.5661 128.618 30.088 128.377 28.5992C128.121 27.426 127.324 26.3405 126.206 25.8647C124.383 25.2042 122.238 26.4698 121.738 28.2959C121.484 29.2936 121.884 30.4129 122.683 31.0503C123.65 31.8248 125.279 31.4075 125.788 30.2913C126.07 29.6246 125.97 28.6946 125.311 28.2866C125.048 28.0772 124.509 28.2235 124.549 28.6069C124.725 29.0133 125.005 29.3613 125.262 29.7185C124.778 30.088 124.3 30.4637 123.821 30.8394C123.347 30.2836 122.772 29.7062 122.765 28.924C122.758 27.3397 124.711 26.145 126.113 26.8886C127.374 27.5861 127.913 29.2535 127.49 30.5992C126.936 32.5499 124.657 33.8956 122.701 33.1935C120.614 32.356 119.26 29.9094 119.782 27.7C120.43 25.2874 122.952 23.489 125.457 23.8185C127.017 23.9463 128.378 24.9656 129.193 26.2635C130.335 27.9002 130.481 30.0788 129.878 31.9449C129.103 34.3729 127.565 36.4499 126.044 38.4576C129.003 37.5338 132.104 37.2321 135.142 36.6624C134.324 36.3298 133.519 35.9387 132.842 35.366C131.796 34.5099 131.163 33.1997 131.066 31.8586C130.922 30.1712 131.541 28.4468 132.694 27.2104C134.272 25.5414 137.025 25.1041 139.003 26.3066C140.118 26.9764 140.883 28.1404 141.14 29.4075C141.054 25.5491 141.097 21.6892 141.07 17.8292C140.957 14.6391 139.715 11.4766 137.542 9.12554C135.984 7.33491 133.907 6.06007 131.696 5.23943C131.933 6.60665 131.847 8.04778 131.271 9.32416C130.404 11.4181 128.36 12.8762 126.158 13.2688C125.912 12.7206 125.656 12.1787 125.391 11.6398C126.058 11.4473 126.737 11.2795 127.36 10.9685C129.573 9.87535 130.483 6.9192 129.491 4.70363C129.17 4.65898 128.849 4.60971 128.532 4.56044C128.94 5.27638 129.299 6.06623 129.251 6.91151C129.216 8.67596 127.862 10.231 126.212 10.7483C124.101 11.435 121.61 10.2202 120.803 8.16633C120.326 7.00235 120.43 5.71519 120.729 4.52349C118.88 4.51887 117.032 4.53119 115.183 4.51425C115.605 5.51041 115.85 6.60203 115.699 7.68596C115.525 9.50891 114.31 11.1933 112.624 11.9123C110.869 12.7006 108.663 12.037 107.522 10.5205C106.646 9.3919 106.401 7.76294 107.034 6.46193C107.47 5.54737 108.306 4.88069 109.237 4.51579C108.657 4.51579 108.072 4.50809 107.503 4.63742ZM111.576 4.50348C112.594 4.97769 113.49 6.03082 113.282 7.21944C113.174 8.72061 111.43 9.81069 110.038 9.24409C109.474 9.02238 109.276 8.40652 109.103 7.88149C109.622 7.61513 110.139 7.34415 110.649 7.05623C110.84 7.26255 111.032 7.46732 111.231 7.66902C111.745 7.25793 111.434 6.46193 110.886 6.25253C109.907 5.72289 108.597 6.46346 108.429 7.53353C108.23 8.95772 109.544 10.3911 110.986 10.2895C112.55 10.1725 113.904 8.77142 113.944 7.19942C114.033 6.20172 113.57 5.23943 112.903 4.52503C112.46 4.52349 112.016 4.51579 111.576 4.50348ZM122.882 4.52811C122.588 5.24713 122.39 6.04622 122.589 6.81913C122.942 8.328 124.748 9.25795 126.187 8.71445C127.211 8.36033 127.745 7.01004 127.207 6.06315C126.908 5.59202 126.38 5.16707 125.792 5.24867C125.436 5.3195 125.205 5.64436 125.222 6.00157C125.582 6.02466 125.944 6.0416 126.307 6.05699C126.324 6.68056 126.34 7.30412 126.363 7.92768C125.454 8.14016 124.307 8.06625 123.73 7.23329C123.134 6.42959 123.384 5.36415 123.731 4.51425C123.445 4.51887 123.163 4.52503 122.882 4.52811ZM94.7274 26.4236C94.752 29.9756 94.7443 33.5261 94.7535 37.0781C94.7812 38.7733 95.0861 40.4669 95.6989 42.0512C97.5619 47.0351 102.581 50.6841 107.91 50.8442C110.223 50.8781 112.537 50.8735 114.849 50.8781C115.294 48.1129 114.341 44.9673 111.933 43.3707C109.885 42.1097 107.393 42.2159 105.122 41.6755C103.391 41.2968 101.71 40.6455 100.23 39.6617C98.6674 38.5777 97.4202 36.8795 97.2878 34.9349C97.12 33.0365 97.8344 31.1889 98.8444 29.6154C96.9552 29.5799 95.2801 28.2035 94.7274 26.4236ZM132.997 32.0034C133.354 33.8972 135.27 35.2274 137.148 35.2074C138.612 35.212 140.015 34.3883 140.806 33.172C141.197 32.6269 141.057 31.9218 141.12 31.2967C140.683 33.2289 138.671 34.6008 136.717 34.3483C135.541 34.2528 134.44 33.4968 133.958 32.4145C133.542 31.563 133.692 30.5407 134.11 29.7201C134.74 28.4668 136.645 28.0203 137.709 28.9749C138.115 29.349 138.3 29.8833 138.494 30.3852C138.033 30.7331 137.567 31.0719 137.088 31.3906C136.796 30.9841 136.44 30.2528 135.826 30.5284C135.257 31.0673 135.812 31.8771 136.321 32.2251C137.316 32.9718 138.873 32.2436 139.123 31.0796C139.592 29.3659 138.046 27.4229 136.254 27.5969C134.152 27.7216 132.546 29.971 132.997 32.0034ZM131.932 39.2198C129.156 39.7725 126.187 40.082 123.795 41.7294C122.991 42.236 122.278 42.9242 121.861 43.7864C120.8 45.9712 120.537 48.4777 120.842 50.8688C122.997 50.8596 125.151 50.8704 127.307 50.8642C130.663 50.875 134.004 49.594 136.494 47.343C138.819 45.2722 140.395 42.3868 140.9 39.3152C141.11 38.102 141.083 36.8672 141.09 35.6416C138.606 37.9434 135.148 38.6101 131.932 39.2198Z" fill="#01BC9A"/>
<path d="M103.428 0.740542C106.421 -0.198652 109.587 0.0338376 112.675 0.00766332C117.5 -3.49837e-05 122.326 0.0230596 127.15 0.0169009C132.167 -0.0385269 137.184 2.08005 140.602 5.7583C143.758 9.04702 145.584 13.5736 145.592 18.1326C145.63 23.5214 145.584 28.9117 145.601 34.3005C145.578 36.1497 145.69 38.0096 145.399 39.8433C144.716 44.2021 142.441 48.313 139.03 51.1244C135.993 53.7188 132.056 55.203 128.073 55.3616C125.961 55.4232 123.847 55.3739 121.733 55.3893C121.788 55.7296 121.841 56.0714 121.896 56.4147C120.347 57.5248 118.48 58.3886 116.527 58.1715C115.627 58.0375 114.635 57.9097 113.959 57.2323C113.948 56.601 114.122 55.9913 114.292 55.3908C110.586 55.3015 106.766 55.7588 103.18 54.5779C97.6881 52.9412 93.1215 48.5409 91.2616 43.1243C90.5395 41.0905 90.2254 38.9241 90.2392 36.7686C90.2362 30.6639 90.2346 24.5576 90.2392 18.4528C90.2469 15.8431 90.7612 13.2241 91.8436 10.8438C93.9791 5.99695 98.3271 2.18782 103.428 0.740542ZM107.503 4.63742C107.114 5.0285 106.723 5.43497 106.495 5.9446C105.904 7.18403 105.998 8.63131 106.392 9.91385C105.839 9.91231 105.288 9.91077 104.737 9.90769C104.253 8.26795 104.321 6.42651 105.179 4.91918C102.259 5.71365 99.5696 7.4042 97.7097 9.80453C95.9021 12.0863 94.8505 14.9547 94.7705 17.8662C94.7381 19.9694 94.752 22.0726 94.752 24.1773C95.2447 23.0318 96.093 21.9986 97.257 21.4998C98.8444 20.8393 100.972 21.4983 101.688 23.1195C102.389 24.7762 100.889 26.8101 99.1231 26.7423C98.364 26.7285 97.7436 26.2296 97.237 25.7154C97.548 25.3028 97.8559 24.8886 98.1623 24.4713C98.5472 24.8655 99.1893 25.0564 99.6466 24.6653C100.215 24.2404 99.7913 23.3459 99.2062 23.175C97.9714 22.8147 96.6673 23.8416 96.4949 25.0641C96.2254 26.533 97.6527 28.0126 99.1308 27.8047C100.225 27.6461 101.186 26.9594 101.862 26.1065C102.492 25.3212 102.687 24.3081 102.937 23.3597C103.462 23.5891 103.982 23.8278 104.503 24.0695C104.353 24.8871 104.118 25.6969 103.727 26.4344C102.832 28.1404 101.182 29.2612 100.127 30.8502C99.4018 32.0126 98.946 33.406 99.157 34.784C99.2601 35.5215 99.662 36.1635 100.038 36.7902C100.595 37.6555 101.386 38.4191 102.384 38.7409C104.149 39.3352 106.201 38.7625 107.474 37.423C107.981 36.8579 108.329 36.1389 108.42 35.3845C108.595 33.6893 107.479 31.9695 105.879 31.406C104.346 30.8317 102.338 31.6523 101.814 33.2443C101.406 34.456 102.426 35.7417 103.624 35.9156C104.27 36.0327 105.102 35.8294 105.369 35.1658C105.539 34.7332 105.075 34.3406 104.669 34.3591C104.204 34.3868 103.779 34.6039 103.353 34.7701C103.122 34.2544 102.872 33.7493 102.623 33.2428C103.442 32.8132 104.359 32.4191 105.306 32.5977C106.734 32.8132 107.627 34.5746 107.014 35.8695C106.418 37.1335 104.969 37.8556 103.6 37.7586C101.45 37.6709 99.682 35.5215 100.008 33.3937C100.252 31.2828 102.118 29.6061 104.199 29.3936C106.923 29.018 109.602 31.1627 110.064 33.8263C110.587 36.182 109.342 38.8549 107.08 39.7956C108.332 39.7956 109.567 40.0589 110.771 40.3838C112.798 40.9981 114.375 42.5008 115.73 44.0666C115.838 42.0989 115.391 40.1051 114.472 38.3637C113.758 37.0057 112.549 35.8648 111.035 35.4784C111.35 35.0165 111.653 34.55 111.948 34.0758C113.622 34.6685 115.177 35.7555 116.049 37.3337C116.293 35.2089 116.606 33.0919 116.926 30.9764C115.716 32.1158 114.039 32.8009 112.367 32.6223C109.793 32.3313 107.579 30.205 107.095 27.6754C106.749 25.9602 107.168 24.1865 107.907 22.6314C108.416 21.3458 109.353 20.2465 109.668 18.8839C109.913 17.3566 109.305 15.6907 108.101 14.7084C107.262 14.0509 106.196 13.6521 105.123 13.7199C103.117 13.7907 101.326 15.6691 101.457 17.6922C101.567 19.3304 103.231 20.6376 104.848 20.4066C105.993 20.2927 107.063 19.3258 107.108 18.1433C107.163 17.5459 106.794 16.9763 106.298 16.673C105.594 16.2403 104.609 16.4913 104.109 17.1148C103.939 17.3196 104.121 17.5229 104.213 17.7122C104.567 17.5583 104.92 17.4012 105.265 17.2257C105.57 17.7908 105.881 18.3527 106.167 18.9286C105.536 19.3104 104.809 19.6768 104.048 19.526C102.844 19.3504 102.076 18.0386 102.252 16.8854C102.336 16.0863 102.925 15.4412 103.599 15.0563C104.6 14.4343 105.955 14.288 106.994 14.9008C108.792 15.8277 109.537 18.3004 108.578 20.0772C107.493 22.0063 104.943 23.0117 102.848 22.265C100.84 21.4952 99.488 19.352 99.568 17.2165C99.6096 15.1687 100.998 13.298 102.824 12.4435C105.314 11.2626 108.57 12.0694 110.189 14.308C111.388 16.0309 111.716 18.3497 111.011 20.3297C110.449 21.6753 109.633 22.907 109.163 24.2927C108.669 25.7 108.76 27.3089 109.397 28.6546C109.699 29.3505 110.364 29.7632 110.977 30.1558C111.825 30.6808 112.869 31.001 113.859 30.7224C115.787 30.1896 117.023 27.9109 116.392 26.0064C115.927 24.7577 114.43 24.0125 113.152 24.3589C112.33 24.6484 111.544 25.369 111.56 26.302C111.594 27.1719 112.3 27.8678 113.085 28.1481C113.331 27.9725 113.536 27.7508 113.641 27.4629C113.242 27.0256 112.72 26.7239 112.316 26.2974C112.635 25.7831 113.023 25.3166 113.354 24.8116C114.239 25.3659 115.337 25.8986 115.651 26.9841C116.001 28.1265 115.156 29.3028 114.115 29.717C112.392 30.3328 110.316 29.1596 109.888 27.3967C109.363 25.4444 110.6 23.235 112.506 22.5976C114.086 22.0572 115.872 22.499 117.168 23.5029C118.176 24.4021 118.686 25.7354 118.852 27.0518C119.14 29.2027 118.849 31.3736 118.606 33.5138C118.407 35.3136 118.232 37.1166 118.079 38.9211C117.935 40.7948 118.163 42.6701 118.429 44.5224C118.815 43.7633 119.091 42.9504 119.525 42.2144C120.333 40.7317 121.582 39.5616 122.822 38.4422C124.595 36.8102 126.304 35.0319 127.407 32.864C128.095 31.5661 128.618 30.088 128.377 28.5992C128.121 27.426 127.324 26.3405 126.206 25.8647C124.383 25.2042 122.238 26.4698 121.738 28.2959C121.484 29.2936 121.884 30.4129 122.683 31.0503C123.65 31.8248 125.279 31.4075 125.788 30.2913C126.07 29.6246 125.97 28.6946 125.311 28.2866C125.048 28.0772 124.509 28.2235 124.549 28.6069C124.725 29.0133 125.005 29.3613 125.262 29.7185C124.778 30.088 124.3 30.4637 123.821 30.8394C123.347 30.2836 122.772 29.7062 122.765 28.924C122.758 27.3397 124.711 26.145 126.113 26.8886C127.374 27.5861 127.913 29.2535 127.49 30.5992C126.936 32.5499 124.657 33.8956 122.701 33.1935C120.614 32.356 119.26 29.9094 119.782 27.7C120.43 25.2874 122.952 23.489 125.457 23.8185C127.017 23.9463 128.378 24.9656 129.193 26.2635C130.335 27.9002 130.481 30.0788 129.878 31.9449C129.103 34.3729 127.565 36.4499 126.044 38.4576C129.003 37.5338 132.104 37.2321 135.142 36.6624C134.324 36.3298 133.519 35.9387 132.842 35.366C131.796 34.5099 131.163 33.1997 131.066 31.8586C130.922 30.1712 131.541 28.4468 132.694 27.2104C134.272 25.5414 137.025 25.1041 139.003 26.3066C140.118 26.9764 140.883 28.1404 141.14 29.4075C141.054 25.5491 141.097 21.6892 141.07 17.8292C140.957 14.6391 139.715 11.4766 137.542 9.12554C135.984 7.33491 133.907 6.06007 131.696 5.23943C131.933 6.60665 131.847 8.04778 131.271 9.32416C130.404 11.4181 128.36 12.8762 126.158 13.2688C125.912 12.7206 125.656 12.1787 125.391 11.6398C126.058 11.4473 126.737 11.2795 127.36 10.9685C129.573 9.87535 130.483 6.9192 129.491 4.70363C129.17 4.65898 128.849 4.60971 128.532 4.56044C128.94 5.27638 129.299 6.06623 129.251 6.91151C129.216 8.67596 127.862 10.231 126.212 10.7483C124.101 11.435 121.61 10.2202 120.803 8.16633C120.326 7.00235 120.43 5.71519 120.729 4.52349C118.88 4.51887 117.032 4.53119 115.183 4.51425C115.605 5.51041 115.85 6.60203 115.699 7.68596C115.525 9.50891 114.31 11.1933 112.624 11.9123C110.869 12.7006 108.663 12.037 107.522 10.5205C106.646 9.3919 106.401 7.76294 107.034 6.46193C107.47 5.54737 108.306 4.88069 109.237 4.51579C108.657 4.51579 108.072 4.50809 107.503 4.63742ZM111.576 4.50348C112.594 4.97769 113.49 6.03082 113.282 7.21944C113.174 8.72061 111.43 9.81069 110.038 9.24409C109.474 9.02238 109.276 8.40652 109.103 7.88149C109.622 7.61513 110.139 7.34415 110.649 7.05623C110.84 7.26255 111.032 7.46732 111.231 7.66902C111.745 7.25793 111.434 6.46193 110.886 6.25253C109.907 5.72289 108.597 6.46346 108.429 7.53353C108.23 8.95772 109.544 10.3911 110.986 10.2895C112.55 10.1725 113.904 8.77142 113.944 7.19942C114.033 6.20172 113.57 5.23943 112.903 4.52503C112.46 4.52349 112.016 4.51579 111.576 4.50348ZM122.882 4.52811C122.588 5.24713 122.39 6.04622 122.589 6.81913C122.942 8.328 124.748 9.25795 126.187 8.71445C127.211 8.36033 127.745 7.01004 127.207 6.06315C126.908 5.59202 126.38 5.16707 125.792 5.24867C125.436 5.3195 125.205 5.64436 125.222 6.00157C125.582 6.02466 125.944 6.0416 126.307 6.05699C126.324 6.68056 126.34 7.30412 126.363 7.92768C125.454 8.14016 124.307 8.06625 123.73 7.23329C123.134 6.42959 123.384 5.36415 123.731 4.51425C123.445 4.51887 123.163 4.52503 122.882 4.52811ZM94.7274 26.4236C94.752 29.9756 94.7443 33.5261 94.7535 37.0781C94.7812 38.7733 95.0861 40.4669 95.6989 42.0512C97.5619 47.0351 102.581 50.6841 107.91 50.8442C110.223 50.8781 112.537 50.8735 114.849 50.8781C115.294 48.1129 114.341 44.9673 111.933 43.3707C109.885 42.1097 107.393 42.2159 105.122 41.6755C103.391 41.2968 101.71 40.6455 100.23 39.6617C98.6674 38.5777 97.4202 36.8795 97.2878 34.9349C97.12 33.0365 97.8344 31.1889 98.8444 29.6154C96.9552 29.5799 95.2801 28.2035 94.7274 26.4236ZM132.997 32.0034C133.354 33.8972 135.27 35.2274 137.148 35.2074C138.612 35.212 140.015 34.3883 140.806 33.172C141.197 32.6269 141.057 31.9218 141.12 31.2967C140.683 33.2289 138.671 34.6008 136.717 34.3483C135.541 34.2528 134.44 33.4968 133.958 32.4145C133.542 31.563 133.692 30.5407 134.11 29.7201C134.74 28.4668 136.645 28.0203 137.709 28.9749C138.115 29.349 138.3 29.8833 138.494 30.3852C138.033 30.7331 137.567 31.0719 137.088 31.3906C136.796 30.9841 136.44 30.2528 135.826 30.5284C135.257 31.0673 135.812 31.8771 136.321 32.2251C137.316 32.9718 138.873 32.2436 139.123 31.0796C139.592 29.3659 138.046 27.4229 136.254 27.5969C134.152 27.7216 132.546 29.971 132.997 32.0034ZM131.932 39.2198C129.156 39.7725 126.187 40.082 123.795 41.7294C122.991 42.236 122.278 42.9242 121.861 43.7864C120.8 45.9712 120.537 48.4777 120.842 50.8688C122.997 50.8596 125.151 50.8704 127.307 50.8642C130.663 50.875 134.004 49.594 136.494 47.343C138.819 45.2722 140.395 42.3868 140.9 39.3152C141.11 38.102 141.083 36.8672 141.09 35.6416C138.606 37.9434 135.148 38.6101 131.932 39.2198Z" fill="#02BF9C"/>
</g>
<g id="Vector_2">
<path d="M115.873 10.7206C117.659 9.88458 119.801 9.84917 121.63 10.5728C123.199 11.2056 124.264 12.6252 125.073 14.0524C125.955 15.549 125.967 17.3396 126.494 18.9609C126.914 20.3589 127.553 21.7892 128.768 22.6761C130.17 23.6538 132.144 23.7739 133.635 22.9163C135.502 21.9278 136.805 19.6353 136.141 17.5321C135.565 15.4227 132.993 14.2772 130.997 15.0594C129.382 15.6429 128.588 17.7738 129.416 19.2734C129.91 20.2065 131.18 20.6668 132.138 20.1788C132.802 19.8108 133.208 19.0502 133.171 18.2942C133.119 17.8831 132.685 17.7892 132.349 17.7322C132.177 18.1325 132.041 18.5483 131.949 18.9732C131.348 18.8177 130.742 18.6853 130.133 18.5652C130.087 17.8754 130.133 17.084 130.683 16.5867C131.887 15.4012 134.183 15.7923 134.876 17.355C135.81 19.2349 134.424 21.5229 132.578 22.1803C131.228 22.5514 129.671 22.2434 128.654 21.2534C127.128 19.7877 126.92 17.3011 127.869 15.4643C128.583 14.0001 130.158 13.0902 131.752 12.9547C134.201 12.7684 136.789 14.151 137.77 16.4497C138.29 17.5567 138.358 18.8377 138.097 20.0233C137.59 22.148 136.049 23.9848 134.067 24.8901C132.375 25.6507 130.355 25.586 128.695 24.7777C127.012 23.8909 125.684 22.3512 125.074 20.5467C124.574 18.9948 124.223 17.3997 123.753 15.84C123.325 14.4512 122.404 13.1949 121.139 12.462C120.089 11.8461 118.778 11.8092 117.636 12.1633C116.564 12.4989 115.519 13.0886 114.878 14.037C114.045 15.2503 113.702 16.8654 114.229 18.2711C114.607 19.3597 115.574 20.1988 116.688 20.4775C117.924 20.8239 119.328 20.4313 120.215 19.5044C120.986 18.7099 121.29 17.4474 120.872 16.4112C120.454 15.4951 119.356 14.9008 118.366 15.1964C117.534 15.4566 116.926 16.3188 117.002 17.1934C117.062 17.5444 117.517 17.8308 117.828 17.5952C118.052 17.3165 118.135 16.9578 118.266 16.6329C118.886 16.7869 119.502 16.9624 120.116 17.1456C119.915 17.9385 119.648 18.83 118.889 19.2642C117.328 20.1418 115.045 18.8947 115.028 17.0748C114.829 14.8192 117.088 12.8484 119.286 13.1487C121.105 13.3827 122.569 14.9701 122.862 16.7484C123.125 18.1803 122.572 19.6845 121.564 20.7115C119.691 22.6145 116.418 22.8932 114.253 21.332C113.182 20.5929 112.469 19.4058 112.218 18.1372C111.593 15.218 113.179 12.0078 115.873 10.7206Z" fill="#148070"/>
<path d="M115.873 10.7206C117.659 9.88458 119.801 9.84917 121.63 10.5728C123.199 11.2056 124.264 12.6252 125.073 14.0524C125.955 15.549 125.967 17.3396 126.494 18.9609C126.914 20.3589 127.553 21.7892 128.768 22.6761C130.17 23.6538 132.144 23.7739 133.635 22.9163C135.502 21.9278 136.805 19.6353 136.141 17.5321C135.565 15.4227 132.993 14.2772 130.997 15.0594C129.382 15.6429 128.588 17.7738 129.416 19.2734C129.91 20.2065 131.18 20.6668 132.138 20.1788C132.802 19.8108 133.208 19.0502 133.171 18.2942C133.119 17.8831 132.685 17.7892 132.349 17.7322C132.177 18.1325 132.041 18.5483 131.949 18.9732C131.348 18.8177 130.742 18.6853 130.133 18.5652C130.087 17.8754 130.133 17.084 130.683 16.5867C131.887 15.4012 134.183 15.7923 134.876 17.355C135.81 19.2349 134.424 21.5229 132.578 22.1803C131.228 22.5514 129.671 22.2434 128.654 21.2534C127.128 19.7877 126.92 17.3011 127.869 15.4643C128.583 14.0001 130.158 13.0902 131.752 12.9547C134.201 12.7684 136.789 14.151 137.77 16.4497C138.29 17.5567 138.358 18.8377 138.097 20.0233C137.59 22.148 136.049 23.9848 134.067 24.8901C132.375 25.6507 130.355 25.586 128.695 24.7777C127.012 23.8909 125.684 22.3512 125.074 20.5467C124.574 18.9948 124.223 17.3997 123.753 15.84C123.325 14.4512 122.404 13.1949 121.139 12.462C120.089 11.8461 118.778 11.8092 117.636 12.1633C116.564 12.4989 115.519 13.0886 114.878 14.037C114.045 15.2503 113.702 16.8654 114.229 18.2711C114.607 19.3597 115.574 20.1988 116.688 20.4775C117.924 20.8239 119.328 20.4313 120.215 19.5044C120.986 18.7099 121.29 17.4474 120.872 16.4112C120.454 15.4951 119.356 14.9008 118.366 15.1964C117.534 15.4566 116.926 16.3188 117.002 17.1934C117.062 17.5444 117.517 17.8308 117.828 17.5952C118.052 17.3165 118.135 16.9578 118.266 16.6329C118.886 16.7869 119.502 16.9624 120.116 17.1456C119.915 17.9385 119.648 18.83 118.889 19.2642C117.328 20.1418 115.045 18.8947 115.028 17.0748C114.829 14.8192 117.088 12.8484 119.286 13.1487C121.105 13.3827 122.569 14.9701 122.862 16.7484C123.125 18.1803 122.572 19.6845 121.564 20.7115C119.691 22.6145 116.418 22.8932 114.253 21.332C113.182 20.5929 112.469 19.4058 112.218 18.1372C111.593 15.218 113.179 12.0078 115.873 10.7206Z" fill="#01BC9A"/>
<path d="M115.873 10.7206C117.659 9.88458 119.801 9.84917 121.63 10.5728C123.199 11.2056 124.264 12.6252 125.073 14.0524C125.955 15.549 125.967 17.3396 126.494 18.9609C126.914 20.3589 127.553 21.7892 128.768 22.6761C130.17 23.6538 132.144 23.7739 133.635 22.9163C135.502 21.9278 136.805 19.6353 136.141 17.5321C135.565 15.4227 132.993 14.2772 130.997 15.0594C129.382 15.6429 128.588 17.7738 129.416 19.2734C129.91 20.2065 131.18 20.6668 132.138 20.1788C132.802 19.8108 133.208 19.0502 133.171 18.2942C133.119 17.8831 132.685 17.7892 132.349 17.7322C132.177 18.1325 132.041 18.5483 131.949 18.9732C131.348 18.8177 130.742 18.6853 130.133 18.5652C130.087 17.8754 130.133 17.084 130.683 16.5867C131.887 15.4012 134.183 15.7923 134.876 17.355C135.81 19.2349 134.424 21.5229 132.578 22.1803C131.228 22.5514 129.671 22.2434 128.654 21.2534C127.128 19.7877 126.92 17.3011 127.869 15.4643C128.583 14.0001 130.158 13.0902 131.752 12.9547C134.201 12.7684 136.789 14.151 137.77 16.4497C138.29 17.5567 138.358 18.8377 138.097 20.0233C137.59 22.148 136.049 23.9848 134.067 24.8901C132.375 25.6507 130.355 25.586 128.695 24.7777C127.012 23.8909 125.684 22.3512 125.074 20.5467C124.574 18.9948 124.223 17.3997 123.753 15.84C123.325 14.4512 122.404 13.1949 121.139 12.462C120.089 11.8461 118.778 11.8092 117.636 12.1633C116.564 12.4989 115.519 13.0886 114.878 14.037C114.045 15.2503 113.702 16.8654 114.229 18.2711C114.607 19.3597 115.574 20.1988 116.688 20.4775C117.924 20.8239 119.328 20.4313 120.215 19.5044C120.986 18.7099 121.29 17.4474 120.872 16.4112C120.454 15.4951 119.356 14.9008 118.366 15.1964C117.534 15.4566 116.926 16.3188 117.002 17.1934C117.062 17.5444 117.517 17.8308 117.828 17.5952C118.052 17.3165 118.135 16.9578 118.266 16.6329C118.886 16.7869 119.502 16.9624 120.116 17.1456C119.915 17.9385 119.648 18.83 118.889 19.2642C117.328 20.1418 115.045 18.8947 115.028 17.0748C114.829 14.8192 117.088 12.8484 119.286 13.1487C121.105 13.3827 122.569 14.9701 122.862 16.7484C123.125 18.1803 122.572 19.6845 121.564 20.7115C119.691 22.6145 116.418 22.8932 114.253 21.332C113.182 20.5929 112.469 19.4058 112.218 18.1372C111.593 15.218 113.179 12.0078 115.873 10.7206Z" fill="#02BF9C"/>
</g>
</g>
<g id="#192231ff">
<path id="Vector_3" d="M7.47136 10.2987C7.51293 8.99926 8.67999 7.85375 9.98254 7.85529C11.3652 7.83066 12.7478 7.84913 14.1289 7.84298C14.1304 10.0647 14.1304 12.2864 14.1304 14.5097C11.9056 14.5112 9.67923 14.5159 7.45596 14.5066C7.45134 13.104 7.43749 11.7014 7.47136 10.2987Z" fill="white"/>
<path id="Vector_4" d="M45.5411 11.96C46.9899 11.9754 48.4402 11.9307 49.8875 12.0015C51.2024 12.0847 52.2725 13.301 52.2632 14.6067C52.2694 17.8861 52.2617 21.1656 52.2648 24.4451C52.254 25.9309 52.334 27.4243 52.1416 28.9024C51.6304 32.3035 49.3871 35.3813 46.334 36.9548C42.2277 39.1796 36.7634 38.2497 33.4994 34.9502C31.8288 33.3012 30.7495 31.0795 30.4508 28.7531C30.3369 27.9786 30.3431 27.1949 30.3107 26.4143C24.9619 26.4143 19.6147 26.4143 14.2659 26.4143C14.2582 27.9109 14.2567 29.4059 14.2136 30.9024C14.1828 33.5445 13.0711 36.1357 11.2636 38.0526C9.57918 39.8155 7.26815 40.9318 4.8632 41.2751C3.27427 41.4645 1.66994 41.3552 0.0748519 41.3229C0.0702329 39.871 -0.0883519 38.4037 0.153375 36.961C0.31042 36.0988 0.870857 35.2258 1.7577 34.9902C2.81853 34.7177 3.95788 34.9132 4.99407 34.5268C5.82549 34.2142 6.46907 33.546 6.94328 32.8132C7.41288 32.068 7.476 31.1611 7.46215 30.3035C7.52989 27.8862 7.43751 25.4674 7.56531 23.0532C7.6038 22.4374 7.54837 21.783 7.84706 21.221C8.14268 20.5975 8.68464 20.0355 9.38057 19.8923C10.135 19.726 10.9125 19.7368 11.6824 19.7383C19.0712 19.8061 26.46 19.7522 33.8489 19.7599C34.631 19.7938 35.5163 19.7322 36.1584 20.2665C36.9436 20.8207 37.2407 21.823 37.213 22.7453C37.1468 24.4436 37.1869 26.1418 37.2192 27.84C37.2577 30.3974 40.2046 32.2866 42.5772 31.5106C44.1954 30.9979 45.4133 29.4367 45.4748 27.7353C45.5888 22.4774 45.5241 17.2179 45.5411 11.96Z" fill="white"/>
<path id="Vector_5" d="M55.1997 11.9663C56.6039 12.0002 58.0112 11.9571 59.4153 11.9971C60.276 12.0079 61.0843 12.5206 61.5447 13.235C61.9573 13.9186 61.9281 14.7516 61.9512 15.5229C61.9342 19.5769 61.8957 23.6339 61.9881 27.6878C61.9881 29.7648 63.8126 31.5677 65.8619 31.6663C67.922 31.8387 69.9174 30.1713 70.1591 28.1281C70.387 26.2482 70.2161 24.3513 70.2623 22.4637C70.2823 21.6508 70.5964 20.8009 71.2723 20.3113C71.7542 19.951 72.3485 19.7662 72.9474 19.7524C74.2931 19.7277 75.6388 19.7247 76.9844 19.7262C76.9967 22.4345 77.0044 25.1412 76.9567 27.8495C76.8828 30.9673 75.1445 33.8541 72.795 35.8203C70.7457 37.5062 68.059 38.4377 65.4 38.2329C60.6117 37.905 56.2868 34.0959 55.3984 29.3706C55.0874 27.7494 55.1813 26.0881 55.1736 24.4468C55.2013 20.2866 55.2105 16.1265 55.1997 11.9663Z" fill="white"/>
<path id="Vector_6" d="M16.2185 41.6047C16.7282 41.3845 17.2948 41.4276 17.8367 41.4245C23.7921 41.4338 29.7476 41.4091 35.703 41.4153C35.703 43.5585 35.7045 45.7033 35.7014 47.8465C28.6498 47.8403 21.5981 47.848 14.5465 47.8434C14.5434 46.5655 14.5372 45.2876 14.5557 44.0112C14.5434 42.9673 15.2409 41.9634 16.2185 41.6047Z" fill="white"/>
<path id="Vector_7" d="M56.165 43.8434C56.2405 42.5162 57.4568 41.3954 58.7855 41.4261C64.9581 41.4046 71.1306 41.42 77.3031 41.4185C77.3123 44.6856 77.2907 47.9528 77.2769 51.2199C75.1244 51.2261 72.972 51.2184 70.8195 51.223C70.8195 50.0975 70.8226 48.9705 70.8165 47.845C65.9265 47.8465 61.0381 47.8419 56.1481 47.8465C56.1435 46.5117 56.1389 45.1768 56.165 43.8434Z" fill="white"/>
</g>
</g>
</svg>
