<svg width="24" height="24" viewBox="0 0 24 24" fill="none" xmlns="http://www.w3.org/2000/svg">
<g id="vuesax/bold/send-2">
<g id="send-2">
<path id="Vector" d="M7.86001 2.96004L16.89 5.96004C22.96 7.99004 22.96 11.3 16.89 13.32L14.21 14.21L13.32 16.89C11.3 22.96 7.98 22.96 5.96 16.89L2.95001 7.87004C1.61001 3.82004 3.81001 1.61004 7.86001 2.96004ZM7.54001 8.34004L11.34 12.16C11.49 12.31 11.68 12.38 11.87 12.38C12.06 12.38 12.25 12.31 12.4 12.16C12.69 11.87 12.69 11.39 12.4 11.1L8.60001 7.28004C8.31001 6.99004 7.83001 6.99004 7.54001 7.28004C7.25001 7.57004 7.25001 8.05004 7.54001 8.34004Z" fill="#2860E6"/>
</g>
</g>
</svg>
