<svg width="40" height="40" viewBox="0 0 40 40" fill="none" xmlns="http://www.w3.org/2000/svg">
<path opacity="0.4" d="M27.4834 36.6667H12.5167C6.66668 36.6667 5.40003 33.3167 5.88336 29.2167L7.38335 16.7167C7.76668 13.4833 8.33335 10.8333 14 10.8333H26C31.6667 10.8333 32.2334 13.4833 32.6167 16.7167L33.8667 27.1333L34.1167 29.2167C34.1334 29.35 34.15 29.4833 34.1667 29.6166C34.5167 33.5333 33.15 36.6667 27.4834 36.6667Z" fill="#0F53D9"/>
<path d="M26.6666 14.5833C25.9833 14.5833 25.4166 14.0167 25.4166 13.3333V7.5C25.4166 5.7 24.2999 4.58334 22.4999 4.58334H17.4999C15.6999 4.58334 14.5833 5.7 14.5833 7.5V13.3333C14.5833 14.0167 14.0166 14.5833 13.3333 14.5833C12.6499 14.5833 12.0833 14.0167 12.0833 13.3333V7.5C12.0833 4.31667 14.3166 2.08334 17.4999 2.08334H22.4999C25.6833 2.08334 27.9166 4.31667 27.9166 7.5V13.3333C27.9166 14.0167 27.3499 14.5833 26.6666 14.5833Z" fill="#0F53D9"/>
<path d="M34.1666 29.6166C34.1166 29.6333 34.0666 29.6333 34.0166 29.6333H13.3333C12.6499 29.6333 12.0833 29.0667 12.0833 28.3833C12.0833 27.6833 12.6499 27.1333 13.3333 27.1333H33.8666L34.1166 29.2167C34.1333 29.35 34.1499 29.4833 34.1666 29.6166Z" fill="#0F53D9"/>
</svg>
