<svg width="40" height="40" viewBox="0 0 40 40" fill="none" xmlns="http://www.w3.org/2000/svg">
<path opacity="0.4" d="M36.6666 20V28.3334C36.6666 33.3334 33.3333 36.6667 28.3333 36.6667H11.6666C6.66659 36.6667 3.33325 33.3334 3.33325 28.3334V20C3.33325 15.4667 6.06659 12.3 10.3166 11.7667C10.7499 11.7 11.1999 11.6667 11.6666 11.6667H28.3333C28.7666 11.6667 29.1833 11.6833 29.5833 11.75C33.8833 12.25 36.6666 15.4334 36.6666 20Z" fill="#0F53D9"/>
<path d="M29.5833 11.75C29.1833 11.6833 28.7667 11.6667 28.3333 11.6667H11.6667C11.2 11.6667 10.75 11.7 10.3167 11.7667C10.55 11.3 10.8833 10.8667 11.2833 10.4667L16.7 5.03331C18.9833 2.76665 22.6833 2.76665 24.9666 5.03331L27.8833 7.98335C28.95 9.03335 29.5167 10.3666 29.5833 11.75Z" fill="#0F53D9"/>
<path d="M36.6666 20.8333H31.6666C29.8333 20.8333 28.3333 22.3333 28.3333 24.1666C28.3333 26 29.8333 27.5 31.6666 27.5H36.6666" fill="#0F53D9"/>
</svg>
